<svg xmlns="http://www.w3.org/2000/svg" width="1536" height="1024"><path fill="#5925A8" d="M445.862 263.062c2.207 1.139 2.207 1.139 5.138.938l.605 1.715c1.933 3.167 4.683 4.827 7.707 6.847 35.94 24.891 63.27 63.434 72.313 106.563l.641 3.032c9.755 47.418-.882 94.607-27.09 135.122-6.383 9.633-13.14 18.85-20.602 27.674-1.946 2.304-3.805 4.608-5.574 7.047l1 2-1.8.742c-12.58 7.194-22.356 34.104-25.931 47.119-1.582 6.14-2.595 12.212-3.269 18.514-1.112 10.215-3.885 17.187-11 24.625l.875 1.617c3.305 6.634 4.675 12.628 2.324 19.84-1.45 3.375-2.933 6.202-5.199 9.105-1.273 2.344-1.273 2.344-.328 4.41a74 74 0 0 0 2.25 4.16c2.777 4.81 2.75 9.352 1.36 14.56-2.99 8.857-6.525 13.843-14.868 18.308-2.483 1.028-4.635 1.404-7.289 1.75-2.246.323-2.246.323-4.125 1.25-1.205 2.128-1.703 4.126-2.277 6.5-1.28 4.426-3.982 7.854-6.723 11.5l-1.488 2.062c-6.716 8.533-16.986 14.45-27.512 16.938l-2.117.55c-11.154 1.739-24.389 1.817-34.883-2.55l-2.969-1.184c-6.959-3.101-11.761-7.02-16.875-12.644-2.005-2.02-3.548-3.105-6.156-4.172l1-2c-.883-2.447-.883-2.447-2.25-5.063l-1.328-2.722c-1.29-2.52-1.29-2.52-4.422-3.215l-.305-1.945L304 720c-2.773-1.157-2.773-1.157-6.125-1.875-8.215-2.337-12.497-5.312-16.813-12.688-2.747-6.032-3.01-11.924-2.062-18.437 1.1-2.869 2.485-5.312 4-8-.37-3.278-1.904-5.635-3.563-8.438-3.12-6.104-3.3-11.829-2.437-18.562 1.5-3.563 1.5-3.563 3-6 .44-4.067.44-4.067-2.25-6.563-5.917-6.802-6.986-15.363-8.125-24-3.862-28.527-18.76-50.13-37.113-71.507C220.347 529.74 209.584 514.617 201 498l-1.062-2.045C189.519 475.612 181.243 451.136 183 428l-2-1v-16h2l-.54-1.508c-5.158-27.892 13.472-66.3 28.22-88.676 5.004-7.263 10.62-14.093 16.32-20.816l2.047-2.457c3.542-4.18 3.542-4.18 4.953-5.543h2l1-3h2v-2c28.101-30.795 74.727-44.957 114.812-46.875 32.482-1.177 63.495 7.902 92.05 22.937M238.78 309.004c-27.313 30.625-42.269 70.928-41.948 111.93.101 2.264.101 2.264 1.168 5.066.045 2.187.04 4.375 0 6.562-.24 4.38-.24 4.38 1 8.438.168 1.5.298 3.006.406 4.512 3.42 36.69 26.625 67.296 49.939 94.03 18.9 21.737 32.327 47.088 36.1 75.853.87 6.415 1.613 10.237 6.555 14.605 3.538 1.713 6.355 2.25 10.268 2.254l3.157.017 3.43-.012 3.638.01q4.927.01 9.856 0c3.443-.005 6.886 0 10.33.002q8.673.005 17.347-.01 10.016-.015 20.032.003 8.61.013 17.22.006 5.139-.007 10.276.003c3.82.005 7.64-.003 11.461-.014l3.425.012c6.255-.034 11.616-.063 16.81-3.959 3.306-4.368 3.911-9.838 4.737-15.158 4.67-30.04 19.216-55.296 38.801-78.18 29.71-34.8 51.136-79.145 47.857-125.876.04-8.594.04-8.594-2.645-16.098-.284-2.221-.448-4.443-.621-6.676-.4-2.448-1.199-4.16-2.379-6.324v-1c-1.14-7.529-3.378-14.305-6.313-21.313l-1.314-3.139c-6.722-15.508-15.827-31.056-27.893-43.06-2.453-2.466-4.626-5.179-6.859-7.843L471 302h-2v-2c-1.68-1.777-1.68-1.777-3.813-3.563l-2.144-1.878c-2.056-1.743-2.056-1.743-5.043-2.559l-5-5c-2.194-1.724-4.485-3.276-6.813-4.813l-1.976-1.305c-66.215-42.81-152.616-28.603-205.431 28.122"/><path fill="#CEA2FE" d="M381 335c8.941 7.13 16.945 15.072 21 26l3.734-.105c16.833-.34 29.117 2.673 43.266 12.105v2l1.79.727c8.789 5.062 13.701 19.23 17.21 28.273h2a120 120 0 0 1 3.516 3.527c1.55 1.539 3.197 2.821 4.921 4.16 8.369 7.168 12.737 18.494 13.875 29.27.31 13.865-4.456 24.846-14.007 34.852-6.39 6.074-12.828 8.173-21.328 10.394-2.878.664-2.878.664-4.977 1.797a150 150 0 0 1-7.812-1.375l-2.159-.422c-5.864-1.15-5.864-1.15-8.63-2.039-3.65-.25-6.02 1.669-8.961 3.586C413.24 494.533 402.9 495.432 390 495h-3l-3-2c-4.692-1.78-4.692-1.78-9.562-1.375-2.54 1.381-2.54 1.381-5.176 3.29-12.455 7.964-27.894 9.218-42.203 6.397-2.735-.671-5.395-1.403-8.059-2.312v-2l-2.5-.625c-5.455-2.143-9.72-5.729-14-9.687-5.533-3.736-12.147-2.728-18.496-2.137L282 485l-1 2v-2l-1.984-.078c-11.312-.703-20.216-3.983-29.59-10.305C246.7 472.8 243.97 471.365 241 470l1-2-2.187-1.937c-4.466-4.466-7.151-10.22-9.375-16.063-1.1-3.14-1.1-3.14-3.625-3.937L225 446l3-7h-3l-1-6 2 1 .262-3.043c1.631-16.733 7.126-29.8 19.363-41.77 8.603-6.981 19.297-10.652 30.059-12.582L279 376l2.08-.253c2.186-.36 3.935-.758 5.92-1.747 1.491-2.699 2.276-4.605 3.063-7.5 2.292-7.133 5.169-12.646 9.937-18.5l1.496-1.95C319.5 323.56 357.312 318.803 381 335"/><path fill="#511A9B" d="M706.625 560.875 709 563l1.215-1.355c7.691-8.18 15.536-11.916 26.785-12.645 13.886-.11 24.445 1.867 34.809 11.684 3.704 3.916 6.585 7.643 8.816 12.566l1.227 2.64c2.9 7.856 3.47 15.443 3.562 23.766l.059 3.337c.06 3.502.106 7.005.152 10.507l.117 6.96c.092 5.527.163 11.053.222 16.58.033 2.708.08 5.416.129 8.124q.029 2.246.055 4.492l.06 3.776c-.397 6.797-1.84 12.153-6.58 17.154-3.697 3.21-7.343 3.606-12.066 3.414-5.056-.709-8.305-3.148-11.562-7-1.572-2.758-2.3-4.997-2.59-8.15l-.221-2.394a415 415 0 0 1-.76-12.05l-.13-2.73c-.29-6.802-.347-13.587-.291-20.395l.023-2.938c.037-3.965.08-7.929.14-11.893.043-2.952.066-5.904.087-8.856l.056-2.705c.02-4.896-.325-7.81-3.314-11.889v-2c-6.459-2.828-13.603-4.14-20.437-1.875-4.368 1.965-6.574 4.838-8.649 9.11-1.103 3.338-1.166 6.115-1.17 9.631l-.01 2.033q-.01 2.175-.008 4.349-.001 3.45-.03 6.9-.068 9.809-.077 19.616c-.005 4.006-.03 8.013-.065 12.019q-.015 2.28-.007 4.56c.05 14.803.05 14.803-4.547 21.657-3.187 3-3.187 3-6 3l-1 2-4-1-1 2c-12.734-4.426-12.734-4.426-16.108-11.237-1.066-3.303-1.15-6.067-1.163-9.538l-.016-2.002q-.015-2.143-.018-4.286-.008-3.4-.04-6.8c-.056-6.443-.087-12.885-.111-19.328-.016-3.948-.047-7.896-.085-11.844a586 586 0 0 1-.018-4.493c.408-12.307.408-12.307-4.822-23.012-4.566-4.1-8.295-4.84-14.33-4.737-5.967.723-10.937 2.694-14.851 7.277-2.262 4.719-2.565 8.422-2.58 13.661l-.01 2.002a1644 1644 0 0 0-.017 4.294q-.012 3.406-.041 6.812c-.052 6.456-.1 12.911-.116 19.367-.01 3.954-.04 7.907-.081 11.86q-.02 2.25-.015 4.502c.016 14.736.016 14.736-4.578 21.502-3.266 2.654-5.924 4.127-10 5l-2 2-1-2-3.687-.687c-4.3-.989-6.3-2.844-9.086-6.168-3.39-5.926-3.525-11.979-3.518-18.625l-.02-2.802c-.019-3.04-.023-6.08-.025-9.12l-.02-6.37q-.017-6.666-.015-13.332c0-5.684-.027-11.367-.061-17.051a2470 2470 0 0 1-.025-13.15q-.005-3.142-.027-6.284c-.02-2.934-.014-5.867-.002-8.801l-.034-2.6c.074-7.09 1.96-12.45 7.02-17.51 5.18-2.22 9.95-2.255 15.5-1.5 4.578 2.207 6.914 5.057 10 9l2.195-1.46 2.93-1.915 2.883-1.898c17.043-9.835 38.198-4.71 52.617 7.148"/><path fill="#511B9B" d="M988 548h2v3l2.875.188c4.4.6 7.924 2.56 11.793 4.656 2.132 1.057 4.01 1.686 6.332 2.156l.125-1.75c1.38-3.547 3.564-4.504 6.875-6.25 5.308-1.493 9.915-1.26 15 1 5.502 4.464 6.866 9.214 8 16 .25 3.117.264 6.21.243 9.337l.006 2.684c.003 2.903-.007 5.806-.019 8.71v6.116q-.003 6.398-.024 12.797c-.017 5.432-.021 10.863-.02 16.295q-.001 6.315-.013 12.63l-.006 6.003c-.02 24.656-.122 48.116-18.495 67.018-7.063 6.37-14.41 10.3-23.672 12.41l1 3-2 1-4-3-1 2c-22.75.53-41.099.076-60-14l-3-1v-2h-2c-.858-14.307-.858-14.307 4-20 4.366-3.469 9.157-4.705 14.684-4.465 4.228.849 7.864 2.922 11.316 5.465l1 2c1.977.875 1.977.875 4.313 1.563l2.363.753c2.098.617 4.198 1.173 6.324 1.684l1-2 1 2c8.96.416 17.87.366 25.375-5.187 6.362-6.817 8.024-14.612 8.625-23.813-.392-2.78-.392-2.78-1-5q-1.724 1.432-3.437 2.875l-1.934 1.617c-1.737 1.43-1.737 1.43-2.629 3.508-1.895.27-3.794.529-5.7.715-2.277.282-4.391.775-6.612 1.347-6.873 1.597-13.82 1.482-20.688-.062l-1 2a56.5 56.5 0 0 1-7-4q-3.08-1.589-6.187-3.125l-3.293-1.633L946 662v-2l-1.758-.781C933.364 653.306 928.127 641.006 924 630l-1-2c-1.025-7.09-1.123-14.286-1.187-21.437l-.04-2.33c-.007-4.207.295-7.391 2.227-11.233l-2-1 2-1a95 95 0 0 0 2.25-5.437c5.638-13.898 13.224-24.57 26.75-31.563 8.971-3.655 17.248-5.169 26.875-5.062l2.375.013q2.875.02 5.75.049zm-24.465 35.063c-7.843 9.899-8.213 21.848-7.535 33.937 1.38 8.919 3.868 16.189 11.254 21.898 6.947 4.383 14.721 5.013 22.746 4.102 7.666-1.736 12.76-5.392 17-12 3.397-6.514 3.869-13.77 3-21l-2-2h2c.5-9.007-1.313-17.155-7.152-24.242-5.88-5.594-12.927-7.55-20.891-7.887-7.053.308-13.235 2.286-18.422 7.192"/><path fill="#511A9B" d="M652 312c5.5-.125 5.5-.125 7.875.469 2.46.615 4.852.861 7.375 1.094l2.703.253L672 314l1-2v2c3.024-.588 6.018-1.227 9-2v1l3.84-.105 5.097-.082 2.518-.077c6.958-.08 13.823.612 18.982 5.639 3.678 6.177 3.86 11.172 3.854 18.236l.02 3.24c.019 3.536.023 7.073.025 10.61l.02 7.404q.017 7.77.015 15.54c0 6.604.027 13.209.061 19.813.023 5.103.026 10.206.025 15.31q.004 3.648.027 7.297c.116 20.059-.906 38.683-15.289 54.132-2.882 2.682-5.959 4.801-9.312 6.852-2.019 1.18-2.019 1.18-3.883 3.191-17.055 5.893-33.846 5.341-51 0l-1-2-2.5-.75c-6.842-2.443-12.703-6.822-17.5-12.25l-1.61-1.82c-6.903-8.278-14.274-20.054-14.39-31.18.725-4.567 2.418-7.803 5.875-10.875 5.22-3.55 8.761-4.58 15.125-4.125 4.528 1.186 7.029 3.42 10 7 1.518 2.928 2.754 5.948 4 9 2.015 4.35 2.015 4.35 5 8l1.5 2.813c3.255 5.011 9.441 7.462 15.086 8.8 7.004 1.122 11.903.572 18.14-2.902 4.254-3.2 5.826-6.67 7.274-11.711.289-2.588.499-5.095.615-7.69l.115-2.24c.402-8.596.396-17.19.368-25.793l-.005-5.173a8130 8130 0 0 0-.024-13.43q-.014-6.888-.02-13.778Q683.033 356.45 683 343l-2.263.016q-5.055.029-10.112.046l-3.562.026-3.399.01-3.142.016C658 343 658 343 656 342v2c-13.281-2.643-13.281-2.643-18-8-.75-2.687-.75-2.687-1-5l-2-2h2l-.062-1.758c.097-3.693.254-6.288 2.699-9.176 3.344-2.656 5.566-3.98 9.863-4.441l2.5.375zM1330 560l2.203 1.621c11.232 8.939 16.385 22.145 18.172 36.004 1.323 12.34 1.323 12.34-1.375 17.375-3.165 3.72-6.188 6.048-11 7-1.771.085-3.546.118-5.32.114h-3.214l-3.45-.016-3.548-.005c-3.74-.005-7.479-.018-11.218-.03q-3.803-.009-7.605-.014-9.322-.017-18.645-.049v2h-15c2.668 8.378 4.84 14.12 12.25 19.25 8.33 4.3 18.845 5.392 27.855 2.887A153 153 0 0 0 1318 643l3-1 1-2c5.1-2.363 8.637-2.038 14-1 2.5 1.063 2.5 1.063 4 2v2h2c2.537 4.626 2.273 9.01 1 14-4.68 9.359-14.397 12.874-23.8 16.055-6.685 1.975-12.891 2.161-19.825 2.195-1.545.03-1.545.03-3.121.063-7.212.036-13.41-1.077-20.254-3.313-5.446-1.92-5.446-1.92-11-1v-3h2l-1.758-1.137-2.367-1.55-2.32-1.512c-11.451-8.072-18.78-19.311-22.555-32.801v-4l-1 2h-2a560 560 0 0 1-.062-4.312l-.036-2.426C1235 620 1235 620 1236 617a86 86 0 0 0-.125-4.125c-.113-15.51 3.976-30.955 14.125-42.875l1.621-2.055c7.99-9.78 20.033-16.625 32.54-18.66 16.708-1.678 32.174.199 45.839 10.715m-55 23.875c-2.673 4.177-4.389 7.835-3.54 12.84L1272 599q9.372.037 18.744.055 3.19.008 6.382.02c3.05.013 6.1.018 9.151.023l2.901.015h2.67l2.361.007c1.815.076 1.815.076 2.791-1.12.611-5.989-.668-10.12-4-15-3.988-4.327-8.36-6.694-14.2-7.371-9.423-.18-17.153 1.08-23.8 8.246"/><path fill="#501A9A" d="M885.656 559.043c9.935 8.488 15.059 17.92 16.344 30.957.17 3.972.208 7.943.246 11.918l.1 6.986q.072 5.481.13 10.962c.04 3.538.092 7.076.145 10.614l.026 3.318.05 3.086.031 2.708c.292 2.585.879 4.22 2.272 6.408l1.938.813c2.608 1.501 3.587 3.272 4.652 6.054 1.018 5.294-.636 10.377-3.153 15.008-4.959 4.324-9.98 6.546-16.625 6.125-6.94-1.076-10.667-4.523-14.812-10l-2-1v2c-17.478 9.221-17.478 9.221-25 10l-3.102.324c-4.989.459-9.89.676-14.898.676l-1 2v-2l-3-1-1-2a71 71 0 0 0-4.5-1.687c-9.709-3.787-16.276-9.72-20.5-19.313-1.027-3.323-1.623-6.547-2-10l-.375-3.312c1.2-11.805 5.496-20.772 14.5-28.375 13.11-9.583 30.211-12.127 45.996-13.918 2.815-.229 2.815-.229 4.879-1.395q1.993-.53 4-1l.125-3.812.07-2.145c-.416-4.357-4.047-7.324-7.195-10.043-2.793-.939-2.793-.939-6-1l-2.066-.152c-5.644-.246-10.992.243-15.934 3.152-2.043 2.2-3.733 4.442-5.395 6.941-2.235 2.867-4.19 3.838-7.753 4.395-5.47.096-8.548-.647-12.852-4.336-3.717-4.23-4.357-8.113-4.277-13.59.635-5.518 3.18-9.747 7.402-13.285L818 558l2-2c20.315-9.46 47.075-11.248 65.656 3.043m-25.218 60.707-2.635.227c-8.34.82-17.923 2.473-23.615 9.148-1.664 4.027-1.89 7.579-1.188 11.875 2.368 4.122 4.558 5.567 9 7 8.534.896 16.526.5 24-4 4.262-4.049 5.863-8.597 6.195-14.43l-.07-3.445-.055-3.492L872 620c-3.57-1.785-7.68-.64-11.562-.25"/><path fill="#511A9B" d="M761 357c4.535 3.648 7.713 7.544 8.399 13.41l.033 3.95.031 2.19c.03 2.375.04 4.75.049 7.126l.054 4.956a2650 2650 0 0 1 .104 13.015c.03 4.43.076 8.862.121 13.292q.127 13.03.209 26.061l3 1h-2c2.9 4.727 5.687 9.168 11.332 10.586 8.018 1.244 15.833 1.288 22.668-3.586 4.504-5.377 5.122-11.024 5.158-17.785l.015-2.041q.016-2.19.026-4.377.02-3.47.053-6.937c.062-6.573.116-13.146.15-19.72.02-4.025.056-8.05.1-12.074q.021-2.295.026-4.59c.005-2.145.028-4.288.055-6.433l.025-3.69c.741-6.341 3.734-10.172 8.392-14.353 4.42-2.21 10.19-1.416 15-1 4.947 2.257 7.51 5.196 10 10 .871 3.307 1.492 6.62 2 10h-2l.219 2.613c.64 8.426.869 16.764.744 25.214-.177 4.22-.177 4.22 1.037 8.173h-2l.051 2.079q.261 10.731.486 21.462.086 4.003.187 8.005c.094 3.84.175 7.68.253 11.52l.097 3.603c.129 7.15.109 12.901-3.824 19.081-3.643 3.643-7.108 5.4-12.25 5.625-5.365-.235-8.805-2.289-12.75-5.875C814 475 814 475 812 472l-1.617 1.39C799.578 482.29 788.849 484.887 775 484c-11.673-2.059-21.164-7.005-29-16-6.684-10.66-9.223-20.928-9.625-33.375l-.11-3.128c-.312-10.288-.399-20.58-.44-30.873q-.013-2.846-.034-5.69c-.188-28.243-.188-28.243 4.271-34.559 6.457-5.22 13.166-6.717 20.938-3.375"/><path fill="#5826AA" d="M381 335c8.941 7.13 16.945 15.072 21 26l3.734-.105c16.833-.34 29.117 2.673 43.266 12.105v2l1.79.727c8.789 5.062 13.701 19.23 17.21 28.273h2a120 120 0 0 1 3.516 3.527c1.55 1.539 3.197 2.821 4.921 4.16 8.369 7.168 12.737 18.494 13.875 29.27.31 13.865-4.456 24.846-14.007 34.852-6.39 6.074-12.828 8.173-21.328 10.394-2.878.664-2.878.664-4.977 1.797a150 150 0 0 1-7.812-1.375l-2.159-.422c-5.864-1.15-5.864-1.15-8.63-2.039-3.65-.25-6.02 1.669-8.961 3.586C413.24 494.533 402.9 495.432 390 495h-3l-3-2c-4.692-1.78-4.692-1.78-9.562-1.375-2.54 1.381-2.54 1.381-5.176 3.29-12.455 7.964-27.894 9.218-42.203 6.397-2.735-.671-5.395-1.403-8.059-2.312v-2l-2.5-.625c-5.455-2.143-9.72-5.729-14-9.687-5.533-3.736-12.147-2.728-18.496-2.137L282 485l-1 2v-2l-1.984-.078c-11.312-.703-20.216-3.983-29.59-10.305C246.7 472.8 243.97 471.365 241 470l1-2-2.187-1.937c-4.466-4.466-7.151-10.22-9.375-16.063-1.1-3.14-1.1-3.14-3.625-3.937L225 446l3-7h-3l-1-6 2 1 .262-3.043c1.631-16.733 7.126-29.8 19.363-41.77 8.603-6.981 19.297-10.652 30.059-12.582L279 376l2.08-.253c2.186-.36 3.935-.758 5.92-1.747 1.491-2.699 2.276-4.605 3.063-7.5 2.292-7.133 5.169-12.646 9.937-18.5l1.496-1.95C319.5 323.56 357.312 318.803 381 335m-72.219 23.625c-4.292 5.723-6.693 11.913-8.844 18.688-1.36 4.27-2.586 7.553-5.937 10.687-2.724.908-4.573 1.165-7.395 1.29-13.408.78-24.326 2.634-34.605 12.022-8 9.03-12.725 19.401-12.34 31.512 1.226 11.453 5.844 21.237 14.39 29.051A69 69 0 0 0 260 466l1.813 1.176c8.5 5.218 18.337 6.447 28.039 4.148a449 449 0 0 0 5.011-1.629c3.055-.994 4.962-1.385 8.137-.695 3.917 2.78 7.196 6.156 10.5 9.625 8.766 8.328 18.714 10.88 30.604 10.722C355.986 488.924 364.57 484.43 373 476c6.519-1.142 10.607.51 16 4 7.175 2.566 19.244 2.306 26.148-.797 2.476-1.609 4.619-3.524 6.852-5.453 4.354-3.628 4.354-3.628 7.133-4.152 3.495.377 6.202 1.549 9.43 2.964 6.93 2.748 15.397 2.71 22.453.489 7.887-3.743 13.005-9.353 16.984-17.051 2.945-8.384 2.17-19.775-1.562-27.687-4.248-7.23-8.377-10.587-16.188-13.438-4.893-2.077-4.893-2.077-6.41-5.469q-.664-3.091-1.195-6.21c-1.908-9.455-7.82-16.82-15.645-22.196-6.864-3.73-12.838-6.214-20.684-5.922l-3.31.078q-3.438.093-6.875.235c-8.336.157-8.336.157-12.21-2.512a75 75 0 0 1-5.233-9.192C383.747 354.245 377.64 348.456 368 344l-2.312-1.191c-20.869-9.358-42.872-.669-56.907 15.816"/><path fill="#501A9A" d="m1191 548 .125 1.875L1192 552c1.99.696 3.993 1.355 6 2 12.176 6.63 18.358 16.197 22.387 29.117 1.929 9.067 1.79 18.351 1.816 27.578l.009 2.082q.022 5.44.028 10.882c.006 3.723.03 7.445.058 11.168.019 2.888.024 5.776.026 8.664q.004 2.058.024 4.116c.147 16.486.147 16.486-5.473 22.768-3.311 1.871-6.256 2.528-9.984 3.133L1205 674l-1 2v-3l-3.125-.062c-5.056-1.224-7.096-3.666-9.875-7.938-1.5-4.498-1.393-9.135-1.605-13.84-.164-3.257-.358-6.05-1.395-9.16l1-1c.048-2.59.042-5.16 0-7.75-.07-7.478.275-14.803 1-22.25l-2-1h2q-.466-2.657-.937-5.312l-.528-2.989c-.492-2.78-.492-2.78-1.535-5.699h2c-1.98-8.32-1.98-8.32-7-15-5.638-3.1-11.674-3.624-18-4l-1 2-2.75.813c-3.888 1.42-5.64 2.996-8.25 6.187-1.865 4.55-2.412 8.884-2.625 13.75l-.117 2.336c-.298 6.785-.288 13.562-.258 20.351.03 9.441-.014 18.875-.25 28.313l-.043 3.443c-.24 7.964-1.373 11.64-7.207 17.182-5.176 2.403-9.891 2.497-15.5 1.625-4.872-2.086-7.733-5.242-10-10-.444-3.278-.41-6.532-.388-9.836l-.016-2.987c-.013-3.256-.005-6.511.006-9.767q-.003-3.397-.01-6.796-.005-7.12.017-14.24c.017-6.082.007-12.162-.01-18.243-.012-4.678-.008-9.356 0-14.034q.004-3.363-.008-6.725c-.008-3.136.004-6.271.02-9.407l-.018-2.801c.067-6.801 1.903-10.776 5.532-16.539 2.977-2.718 3.426-3.052 7.188-3.187 6.754.516 11.684 2.04 16.187 7.25A118 118 0 0 1 1147 559l2.02-1.426c11.104-7.501 21.613-10.164 34.96-8.117 2.357.462 4.69.965 7.02 1.543zM946.074 367.816c3.951 4.48 4.464 8.368 4.926 14.184l-1 3 2 1h-3l-.187 1.75c-1.333 3.69-4.391 5.54-7.813 7.25-5.649.587-10.22.335-15-3l-1.812-2.937c-3.051-4.272-6.148-5.774-11.188-7.063-5.819-.62-11.107-.536-16.75 1.063-2.538 1.86-2.538 1.86-3.437 5.312-.121 3.647-.121 3.647 1.937 6.25 7.724 6.392 18.153 8.699 27.608 11.32l2.556.723 2.311.634C929 408 929 408 930 410l2.438.688c5.137 1.892 9.165 5.103 13.562 8.312l3 2v-4l2 1-.75 2.563c-.276 3.8.526 5.41 2.645 8.53 4.351 7.505 4.427 16.931 2.242 25.157A129 129 0 0 1 952 462c-1.158 2.947-1.158 2.947-1 6l-2 2-1-2-1.328 1.32c-13.698 12.863-28.537 14.35-46.445 13.79-4.256-.21-8.16-.86-12.227-2.11l-2.648-.742c-8.485-2.686-17.59-7.25-22.04-15.32-1.727-4.356-2.318-8.338-.582-12.825 2.062-4.014 4.122-6.377 8.27-8.113 4.67-1.21 7.804-1.205 12.2.91 2.003 1.213 3.736 2.609 5.55 4.09 6.693 5.215 14.933 6.682 23.25 6 3.883-.577 7.164-1.457 10.5-3.625 1.738-2.752 2.02-5.045 2.129-8.277-1.011-3.372-2.948-4.874-5.629-7.098-2.55-1.187-4.92-2.166-7.562-3.062l-2.146-.77c-4.111-1.462-8.256-2.795-12.417-4.106-12.89-4.25-24.93-9.831-31.312-22.312-4.207-9.03-5.159-17.845-2.063-27.5 4.065-9.82 11.598-16.282 21.18-20.402 20.07-7.48 45.555-4.99 61.394 9.968"/><path fill="#511B9B" d="M1005.004 324.684c4.423 2.302 6.695 4.977 8.996 9.316.696 3.588.922 7.167 1.125 10.813q.179 2.853.383 5.707l.145 2.534L1016 355c2.795 1.397 5.133 1.132 8.25 1.125l3.39.008c3.206-.127 6.212-.532 9.36-1.133v2l3.188.188c4.536.966 5.958 2.224 8.812 5.812 2.212 4.003 2.477 7.47 2 12-1.812 3.25-1.812 3.25-4 6l-1.312 1.75c-5.66 4.193-13.578 3.631-20.28 3.816-5.478.168-5.478.168-10.408 2.434 0 3.37.11 6.729.219 10.098l.136 4.345.22 6.953c.322 10.138.508 20.232.167 30.374.29 3.636.988 5.395 3.258 8.23 3.622 2.87 7.83 1.983 12.188 1.75 6.581-.187 10.88.388 16.246 4.547 3.473 3.776 4.082 7.256 3.933 12.254-.677 4.514-2.368 8.014-5.367 11.449-7.069 4.815-18.714 4.24-27 5l-1-2c-2.057-.28-2.057-.28-4.5-.312-5.056-.378-8.358-1.918-12.59-4.63-1.983-1.3-1.983-1.3-4.91-1.058-1.312-1.937-1.312-1.937-3-5a345 345 0 0 0-3.062-4.687l-1.536-2.325c-1.387-2.086-1.387-2.086-3.402-3.988v-3c-.446-2.36-.93-4.714-1.437-7.062l-.81-3.786c-.598-3.031-.598-3.031-1.753-5.152a95 95 0 0 1-.022-5.276l.061-3.336.082-3.615.072-3.69q.116-5.854.245-11.708l.158-7.922q.194-9.726.404-19.453h-6l-1 2c-12.416-5.113-12.416-5.113-16-11-1.252-4.99-1.664-9.432 1-14 2.584-3.83 4.464-5.915 9-7 2.608-.045 5.188 0 7.793.125 2.417.109 2.417.109 4.207-2.125.26-3.705.366-7.372.39-11.084.172-5.772 1.311-9.147 4.61-13.916 5.43-5.033 11.842-6.76 19.004-4.316"/><path fill="#521B9D" d="M582.25 506.563c4.009 2.276 6.379 5.015 7.75 9.437 1.213 8.488 1.261 17.167 1.503 25.729.058 2.015.124 4.03.19 6.046.835 27.049.246 54.142-.157 81.194q-.091 6.298-.18 12.595Q591.18 653.782 591 666l-3 1-2.187 2.375c-3.357 3.133-6.189 5.104-10.813 5.625-7.179-1.642-11.98-5.97-16-12-.125-2.687-.125-2.687 0-5l-2-1 .563-1.75c.595-2.217.595-2.217-.063-4.25-.5-2-.5-2 0-3.75.642-2.888.323-5.315 0-8.25-.405-3.684-.516-6.445.5-10l-.5-2c-.5-2-.5-2 .063-3.812.658-2.425.658-2.425-.563-5.688-.973-3.406-1.022-4.32 0-7.5l-1-3 2-1-.562-2.125C557 601 557 601 557.46 598.254c1.125-6.79 1.635-14.695-.524-21.317-1.056-3.31-.65-4.611.063-7.937.064-1.61.078-3.22.05-4.831l-.04-2.823-.053-3.018q-.034-3.195-.064-6.39c-.037-3.343-.08-6.684-.14-10.026a1054 1054 0 0 1-.108-9.709l-.073-2.993c-.03-7.975 1.714-14.021 6.928-20.148 5.859-4.833 11.738-5.548 18.75-2.5"/><path fill="#511B9C" d="M1082 550c4.965 2.305 7.423 5.22 10 10 .567 3.351.537 6.648.502 10.041l.016 3.018c.013 3.283-.004 6.564-.022 9.847q0 3.43.005 6.86 0 7.18-.034 14.363c-.029 6.134-.026 12.267-.013 18.4.007 4.72-.001 9.44-.014 14.16q-.006 3.393 0 6.785c.002 3.162-.014 6.323-.036 9.485l.014 2.825c-.06 5.15-.52 8.774-3.418 13.216-4.366 3.757-8.338 5.099-14 5-5.014-.935-8.426-2.327-12-6-3.038-5.702-3.432-10.378-3.388-16.771l-.016-2.896c-.013-3.142-.005-6.284.006-9.427q-.003-3.289-.01-6.578-.005-6.885.017-13.769c.017-5.874.007-11.748-.01-17.623-.012-4.526-.008-9.052 0-13.578q.004-3.25-.008-6.497c-.008-3.03.004-6.06.02-9.09l-.018-2.695c.062-6.077.934-10.941 4.81-15.853 5.417-4.095 11.013-4.203 17.597-3.223"/><path fill="#C59AFC" d="m312.547 682.255 3.467-.022c3.77-.016 7.537.011 11.306.04q3.936.001 7.871-.003 8.24 0 16.477.058c6.344.042 12.687.049 19.03.037 6.115-.012 12.229 0 18.343.022q3.896.012 7.791.007c3.627-.001 7.253.024 10.88.057l3.255-.015c7.276.104 7.276.104 11.176 2.473 2.94 3.31 3.152 5.629 3.064 10.06-.315 3.094-1.147 4.705-3.207 7.031-5.994 3.29-11.215 3.434-17.965 3.404l-3.28.02c-3.564.02-7.128.015-10.692.01q-3.728.007-7.453.015-7.803.013-15.605-.003c-6.662-.011-13.322.009-19.984.038-5.128.018-10.257.018-15.385.012q-3.684 0-7.368.019c-3.435.015-6.868.004-10.303-.013l-3.064.029c-6.17-.064-9.851-.918-14.901-4.531-2.356-2.869-2.615-6.297-2.492-9.979.798-3.279 2.668-4.723 5.244-6.78 4.355-2.404 8.932-2.055 13.795-1.986"/><path fill="#C497FC" d="m302.674 646.853 3.063-.022 3.389-.008 3.547-.02q4.833-.024 9.664-.036 3.02-.007 6.038-.018 9.447-.029 18.892-.041a5166 5166 0 0 0 21.805-.077q8.426-.044 16.851-.048c3.355-.002 6.71-.011 10.064-.036 3.747-.025 7.493-.024 11.24-.017l3.359-.039c6.095.042 9.808.36 14.414 4.509 1.729 3.457 1.49 7.22 1 11-1.794 2.87-2.983 4.491-6 6-1.61.101-3.225.14-4.838.147l-3.098.022-3.41.008-3.583.02c-3.926.02-7.852.031-11.778.041l-4.054.013q-9.524.029-19.047.041-10.994.015-21.987.077-8.498.044-16.994.048c-3.383.002-6.766.011-10.15.036-3.775.025-7.55.024-11.326.017l-3.393.039c-7.58-.051-7.58-.051-11.513-2.413-3.1-3.551-3.214-6.248-3.192-10.834.571-3.558 2.614-5.117 5.363-7.262 1.625-1.625 3.428-1.136 5.674-1.147"/><path fill="#C092FB" d="M322 720h76c-3.472 10.417-10.335 16.043-20 21-10.326 4.276-23.429 4.866-34 1-9.92-4.217-16.83-10.527-22-20z"/><path fill="#511B9B" d="M1089.172 504.414c3.971 3.445 6.153 7.602 7.828 12.524 0 6.771-2.822 12.84-7 18.062l-3 1-2.062 1.063c-6.237 1.99-11.952 1.82-17.813-1.188-4.737-3.007-7.384-5.967-8.8-11.527-.889-4.5-1.425-8.757-1.325-13.348l2 1 2.063-3.25c3.22-4.518 6.774-6.424 11.874-8.562 6.295-.573 11.068.707 16.235 4.226"/><path fill="#44177C" d="M582.25 506.563c4.009 2.276 6.379 5.015 7.75 9.437 1.213 8.488 1.261 17.167 1.503 25.729.058 2.015.124 4.03.19 6.046.835 27.049.246 54.142-.157 81.194q-.091 6.298-.18 12.595Q591.18 653.782 591 666l-3 1-2.187 2.375c-3.295 3.075-6.32 4.936-10.813 5.625-3-1.25-3-1.25-5-3v-1l1.977-.078c5.867-.38 9.546-1.019 14.023-4.922 1.071-3.214 1.131-5.528 1.14-8.908l.018-3.739.003-4.108.015-4.322q.019-5.872.024-11.746l.012-7.338q.02-11.477.027-22.955.007-13.252.05-26.503.034-10.243.034-20.485 0-6.117.025-12.235.023-5.755.01-11.51-.002-2.11.013-4.221a520 520 0 0 0-.004-5.768l.005-3.26c-.426-3.326-1.416-5.203-3.372-7.902-4.589-3.247-10.652-2.745-16-2-2.445 1.428-3.329 2.637-5 5l-1 1a109 109 0 0 0-.147 5.66l-.022 3.727-.008 4.125-.02 4.316q-.025 5.88-.036 11.76l-.018 7.344q-.029 11.487-.041 22.973-.015 13.264-.077 26.529-.044 10.247-.048 20.494c-.002 4.082-.011 8.163-.036 12.244q-.034 5.764-.018 11.527 0 2.113-.02 4.225c-.08 8.873.172 13.448 6.241 19.951L569 671c-2.764-.079-4.466-.464-6.445-2.45-2.198-2.895-3.478-4.823-3.867-8.487L559 658l-2-1 .563-1.75c.595-2.217.595-2.217-.063-4.25-.5-2-.5-2 0-3.75.642-2.888.323-5.315 0-8.25-.405-3.684-.516-6.445.5-10l-.5-2c-.5-2-.5-2 .063-3.812.658-2.425.658-2.425-.563-5.688-.973-3.406-1.022-4.32 0-7.5l-1-3 2-1-.562-2.125C557 601 557 601 557.46 598.254c1.125-6.79 1.635-14.695-.524-21.317-1.056-3.31-.65-4.611.063-7.937.064-1.61.078-3.22.05-4.831l-.04-2.823-.053-3.018q-.034-3.195-.064-6.39c-.037-3.343-.08-6.684-.14-10.026a1054 1054 0 0 1-.108-9.709l-.073-2.993c-.03-7.975 1.714-14.021 6.928-20.148 5.859-4.833 11.738-5.548 18.75-2.5"/><path fill="#3E1471" d="m1191 548 .125 1.875L1192 552c1.99.696 3.993 1.355 6 2 12.176 6.63 18.358 16.197 22.387 29.117 1.929 9.067 1.79 18.351 1.816 27.578l.009 2.082q.022 5.44.028 10.882c.006 3.723.03 7.445.058 11.168.019 2.888.024 5.776.026 8.664q.004 2.058.024 4.116c.147 16.486.147 16.486-5.473 22.768-3.311 1.871-6.256 2.528-9.984 3.133L1205 674l-1 2v-3l-3.125-.062c-5.056-1.224-7.096-3.666-9.875-7.938-1.5-4.498-1.393-9.135-1.605-13.84-.164-3.257-.358-6.05-1.395-9.16l1-1c.048-2.59.042-5.16 0-7.75-.07-7.478.275-14.803 1-22.25l-2-1h2q-.466-2.657-.937-5.312l-.528-2.989c-.492-2.78-.492-2.78-1.535-5.699h2c-1.98-8.32-1.98-8.32-7-15-5.638-3.1-11.674-3.624-18-4l-1 2-2.75.813c-3.787 1.383-5.544 3.256-8.25 6.187l-2 1c1.398-4.893 3.904-7.086 8-10 5.572-2.786 11.915-2.765 18-2 5.44 1.95 10.12 4.904 13 10 2.95 7.946 3.43 15.602 3.41 24.017-.004 2.116.01 4.231.03 6.347.042 5.244.053 10.489.065 15.734q.016 6.684.075 13.37c.013 2.074.01 4.149.005 6.224l.03 3.835.006 3.358c.537 4.413 2.074 7.787 5.195 10.963 4.391 2.317 9.375 1.744 14.184 1.152 4.231-2.285 5.547-4.524 7-9 .308-3.194.308-3.194.275-6.68l.015-1.973c.014-2.146.013-4.291.01-6.437l.014-4.519q.01-4.74.002-9.48c-.006-4.01.01-8.02.034-12.03.015-3.116.016-6.231.013-9.347q0-2.214.015-4.428c.095-15.685-1.648-30.793-12.503-42.918-9.526-8.766-20.509-10.354-32.875-10.438l-2.29-.062c-8.128-.056-14.072 2.57-20.71 7.312l-2 1v-3c7.946-7.534 18.47-9.501 29.05-9.238 4.41.356 8.66 1.175 12.95 2.238z"/><path fill="#381369" d="M1033.07 551.266c5.635 4.668 7.09 8.452 7.93 15.734.134 3.037.137 6.07.13 9.11l.005 2.683q.004 4.371-.002 8.742 0 3.063.003 6.125.002 6.416-.006 12.833-.006 8.171.004 16.343.004 6.327 0 12.655 0 3.01.002 6.02c.023 24.678-.073 48.158-18.464 67.079-7.063 6.37-14.41 10.3-23.672 12.41l1 3-2 1-4-3-1 2c-22.75.53-41.099.076-60-14l-3-1v-2h-2c-.444-7.397-.688-13.885 4-20 3-2 3-2 5.188-1.625L939 686l-2.375 1.313c-2.842 1.58-2.842 1.58-4.625 4.687-.672 4.979-.558 9.55 1.25 14.25 12.488 12.488 30.628 15.03 47.5 15.07 15.614-.21 29.529-5.047 40.926-15.87 6.608-6.965 10.65-14.252 13.324-23.45l1.034-3.471c1.298-5.26 1.254-10.43 1.24-15.823l.016-3.348c.014-3.634.013-7.267.01-10.901l.014-7.597q.01-7.948.002-15.895c-.006-6.118.006-12.236.027-18.353.02-5.9.023-11.8.02-17.7q0-3.757.015-7.516c.013-3.497.006-6.993-.006-10.49l.023-3.138c-.024-6.882-.024-6.882-3.395-12.768-4.595-3.251-10.645-2.733-16-2-3.292 2.436-4.748 4.622-7 8-1-2-1-2-.437-4.375 2.102-3.84 5.195-5.911 9.363-7.238 4.576-.853 9.122-.58 13.144 1.879"/><path fill="#45177D" d="M636 550c2.367 2.031 2.367 2.031 4 4l-1.937-.5c-6.666-1.088-12.22-1.348-18.063 2.5-2.061 3.092-2.251 3.741-2.26 7.237l-.022 2.617.007 2.862-.015 3.022c-.014 3.303-.013 6.607-.01 9.91l-.014 6.88q-.01 7.215-.002 14.43c.006 6.166-.01 12.332-.034 18.498a3772 3772 0 0 0-.013 14.212q0 3.41-.015 6.82c-.013 3.18-.006 6.358.006 9.537l-.023 2.85c.039 4.876.226 8.163 3.395 12.125 3.157 3.103 5.572 3.432 9.938 3.438 3.758-.11 5.792-.303 9.187-2 3.705-4.817 4.124-10.34 4.146-16.256l.031-3.985.003-2.1q.008-3.288.04-6.575c.056-6.225.087-12.451.111-18.678.016-3.82.047-7.64.085-11.461q.018-2.171.018-4.343c.001-16.91.001-16.91 5.308-23.282l2.008-1.633 1.992-1.68c4.21-2.852 7.76-3.723 12.82-3.695l2.887-.016C672 575 672 575 674 577l-3.035.297c-10.143.976-10.143.976-18.965 5.703-3.786 5.048-4.124 9.475-4.142 15.661l-.01 2.002a1644 1644 0 0 0-.017 4.294q-.012 3.406-.041 6.812c-.052 6.456-.1 12.911-.116 19.367-.01 3.954-.04 7.907-.081 11.86q-.02 2.25-.015 4.502c.016 14.736.016 14.736-4.578 21.502-3.266 2.654-5.924 4.127-10 5l-2 2-1-2-3.687-.687c-4.3-.989-6.3-2.844-9.086-6.168-3.39-5.926-3.525-11.979-3.518-18.625l-.02-2.802c-.019-3.04-.023-6.08-.025-9.12l-.02-6.37q-.017-6.666-.015-13.332c0-5.684-.027-11.367-.061-17.051a2470 2470 0 0 1-.025-13.15q-.005-3.142-.027-6.284c-.02-2.934-.014-5.867-.002-8.801l-.034-2.6c.074-7.09 1.96-12.45 7.02-17.51 5.035-2.158 10.106-2.522 15.5-1.5"/><path fill="#3A136C" d="m904.188 378.875 3.292.055 2.52.07v1l-2.703.516-3.547.734-3.516.703c-3.5 1.133-5.04 2.121-7.234 5.047-.243 3.551-.243 3.551 1 7 3.468 3.3 6.81 4.908 11.313 6.438l3.687 1.265c2.802.922 5.615 1.798 8.438 2.656l2.21.674q2.138.647 4.285 1.268c1.707.51 3.39 1.098 5.067 1.699l1 2 2.438.688c5.137 1.892 9.165 5.103 13.562 8.312l3 2v-4l2 1-.75 2.563c-.276 3.8.526 5.41 2.645 8.53 4.351 7.505 4.427 16.931 2.242 25.157A129 129 0 0 1 952 462c-1.158 2.947-1.158 2.947-1 6l-2 2-1-2-1.328 1.32c-13.698 12.863-28.537 14.35-46.445 13.79-4.256-.21-8.16-.86-12.227-2.11l-2.648-.742c-8.485-2.686-17.59-7.25-22.04-15.32-1.727-4.356-2.318-8.338-.582-12.825 2.062-4.014 4.122-6.377 8.27-8.113 4.67-1.21 7.804-1.205 12.2.91 2.003 1.213 3.736 2.609 5.55 4.09 6.693 5.215 14.933 6.682 23.25 6 4.234-.769 8.256-1.816 12-4v3c-9.765 5.104-18.49 4.958-29.094 2.129-3.973-1.544-6.89-3.802-10.066-6.606-3.49-2.89-7.26-2.943-11.61-2.843-2.486.217-2.486.217-5.293 2.07-2.966 4.975-2.872 9.607-1.937 15.25 5.237 9.001 15.425 12.396 25 15 15.342 3.382 33.233 2.534 46.813-5.687 6.464-4.74 12.677-10.657 14.777-18.61 1.736-11.443 1.355-20.97-5.59-30.703-9.142-10.828-24.495-15.11-37.625-18.937-7.358-2.24-15.478-4.948-19.375-12.063-.562-3.5-.562-3.5 0-7 4.28-5.205 7.484-7.27 14.188-7.125"/><path fill="#381269" d="M652 312c5.5-.125 5.5-.125 7.875.469 2.46.615 4.852.861 7.375 1.094l2.703.253L672 314l1-2v2c3.024-.588 6.018-1.227 9-2v1l3.84-.105 5.097-.082 2.518-.077c6.958-.08 13.823.612 18.982 5.639 3.678 6.177 3.86 11.172 3.854 18.236l.02 3.24c.019 3.536.023 7.073.025 10.61l.02 7.404q.017 7.77.015 15.54c0 6.604.027 13.209.061 19.813.023 5.103.026 10.206.025 15.31q.004 3.648.027 7.297c.116 20.059-.906 38.683-15.289 54.132-2.882 2.682-5.959 4.801-9.312 6.852-2.019 1.18-2.019 1.18-3.883 3.191a88 88 0 0 1-7.062 2.125l-2.118.542c-7.928 1.848-15.733 1.693-23.82 1.333l-1-2 3.191-.078c15.782-.55 30.542-3.069 42.559-14.172A95 95 0 0 0 703 464l1.621-1.965c10.454-14.833 8.98-36.39 8.91-53.62q.005-3.603.012-7.203.008-7.48-.022-14.961c-.022-6.387-.009-12.772.015-19.159.014-4.938.01-9.876 0-14.814q-.005-3.534.01-7.069c.01-3.28-.006-6.56-.028-9.84l.024-2.927c-.07-5.637-.693-9.018-4.542-13.442-3.421-2.28-4.656-2.253-8.677-2.259l-3.53-.019-3.816.012-3.92-.005q-4.108-.005-8.216.01c-3.503.012-7.005.005-10.508-.007-3.348-.009-6.696-.003-10.044.002l-3.804-.012-3.549.02c-1.028 0-2.056.002-3.115.004-2.953.266-5.141 1.016-7.821 2.254v2h-2c1.392-3.364 2.794-5.22 6-7 3.25-.187 3.25-.187 6 0z"/><path fill="#3B136C" d="M988 548h2v3l2.875.188c5.196.704 9.578 3.332 14.125 5.812v2c-2.764-.873-5.473-1.754-8.102-2.982-6.894-3.145-12.886-3.597-20.398-3.456l-3.223-.021c-13.23.106-24.58 4.385-34.363 13.389-6.42 6.943-10.183 15.113-12.914 24.07l-1.082 3.043c-4.5 16.028-1.466 35.36 5.957 49.894 6.832 11.608 17.084 20.045 30.254 23.645 15.445 2.249 29.276 1.037 41.996-8.41C1007 657 1007 657 1010 657v17h-1l-2-14-3.437 2.875-1.934 1.617c-1.737 1.43-1.737 1.43-2.629 3.508-1.895.27-3.794.529-5.7.715-2.277.282-4.391.775-6.612 1.347-6.873 1.597-13.82 1.482-20.688-.062l-1 2a56.5 56.5 0 0 1-7-4q-3.08-1.589-6.187-3.125l-3.293-1.633L946 662v-2l-1.758-.781C933.364 653.306 928.127 641.006 924 630l-1-2c-1.025-7.09-1.123-14.286-1.187-21.437l-.04-2.33c-.007-4.207.295-7.391 2.227-11.233l-2-1 2-1a95 95 0 0 0 2.25-5.437c5.638-13.898 13.224-24.57 26.75-31.563 8.971-3.655 17.248-5.169 26.875-5.062l2.375.013q2.875.02 5.75.049z"/><path fill="#340F64" d="M834 356c4.947 2.257 7.51 5.196 10 10 .871 3.307 1.492 6.62 2 10h-2l.219 2.613c.64 8.426.869 16.764.744 25.214-.177 4.22-.177 4.22 1.037 8.173h-2l.058 2.1c.197 7.201.372 14.403.534 21.606q.093 4.034.207 8.066c.106 3.863.193 7.725.275 11.587l.113 3.65.062 3.396.074 2.988c-.375 3.025-1.309 4.368-3.323 6.607l-.004-3.984q-.026-18.584-.128-37.167c-.034-6.37-.06-12.739-.064-19.108a2772 2772 0 0 0-.077-18.44q-.02-3.518-.013-7.036c.005-3.285-.021-6.568-.055-9.853l.027-2.939c-.075-4.411-.244-7.523-3.04-11.061-4.317-3.935-8.31-3.763-13.912-3.682-3.972.392-5.951 1.416-8.734 4.27-2.484 6.968-2.281 14.036-2.274 21.35q-.001 3.375-.03 6.75-.067 9.59-.077 19.18a1497 1497 0 0 1-.065 11.777q-.015 2.23-.007 4.457c.053 15.59.053 15.59-4.547 22.486-4.098 4-4.098 4-7 4 1-3 1-3 3.438-5.25 4.525-4.857 4.81-10.448 4.833-16.875l.016-2.043q.015-2.176.018-4.352.008-3.45.04-6.9c.056-6.535.087-13.07.111-19.605q.025-6.012.085-12.026.018-2.282.018-4.565c0-2.13.018-4.259.04-6.388l.016-3.664c.732-6.33 3.737-10.16 8.385-14.332 4.42-2.21 10.19-1.416 15-1"/><path fill="#411A75" d="m395 244 1 2q-3.156-.216-6.312-.437l-3.926-.274c-2.935-.225-5.84-.518-8.762-.851-9.294-.863-18.678-.593-28-.438l-2.502.038c-10.288.209-19.665 1.574-29.551 4.414a210 210 0 0 1-5.927 1.56C289.575 255.41 269.036 265.86 252 280l-3.055 2.496C237.524 291.916 227.603 301.868 219 314l-1.797 2.418c-9.03 12.365-16.366 26.45-22.203 40.582-.923-2.513-1.082-3.74-.262-6.327l1.219-2.568 1.357-2.873 1.499-3.045 1.525-3.132c8.34-16.785 19.98-34.093 33.662-47.055h2l1-3h2v-2c28.107-30.801 74.723-44.944 114.813-46.875 13.579-.53 28.058-.052 41.187 3.875"/><path fill="#38116D" d="M761 357c4.535 3.648 7.713 7.544 8.399 13.41l.033 3.95.031 2.19c.03 2.375.04 4.75.049 7.126l.054 4.956a2650 2650 0 0 1 .104 13.015c.03 4.43.076 8.862.121 13.292q.127 13.03.209 26.061l3 1h-2c2.858 4.657 5.63 9.053 11.14 10.602 3.73.52 7.416.504 11.173.46l2.244-.013q2.722-.02 5.443-.049l-1 2c-6.548 2.183-15.223 2.302-21.562-.625-5.73-3.513-8.821-8.224-10.823-14.501-1.171-5.47-1.02-11.037-.995-16.606.01-2.292-.001-4.583-.017-6.875-.04-6.51-.041-13.018-.039-19.528q-.002-5.996-.05-11.993c-.01-2.25.002-4.5.015-6.75l-.03-4.158v-3.646c-.6-3.995-2.017-6.169-4.499-9.318-3.067-2.183-5.726-2.27-9.437-2.25l-2.81-.016c-3.037.293-5.095.753-7.753 2.266-2.362 4.309-2.271 8.584-2.227 13.37v2.515c0 2.732.016 5.465.032 8.197l.008 5.696c.008 4.99.028 9.979.05 14.968.02 5.094.03 10.189.04 15.283.02 9.99.055 19.98.097 29.971l-2-1c-4.539-14.85-2.12-33.93-2.176-49.38q-.012-2.842-.032-5.685c-.19-28.244-.19-28.244 4.27-34.56 6.457-5.22 13.166-6.717 20.938-3.375"/><path fill="#351163" d="M1061 561h1l.018 3.711q.086 17.325.218 34.65c.044 5.938.084 11.876.11 17.814q.04 8.597.117 17.195.025 3.277.035 6.555c.01 3.065.037 6.128.07 9.192l-.005 2.73c.092 6.16.837 11.377 5.222 16.06 4.706 2.323 10.13 1.802 15.215 1.093 3.053-1.672 4.448-3.896 6-7 .103-1.368.146-2.74.158-4.113l.03-2.609.017-2.868.03-3.016q.047-4.95.081-9.902l.063-6.852q.082-9.03.153-18.06.077-9.21.161-18.42.162-18.08.307-36.16c2.362 2.362 2.252 2.797 2.26 5.997l.022 2.531-.007 2.784.015 2.927c.014 3.207.013 6.413.01 9.62l.014 6.675q.01 7.005.002 14.012c-.006 5.983.01 11.966.034 17.95.015 4.598.016 9.196.013 13.794q0 3.31.015 6.617c.013 3.088.006 6.176-.006 9.264l.023 2.759c-.042 5.105-.53 8.662-3.395 13.07-4.366 3.757-8.338 5.099-14 5-5.014-.935-8.426-2.327-12-6-3.064-5.733-3.422-10.435-3.356-16.867l-.007-2.924c-.003-3.171.016-6.342.035-9.514l.006-6.621q.007-6.923.04-13.845c.03-5.928.04-11.857.044-17.786q.008-6.827.026-13.655.008-3.28.015-6.562.01-4.567.036-9.136l.003-2.76c.043-6.215.043-6.215 1.158-7.33"/><path fill="#3F1772" d="M1047 376h2c-.547 3.83-1.983 5.618-5 8-6.197 2.189-12.072 2.386-18.592 2.566-5.478.168-5.478.168-10.408 2.434 0 3.37.11 6.729.219 10.098l.136 4.345.22 6.953c.322 10.138.508 20.232.167 30.374.29 3.636.988 5.395 3.258 8.23 3.622 2.87 7.83 1.983 12.188 1.75 6.581-.187 10.88.388 16.246 4.547 3.473 3.776 4.082 7.256 3.933 12.254-.677 4.514-2.368 8.014-5.367 11.449-7.069 4.815-18.714 4.24-27 5l-1-2-2.812.188c-3.188-.188-3.188-.188-4.887-1.7-.43-.49-.859-.982-1.301-1.488l2.443.063c3.686.084 7.371.136 11.057.187l3.844.102c7.392.077 12.423-.245 18.656-4.352 3.277-3.584 3.512-7.155 3.363-11.844-.542-3.22-2.025-4.956-4.363-7.156-2.353-1.176-3.82-1.134-6.437-1.125l-2.372-.008c-2.37.05-2.37.05-5.191 1.133-5.2-.861-11.115-1.852-14.707-5.945A32.4 32.4 0 0 1 1013 444l-1-3a112 112 0 0 1-.114-5.573v-3.457l.016-3.732.005-3.82q.007-5.024.024-10.047.014-5.128.02-10.256.017-10.058.049-20.115l1.893-.076q4.304-.178 8.607-.361l2.977-.12c11.125.194 11.125.194 20.523-4.443z"/><path fill="#401973" d="M185 388h1l-.013 1.828q-.066 9.541-.097 19.083-.015 3.546-.04 7.092c-.13 17.874.175 34.501 5.65 51.685l1.055 3.353c8.263 25.34 22.264 46.697 39.132 67.084Q235.35 542.558 239 547l1.836 2.229C262.53 575.731 262.53 575.731 264 588c-2.256-2.086-3.718-4.05-5.129-6.773l-1.181-2.23-1.252-2.372C251.974 568.399 247.013 561.17 241 554l-1.38-1.651a1296 1296 0 0 0-7.038-8.314C220.436 529.757 209.612 514.671 201 498l-1.062-2.045C189.519 475.612 181.243 451.136 183 428l-2-1v-16h2l-.519-1.732c-.505-2.383-.45-4.149-.176-6.561l.27-2.408.3-2.486.277-2.522c.713-6.156.713-6.156 1.848-7.291"/><path fill="#622DB0" d="m419 298 3 1-.25 2.625c.313 4.22 1.593 6.127 4.25 9.375 2.294 1.554 3.886 1.981 6.625 2.438C435 314 435 314 437 317c-1.878 2.295-2.963 2.99-5.875 3.813-3.944 1.498-6.022 3.63-8.125 7.187-1.203 2.95-2.16 5.927-3 9l-2-1a772 772 0 0 1-2-7l-2-2-.805-1.953c-1.623-2.78-3.427-3.462-6.32-4.797l-2.758-1.297L402 318c2.43-2.43 4.935-3.475 8.027-4.902 2.111-1.175 3.477-2.2 4.973-4.098.462-1.945.462-1.945.5-4 .326-3.778.326-3.778 2.063-6z"/><path fill="#2E0E57" d="m1330 560 2.203 1.621c11.232 8.939 16.385 22.145 18.172 36.004 1.413 13.18 1.413 13.18-2.481 19.04-4.018 4.217-7.556 4.786-13.298 5.016-3.012.021-6.019-.033-9.03-.095q-2.406-.017-4.812-.026c-4.205-.023-8.407-.081-12.611-.148-4.297-.062-8.594-.089-12.891-.119-8.418-.064-16.835-.166-25.252-.293v-1l2.548-.025q11.895-.116 23.791-.263 6.116-.076 12.231-.134 5.904-.056 11.807-.136 2.25-.028 4.501-.045c2.104-.017 4.208-.046 6.312-.078l3.627-.04c3.156-.277 5.327-.963 8.183-2.279l3-1c3.973-10.693 1.213-25.729-3.219-35.758-7.226-14.412-17.57-21.988-32.472-27.18-14.677-3.575-31.727-1.5-44.676 6.145-11.482 7.82-17.805 17.441-23.633 29.793-1.044-2.677-1.047-3.856-.137-6.629 7.654-15.492 19.11-25.303 35.137-31.371 17.652-5.64 38.431-2.212 53 9"/><path fill="#3C1570" d="M982 336h2c.029 3.646.047 7.292.063 10.938l.025 3.154.01 2.998.016 2.777C984 358 984 358 983 359c-3.093.204-6.179.346-9.277.43-4.369.206-7.231.905-10.723 3.57-2.11 4.221-1.49 9.413-1 14 1.39 3.474 1.39 3.474 5 5 3.622.512 7.164.751 10.82.86C981 383 981 383 984 384l.018 2.146q.087 10.103.218 20.207.068 5.19.11 10.383c.032 3.997.087 7.994.142 11.99l.02 3.692c.213 12.7 1.607 27.137 10.605 36.867 3.98 3.686 7.863 6.654 12.887 8.715-1.687.688-1.687.688-4 1a99 99 0 0 1-5-3h-3c-1.312-1.937-1.312-1.937-3-5a345 345 0 0 0-3.062-4.687l-1.536-2.325c-1.387-2.086-1.387-2.086-3.402-3.988v-3c-.446-2.36-.93-4.714-1.437-7.062l-.81-3.786c-.598-3.031-.598-3.031-1.753-5.152a95 95 0 0 1-.022-5.276l.061-3.336.082-3.615.072-3.69q.116-5.854.245-11.708l.158-7.922q.194-9.726.404-19.453h-6l-1 2c-12.416-5.113-12.416-5.113-16-11-1.252-4.99-1.664-9.432 1-14 2.584-3.83 4.464-5.915 9-7 2.608-.045 5.188 0 7.793.125 2.417.109 2.417.109 4.207-2.125.368-1.933.368-1.933.414-4.133l.117-2.441.094-2.551.117-2.574c.095-2.1.177-4.2.258-6.301"/><path fill="#43167A" d="M746.21 576.953c4.553 2.664 7.356 7.027 8.79 12.047 1.138 6.901 1.164 13.746 1.2 20.73q.018 3.199.052 6.396c.062 6.055.116 12.11.15 18.165.02 3.718.056 7.436.1 11.154q.021 2.116.026 4.233c.005 1.972.03 3.943.055 5.915l.025 3.392c.53 4.07 2.311 6.545 4.693 9.785 2.532 1.833 4.802 1.752 7.886 1.918l3.293.199L775 671c-1.616 1.959-2.453 2.923-5.016 3.285-6.14-.612-9.97-2.537-13.984-7.285-1.572-2.758-2.3-4.997-2.59-8.15l-.221-2.394a415 415 0 0 1-.76-12.05l-.13-2.73c-.29-6.802-.347-13.587-.291-20.395l.023-2.938c.037-3.965.08-7.929.14-11.893.043-2.952.066-5.904.087-8.856l.056-2.705c.02-4.896-.325-7.81-3.314-11.889v-2c-6.438-2.819-13.585-4.183-20.375-1.812-3.287 1.46-5.954 3.391-8.625 5.812 1.358-4.888 3.67-6.526 8-9 6.093-2.03 12.313-1.538 18.21.953"/><path fill="#401A75" d="M415 251c5.485.54 9.822 1.956 14.813 4.25l2.11.944c4.8 2.165 9.515 4.473 14.159 6.958 2.026 1.05 2.026 1.05 4.918.848l.605 1.715c1.933 3.167 4.683 4.827 7.707 6.848C492.695 295.682 516.761 329.196 529 368c.61 3.48.61 3.48.75 6.188l.172 2.792L530 379c-1.857-2.786-2.685-4.793-3.664-7.945l-.948-2.988-1.013-3.192C512.699 329.214 490.713 297.858 460 276l-1.656-1.216C445.076 265.07 430.105 258.357 415 252z"/><path fill="#351262" d="M1241 635c2.02 2.425 3.433 4.844 4.75 7.688 6.48 13.132 17.98 22.454 31.753 27.169 6.707 1.947 12.84 2.62 19.81 2.518l3.035-.029c13.494-.273 27.547-2.557 37.652-12.346 2.722-4.47 2.634-8.914 2-14-1.102-2.852-1.102-2.852-4-4-7.264-1.08-11.991-.047-18 4-2.437.75-2.437.75-4 1a141 141 0 0 1 5-5h2l1-2c5.1-2.363 8.637-2.038 14-1 2.5 1.063 2.5 1.063 4 2v2h2c2.537 4.626 2.273 9.01 1 14-4.68 9.359-14.397 12.874-23.8 16.055-6.685 1.975-12.891 2.161-19.825 2.195l-3.121.063c-7.212.036-13.41-1.077-20.254-3.313-5.446-1.92-5.446-1.92-11-1v-3h2l-1.758-1.137-2.367-1.55-2.32-1.512c-5.56-3.919-9.558-7.674-13.305-13.301l-1.168-1.684c-3.19-4.69-5.082-8.106-5.082-13.816"/><path fill="#602BAE" d="M471 336c2.67 1.335 2.721 2.556 3.75 5.313 1.896 4.473 3.892 6.369 8.25 8.687l3 2-1.75 1.023-2.25 1.352c-.743.44-1.485.882-2.25 1.336L478 357v2l-1.937 1.75c-2.507 2.734-2.733 4.618-3.063 8.25l-3-1c-.633-1.855-.633-1.855-1.125-4.187-1.54-5.267-4.411-7.11-9.012-9.817L458 353c1.52-3.039 3.98-3.644 7-5h2c1.665-3.924 2.872-7.891 4-12"/><path fill="#351064" d="M718 586h1q-.056 14.46-.184 28.922c-.04 4.477-.072 8.954-.087 13.431-.015 4.325-.05 8.65-.097 12.974a583 583 0 0 0-.024 4.937c-.016 16.049-.016 16.049-4.608 22.736-3.187 3-3.187 3-6 3l-1 2-4-1-1 2c-12.709-4.417-12.709-4.417-16-11a154 154 0 0 1-.114-6.653v-2.07c0-2.261.009-4.523.016-6.785l.005-4.7q.006-6.189.024-12.379.014-6.314.02-12.628.016-12.392.049-24.785h1l.011 2.452q.056 11.475.173 22.95c.04 3.932.072 7.864.087 11.796.015 3.8.05 7.6.097 11.399q.023 2.168.024 4.334c.01 7.868.07 14.367 4.608 21.069 3.52 2.347 5.2 2.327 9.375 2.375l3.398.086c3.909-.558 5.468-1.682 8.227-4.461 2.333-3.557 2.262-6.702 2.287-10.892l.02-2.076q.02-2.226.029-4.451c.008-2.35.028-4.7.052-7.05.048-4.99.081-9.979.112-14.968.036-5.78.078-11.56.136-17.34.02-2.311.028-4.622.036-6.934l.04-4.267.023-3.752c.257-3.177.903-5.41 2.265-8.27"/><path fill="#401A74" d="M203 467c2.625 2.314 3.8 4.457 5.094 7.691l1.166 2.837 1.24 3.034c9.559 22.627 23.84 40.627 39.845 58.98 13.106 15.074 22.915 31.424 30.155 50.02l.774 1.948c1.593 4.287 1.96 7.938 1.726 12.49-1.94-2.911-2.876-5.534-3.902-8.851-7.23-23.363-20.616-43.124-37.203-60.92C227.792 519.062 203 488.843 203 467M533 396c4.57 4.57 3.139 14.71 3.188 21-.1 37.81-12.942 72.911-33.625 104.25l-2.08 3.16-1.98 2.918c-.578.855-1.158 1.71-1.755 2.59-1.797 2.14-3.176 3.06-5.748 4.082 3.072-4.893 6.147-9.775 9.41-14.543C514.111 499.414 523.004 478.526 529 455l.571-2.24c1.402-5.861 2.067-11.697 2.554-17.697l.257-3.09c.904-11.982.808-23.966.618-35.973"/><path fill="#5E2AAC" d="M295 523c2 2 2 2 2.875 5 .825 3.105.825 3.105 3.25 4.375L303 533l-2 1 3.375 1.438c1.892.815 3.782 1.64 5.625 2.562v2l-1.645.516c-5.708 1.891-5.708 1.891-9.355 6.484a157 157 0 0 0-3 7l-.875-1.812c-1.172-2.381-1.172-2.381-3.125-5.188l-.75-2c-1.801-2.882-4.198-3.673-7.25-5l1-4 2.313-.25c2.715-.537 2.715-.537 4.375-2.312 1.822-3.386 2.498-6.68 3.312-10.438"/><path fill="#310E60" d="M1183.164 578.598c6.01 4.59 7.467 10.196 8.836 17.402.385 5.249.352 10.473.293 15.73q-.009 2.23-.013 4.46c-.011 3.875-.04 7.75-.074 11.624-.03 3.969-.044 7.938-.06 11.907-.031 7.76-.083 15.52-.146 23.279l-2-1-.184-3.613-.254-4.7-.119-2.38-.127-2.295-.11-2.11c-.162-2.124-.162-2.124-1.206-4.902l1-1c.048-2.59.042-5.16 0-7.75-.07-7.478.275-14.803 1-22.25l-2-1h2q-.466-2.657-.937-5.312l-.528-2.989c-.492-2.78-.492-2.78-1.535-5.699h2c-1.98-8.32-1.98-8.32-7-15-5.638-3.1-11.674-3.624-18-4l-1 2-2.75.813c-3.787 1.383-5.544 3.256-8.25 6.187l-2 1c1.398-4.893 3.904-7.086 8-10 8.045-4.023 17.743-3.238 25.164 1.598"/><path fill="#371269" d="m915 355-1 2-3.367.148c-14.995.721-28.357 1.655-39.196 13.414-5.445 6.352-5.777 11.78-5.75 19.875l-.048 2.815c-.006 8.251 2.508 13.56 8.01 19.658 6.812 6.055 15.725 10.33 24.351 13.09v1c-9.9-.984-20.05-6.043-27.316-12.902-7.288-9.08-9.563-18.732-8.684-30.098 2.009-9.775 7.56-17.199 15.75-22.812 11.172-6.282 24.631-8.892 37.25-6.188"/><path fill="#3E1971" d="M271 614c2.347 3.52 2.599 6.025 3.25 10.188 1.476 8.368 4.854 12.986 10.75 18.812-1.129 2.258-2.245 4.377-3.625 6.5-2.307 5.872-2.694 12.203-.32 18.137 1.607 2.876 3.42 5.583 5.257 8.316.688 2.047.688 2.047-.21 4.344l-1.477 2.453c-3.672 6.835-3.3 12.611-1.434 20.078 1.758 4.72 4.669 7.985 9.063 10.422 2.225.997 4.47 1.877 6.746 2.75 1.34.652 2.676 1.314 4 2-6.876.413-10.452-1.284-16.062-5.062-4.856-4.318-7.505-9.8-8.387-16.196-.242-7.175.965-11.56 4.449-17.742-.37-3.278-1.904-5.635-3.562-8.437-3.12-6.105-3.301-11.83-2.438-18.563 1.5-3.562 1.5-3.562 3-6 0-4.568-.79-4.908-3.621-8.117-5.22-7.128-5.974-15.335-5.379-23.883"/><path fill="#401B73" d="M304 717c2.169.506 4 1 6 2l.688 3.375c2.432 10.523 10.475 19.655 19.218 25.602 13.468 7.943 31.096 9.185 46.344 5.96 6.55-1.86 12.02-5.356 17.75-8.937a126 126 0 0 1 4-2c-1.883 5.65-8.94 8.246-14 11-2.959 1.269-5.87 2.26-9 3-.699.182-1.397.364-2.117.55-11.154 1.739-24.389 1.817-34.883-2.55l-2.969-1.184c-6.959-3.101-11.761-7.02-16.875-12.644-2.005-2.02-3.548-3.105-6.156-4.172l1-2c-.883-2.447-.883-2.447-2.25-5.062l-1.328-2.723c-1.29-2.52-1.29-2.52-4.422-3.215z"/><path fill="#3A146C" d="M1089.172 504.414c3.971 3.445 6.153 7.602 7.828 12.524 0 6.771-2.822 12.84-7 18.062l-3 1-2.062 1.063c-6.237 1.99-11.952 1.82-17.813-1.188-4.737-3.007-7.384-5.967-8.8-11.527-.889-4.5-1.425-8.757-1.325-13.348l2 1 2.063-3.25c3.22-4.518 6.774-6.424 11.874-8.562 6.295-.573 11.068.707 16.235 4.226m-26.672 5.024c-2.31 5.487-2.225 10.698-1.5 16.562 2 4.562 4.716 7.076 9.078 9.313 5.581 1.996 11.562.87 16.922-1.313 3.697-2.83 6.21-5.314 7-10 .501-4.982.58-8.84-1.687-13.375-4.81-5.46-7.953-7.345-15.063-7.937-6.084.102-10.458 2.565-14.75 6.75"/><path fill="#39126A" d="M999.313 578.813c6.82 5.552 9.949 11.972 12.687 20.187 1.036 13.327 1.683 27.01-6.875 38-2.69 2.847-5.444 4.578-9.125 6h-2v-2c1.95-1.333 3.99-2.439 6.055-3.586 2.213-1.609 2.867-2.94 3.945-5.414l1.5-1.312c3.998-4.498 3.713-10.675 3.668-16.356-.16-2.226-.553-4.192-1.168-6.332h2c-1.66-13.707-1.66-13.707-9-25-6.615-4.87-13.877-6.364-22-6-6.125.983-12.104 2.916-16 8-2.214 3.908-4.158 7.904-6 12-1.367-4.101-.162-5.87 1.652-9.652 3.986-6.943 9.084-10.3 16.653-12.692 8.496-2.068 16.445.018 24.008 4.157"/><path fill="#3E1770" d="M1004.992 324.691c4.438 2.277 6.708 4.973 9.008 9.309.696 3.588.922 7.167 1.125 10.813q.179 2.853.383 5.707l.145 2.534L1016 355c2.795 1.397 5.133 1.132 8.25 1.125l3.39.008c3.206-.127 6.212-.532 9.36-1.133v2l3.188.188c4.475.953 5.935 2.342 8.812 5.812 1.203 2.405 1.1 3.95 1.063 6.625l-.028 2.477L1050 374h-1l-.297-1.828c-.905-4.837-1.526-8.134-5.703-11.172-3.302-1.1-5.94-1.206-9.418-1.316l-3.799-.127-3.97-.12-4.006-.13q-4.904-.16-9.807-.307l-.012-2.216a862 862 0 0 0-.176-9.971l-.017-3.487c.067-6.892.067-6.892-3.283-12.564L1006 329l-1-1c-8.505-1.145-8.505-1.145-16.262 1.563-1.456 1.749-2.664 3.432-3.738 5.437l-1-3c4.69-7.503 12.661-10.2 20.992-7.309"/><path fill="#38116B" d="M765 557c5.54.936 8.636 4.737 12 9 6.3 10.982 8.275 21.164 8.414 33.656l.059 3.337c.06 3.502.106 7.005.152 10.507l.117 6.96c.092 5.527.163 11.053.222 16.58.033 2.708.08 5.416.129 8.124q.029 2.246.055 4.492l.06 3.776c-.428 7.328-2.163 12.257-7.208 17.568l-3-1 2.438-2.312c3.88-4.071 3.693-7.09 3.723-12.523l.015-2.096q.021-3.436.027-6.874l.017-4.803q.015-5.047.02-10.093c.006-4.278.03-8.555.058-12.833.019-3.313.024-6.627.026-9.94q.004-2.363.024-4.724c.119-15.2-1.214-29.1-12.035-40.677L768 561a97 97 0 0 1-3-4"/><path fill="#421A78" d="M449 283c6.739 3.444 12.227 8.147 18 13l3.25 2.563c3.616 3.204 6.643 6.746 9.75 10.437l2.316 2.656c15.04 17.51 25.25 36.565 32.684 58.344l.858 2.446.83 2.402.75 2.156c.761 2.703.776 5.21.562 7.996l-4-1-1-5h2c-6.992-22.406-17.474-54.316-38-68l-1.375-2.375c-1.823-2.945-3.922-4.506-6.625-6.625v-2l-1.687-.687C465 298 465 298 462.438 295.375c-2.229-2.724-2.229-2.724-5.438-2.375l-1-3c-1.634-1.368-1.634-1.368-3.562-2.562-1.942-1.254-1.942-1.254-3.438-2.438z"/><path fill="#4D2489" d="M428 484v2c-13.226 7.036-22.903 9.326-38 9h-3l-3-2c-4.692-1.78-4.692-1.78-9.562-1.375-2.54 1.381-2.54 1.381-5.176 3.29-12.048 7.704-24.445 7.716-38.262 7.085v-2l3.848-.043c15.028-.343 26.817-2.361 39.086-11.7C376 487 376 487 379.125 487.438L382 489c6.02 1.813 11.54 2.386 17.813 2.375l2.662-.003c7.98-.145 14.36-1.81 21.185-6.009C426 484 426 484 428 484"/><path fill="#391369" d="M621 417c1.71 1.52 1.71 1.52 3 3l-2.703.184-3.547.253-3.516.247c-3.688.355-3.688.355-7.234 1.316-1.242 1.9-1.242 1.9-2 4l-1 2c-1.45 11.562 2.882 20.704 9.688 29.75C623.938 470.71 637.05 477.356 653 481v1c-6.002.218-11.192-.494-17-2v-2l-2.437-.625C626.73 474.738 620.846 470.484 616 465l-1.61-1.82c-6.903-8.278-14.274-20.054-14.39-31.18.725-4.567 2.418-7.803 5.875-10.875 5.161-3.51 8.807-4.71 15.125-4.125"/><path fill="#4E1D8A" d="m1268 620 70 1v1h-53v2h-15c2.668 8.378 4.84 14.12 12.25 19.25 9.656 4.92 20.211 3.955 30.75 3.75-1 2-1 2-2.625 2.605-10.727 1.782-22.224 1.007-31.531-4.996-5.447-4.384-9.201-9.763-10.844-16.609z"/><path fill="#381269" d="M1321.453 554.637 1323 556c-3.635 1.212-4.607.346-7.945-1.164-13.366-5.438-30.885-4.112-43.953 1.383-14.459 7.29-22.377 18.527-29.102 32.781-1.044-2.677-1.047-3.856-.137-6.629 7.654-15.492 19.11-25.303 35.137-31.371 12.853-4.107 32.828-4.12 44.453 3.637"/><path fill="#3A136C" d="M740 452c2.402 2.402 3.375 4.737 4.813 7.813 2.233 4.536 4.226 7.937 8.187 11.187l2.313 2.063c10.903 7.86 23.655 8.025 36.687 6.937 6.325-1.36 11.175-3.642 16-8h2c-1.454 4.363-4.242 5.354-8.129 7.57-11.208 5.581-23.501 6.073-35.387 2.328-11.586-4.19-19.726-11.367-25.523-22.32-1.013-2.717-1.157-4.704-.961-7.578"/><path fill="#2B0B58" d="M1147 594h1c.67 14.008 1.245 27.976 1 42l-.038 3.3c-.049 3.651-.127 7.3-.212 10.95l-.042 3.538c-.24 8.161-1.237 11.915-7.208 17.587-5.174 2.402-9.894 2.502-15.5 1.625-3.087-1.328-4.532-2.587-7-5-.676-2.172-.676-2.172-1-4h2a263 263 0 0 1 4 5c4.199 2.1 9.44 1.547 14 1 3.233-1.62 5.362-3.724 7-7 .15-2.184.237-4.373.297-6.561l.06-2.04c.064-2.23.12-4.459.178-6.688l.13-4.632q.171-6.102.33-12.202.168-6.224.343-12.447.338-12.215.662-24.43"/><path fill="#3D1473" d="M867 551v1l-2.456.028q-4.61.069-9.22.18a588 588 0 0 1-5.873.085c-12.184.31-24.011 2.47-33.451 10.707-4.316 4.857-5.138 9.417-5.062 15.75l.027 2.984L811 584c-2-1-2-1-3-4-.781-6.494.163-11.642 4-17 1.898-1.908 3.821-3.39 6-5l2-2c14.921-6.948 30.99-9.342 47-5"/><path fill="#411874" d="M803 650c1.48 1.948 2.93 3.895 4.29 5.93 6.77 9.858 15.656 13.398 27.023 15.758 13.396 1.135 23.798-.42 35.687-6.688h2v2c-13.527 6.649-24.95 9-40 9l-1 2v-2l-3-1-1-2a71 71 0 0 0-4.5-1.687c-8.18-3.172-14.174-7.899-18.723-15.418C803 654 803 654 803 650"/><path fill="#401477" d="M861 576c3.923.224 4.961.96 7.75 3.875 2.942 4.086 3.405 6.77 3.438 11.688l.042 2.94C872 597 872 597 870 599a173 173 0 0 1-8.75.813c-8.984.732-17.527 2.41-26.265 4.598l-2.68.663-2.376.612C828 606 828 606 826 605c4.068-2.778 8.124-4.007 12.875-5.062l2.239-.515c6.297-1.4 12.601-2.302 19.007-3.028 2.815-.229 2.815-.229 4.879-1.395q1.993-.53 4-1l.125-3.812.07-2.145c-.331-3.47-2.369-5.217-4.758-7.606C862 578 862 578 861 576"/><path fill="#D5A9FD" d="M322 720h76l-2 5-1-2h-72z"/><path fill="#3A146D" d="M1006 678h2c-.446 4.903-2.632 8.525-6 12-10.078 7.397-20.491 8.37-32.71 6.61-5.932-1.538-11.062-4.574-16.206-7.829-4.021-2.473-7.396-3.388-12.084-3.781 3-2 3-2 6.25-1.875 4.348 1.015 7.037 2.424 10.75 4.875l1 2c1.977.875 1.977.875 4.313 1.563l2.363.753c2.098.617 4.198 1.173 6.324 1.684l1-2 1 2c8.96.416 17.87.366 25.375-5.187 3.102-3.324 4.871-6.655 6.625-10.813"/><path fill="#431B7A" d="M513 462h2c-.4 5.488-1.486 9.67-3.867 14.629a122 122 0 0 0-2.453 5.527c-7.948 18.642-18.51 36.29-32.68 50.844 0-4.023 2.005-5.837 4.438-8.812 3.816-4.808 7.366-9.712 10.687-14.875l1.181-1.818c2.054-3.01 2.054-3.01 2.694-6.495l1.356-1.353c3.131-3.137 4.65-7.426 6.519-11.397l1.343-2.83c3.56-7.645 6.42-15.327 8.782-23.42"/><path fill="#39126D" d="M625 420c2.702.6 4.495 1.255 6.082 3.598 1.051 2.107 2.001 4.233 2.918 6.402q1.059 2.439 2.125 4.875l.945 2.242c.891 2.058.891 2.058 2.93 3.883l1.5 2.813c3.255 5.011 9.441 7.462 15.086 8.8 8.15 1.306 13.461-.14 20.414-4.613l1-2 3 1c-5.35 5.656-9.147 8.346-17 9l-2.098.23c-7.829.511-13.948-2.662-19.777-7.73L640 446l-1.879-2.121c-2.654-3.602-4.369-7.369-6.183-11.442-2.873-6.568-2.873-6.568-6.938-12.437"/><path fill="#532B8F" d="M233 405h2l-2.246 7.52A216 216 0 0 1 231 418c-.044 2.041-.04 4.084 0 6.125a137 137 0 0 1 0 5.875l-1 1c-1.32 11.003 4.21 22.909 10 32h-3c-4.882-8.51-4.882-8.51-6.562-13-1.1-3.14-1.1-3.14-3.625-3.937L225 446l3-7h-3l-1-6 2 1 .262-3.043c.928-9.422 2.835-17.257 6.738-25.957"/><path fill="#381368" d="M917 356c8.81-.864 16.88 1.973 23.988 7.195 6.817 5.978 9.3 9.844 10.012 18.805l-1 3 2 1h-3l-.187 1.75c-1.333 3.69-4.391 5.54-7.813 7.25-2.059.203-2.059.203-4.437.25l-2.372.078c-2.67-.4-3.51-1.275-5.191-3.328l2.23.07 2.957.055 2.918.07c3.113-.21 5.162-.694 7.895-2.195 2.32-3.137 2.27-6.121 2.25-9.937l.016-3.09c-.27-3.026-.994-5.231-2.266-7.973h-2v-2c-8.496-4.277-16.717-7.791-26-10z"/><path fill="#3D1975" d="M469 404c11.168 5.696 17.696 16.746 21.746 28.09 2.873 9.687 2.03 21.919-2.746 30.91l-3 1 .64-1.604c2.231-6.027 2.871-11.37 2.798-17.771l-.023-2.798c-.284-11.736-3.929-20.604-12.438-28.768-3.208-2.857-6.525-5.504-9.977-8.059z"/><path fill="#411A74" d="M243 303c0 3.898-1.06 4.387-3.75 7.125-15.118 16.421-26.326 36.284-33.129 57.504-.876 2.633-1.786 4.952-3.121 7.371-3.08-9.241 6.22-23.602 10.313-31.807C221.01 328.147 231.053 314.947 243 303"/><path fill="#462181" d="m321 334-2.562 1.652c-14.674 9.661-23.147 21.308-28.614 38.203C289 376 289 376 287 378c-2.559.466-5.047.835-7.625 1.125l-2.14.262c-1.745.212-3.49.413-5.235.613v-3l2.773-.402 3.602-.536 3.586-.527c2.946-.37 2.946-.37 5.039-1.535.96-2.47 1.838-4.93 2.688-7.437 2.506-7.027 5.573-12.745 10.312-18.563l1.496-1.95c4.194-5.238 12.367-14.429 19.504-12.05"/><path fill="#3C1273" d="M684 370h1c1.163 11.932 1.186 23.848 1.185 35.826.003 3.392.02 6.784.04 10.176q.005 3.24.005 6.478l.022 3.068-.01 2.836.005 2.49C686 433 686 433 684 436c-1.008-14.371-1.112-28.725-1.125-43.125l-.008-2.893q-.007-4.12 0-8.24l-.006-2.535c.014-3.322.081-6.034 1.139-9.207"/><path fill="#401A78" d="m345.602 254.734 2.914-.005q3.022-.002 6.046.01c3.063.011 6.125 0 9.188-.012q2.957 0 5.914.007l2.738-.012c5.812.042 10.962.84 16.598 2.278v1c-4.979.097-9.861.063-14.812-.5-19.77-1.93-38.932.013-58.165 4.598-3.658.858-7.296 1.428-11.023 1.902 3.41-2.999 6.698-3.948 11.063-5.062l3.722-.973c8.64-2.043 16.928-3.27 25.817-3.23"/><path fill="#2D0A59" d="m666.688 574.75 2.886-.016C672 575 672 575 674 577l-3.035.297c-11.665 1.063-11.665 1.063-20.778 7.89-3.618 8.57-3.523 17.324-3.601 26.473q-.028 2.1-.059 4.199c-.05 3.654-.09 7.309-.128 10.963-.04 3.741-.091 7.482-.141 11.223A8278 8278 0 0 0 646 660h-1q-.106-13.092-.155-26.184-.022-6.08-.071-12.16c-.033-3.916-.05-7.832-.059-11.749q-.008-2.233-.032-4.468c-.18-17.239-.18-17.239 5.184-23.681l2.008-1.633 1.992-1.68c4.21-2.852 7.76-3.723 12.82-3.695"/><path fill="#3A126E" d="M955 598h1l.113 3.734c.456 19.33.456 19.33 10.074 35.453 8.256 5.32 17.253 5.448 26.813 5.813-5.24 3.494-11.712 2.553-17.766 1.535-6.916-1.793-11.857-4.761-15.703-10.867-4.353-8.238-5.863-15.83-5.718-25.043l.001-2.441c.045-5.902.045-5.902 1.186-8.184"/><path fill="#3E1575" d="M988 548h2v3l2.875.188c5.196.704 9.578 3.332 14.125 5.812v2c-2.764-.873-5.473-1.754-8.102-2.982-6.894-3.145-12.886-3.597-20.398-3.456l-3.223-.021c-6.911.055-12.787 1.11-19.277 3.459l-3 1-2-2c12.55-5.5 23.481-6.282 37-6z"/><path fill="#4B228B" d="M381 337c9.87 3.342 16.29 13.142 21 22v2l3.945-.07q2.59-.029 5.18-.055c.856-.017 1.712-.034 2.594-.05 4.847-.038 8.728.28 13.281 2.175v1c-4.083.145-8.165.234-12.25.313l-3.512.126c-8.572.124-8.572.124-11.875-2.67L398 359c-.434-.755-.869-1.51-1.316-2.29l-1.247-2.335c-3.272-5.624-7.563-9.784-12.242-14.223L381 338z"/><path fill="#461E7C" d="M185 388h1q.075 11.64.11 23.279.016 3.96.04 7.92c.025 3.794.036 7.586.045 11.38l.032 3.582v3.336l.014 2.934c-.25 2.659-.885 4.292-2.241 6.569-1.153-6.342-1.095-12.567-1-19l-2-1v-16h2l-.519-1.732c-.505-2.383-.45-4.149-.176-6.561l.27-2.408.3-2.486.277-2.522c.713-6.156.713-6.156 1.848-7.291"/><path fill="#3F1873" d="M490 535c0 3.377-.374 3.838-2.406 6.355l-1.504 1.885-1.59 1.947-1.59 1.983A950 950 0 0 1 479 552l1 2-1.8.742C465.937 561.755 458.181 585.47 453 598h-2c5.516-22.798 22.486-46.486 39-63"/><path fill="#351164" d="M924 620c2.162 3.243 2.801 5.737 3.75 9.5 4.066 14.591 11.346 24.668 24.25 32.5 4.5 2.357 8.92 4.344 14 5l-2 2c-4.692-.316-8.242-1.904-12.375-4.062l-3.21-1.66L946 662v-2l-1.758-.781C933.364 653.306 928.127 641.006 924 630l-1-2c.168-2.696.612-5.324 1-8"/><path fill="#50268C" d="m483 466 1 3c-6.174 10.125-16.05 14.424-27.059 17.238-2.849.629-2.849.629-4.941 1.762a138 138 0 0 1-7.687-1.312l-2.108-.397c-4.485-.867-8.83-1.978-13.205-3.291l1-2c5.572.886 5.572.886 7.936 1.514 11.327 2.669 23.128 1.362 33.123-4.432 4.625-3.274 9.36-6.92 11.941-12.082"/><path fill="#542895" d="m419 298 3 1-.25 2.625c.313 4.22 1.593 6.127 4.25 9.375 2.294 1.554 3.886 1.981 6.625 2.438C435 314 435 314 437 317c-1 1-1 1-3.309 1.23-5.581-.478-9.665-5.05-13.191-9.105L419 307l-1.687 2.688c-2.092 3.155-4.559 5.71-7.313 8.312l1 2c-6.75-.75-6.75-.75-9-3 1.03-.49 1.03-.49 2.082-.988l2.73-1.325 2.708-1.3c2.326-1.3 3.87-2.278 5.48-4.387.462-1.945.462-1.945.5-4 .326-3.778.326-3.778 2.063-6z"/><path fill="#3B146C" d="M1183.16 578.578c4.418 3.414 6.656 6.995 7.84 12.422.154 4.006.117 7.993 0 12-2-1-2-1-4-4v-3h2c-1.98-8.32-1.98-8.32-7-15-5.638-3.1-11.674-3.624-18-4l-1 2-2.75.813c-3.787 1.383-5.544 3.256-8.25 6.187l-2 1c1.398-4.893 3.904-7.086 8-10 8.056-4.028 17.712-3.216 25.16 1.578"/><path fill="#431B7B" d="m304 265-4 2-2.758 1.387a569 569 0 0 1-7.047 3.445c-14.56 7.047-29.07 15.856-40.476 27.496C248 301 248 301 246 301c1.68-5.04 6.309-7.53 10.4-10.735a294 294 0 0 0 4.588-3.726c31.5-25.376 31.5-25.376 43.012-21.539"/><path fill="#411776" d="M1239 590h2l-.214 1.746c-.783 6.955-.936 13.822-.911 20.817l-.012 3.248c.008 6.146.331 12.095 1.137 18.189h-2l-1-7-1 2h-2a560 560 0 0 1-.062-4.312l-.036-2.426C1235 620 1235 620 1236 617a86 86 0 0 0-.125-4.125c-.115-7.745 1.65-15.306 3.125-22.875"/><path fill="#522790" d="M295 523c2 2 2 2 2.875 5 .825 3.105.825 3.105 3.25 4.375L303 533l-2 1-1 2c-1.5-1.375-1.5-1.375-3-3v-2h-2l-2 6-5 1v2l2.375.813C293 542 293 542 295 545v3h2l2-6h2c-1.59 4.035-3.282 8.018-5 12l-.875-1.812c-1.172-2.381-1.172-2.381-3.125-5.188l-.75-2c-1.801-2.882-4.198-3.673-7.25-5l1-4 2.313-.25c2.715-.537 2.715-.537 4.375-2.312 1.822-3.386 2.498-6.68 3.312-10.438"/><path fill="#411676" d="M1010 597c2.977 2.977 2.32 5.722 2.38 9.797-.02 12.078-.05 22.578-8.794 31.832-2.812 2.431-5.802 4.371-9.586 4.371v-2c1.95-1.333 3.99-2.439 6.055-3.586 2.213-1.609 2.867-2.94 3.945-5.414l1.5-1.312c3.998-4.498 3.713-10.675 3.668-16.356-.16-2.226-.553-4.192-1.168-6.332h2z"/><path fill="#341064" d="m825 607-2.16 1.25c-8.577 5.172-15.915 10.755-18.84 20.75-.47 3.477-.6 6.932-.687 10.438l-.104 2.794A636 636 0 0 0 803 649h-2c-1.576-11.424-1.035-21.611 5.688-31.375 4.369-5.263 11.157-12.771 18.312-10.625"/><path fill="#411476" d="M811 368h1q.337 13.848.598 27.697c.081 4.288.17 8.575.277 12.862q.151 6.214.252 12.43.044 2.362.11 4.725c.454 16.473.454 16.473-4.237 23.286-4.098 4-4.098 4-7 4 1-3 1-3 3.438-5.25 4.541-4.874 4.81-10.522 4.88-16.97l.031-2.072c.03-2.235.048-4.47.065-6.704q.028-2.34.059-4.678c.05-4.085.09-8.17.128-12.256.04-4.176.091-8.353.141-12.529q.144-12.27.258-24.541"/><path fill="#492085" d="M428 364c8.043.357 14.433 4.622 21 9v2l1.785.719C457.493 379.599 462.37 389.9 465 397c.35 2.51.276 4.462 0 7-1.909-2.864-2.966-5.364-4.187-8.562-6.086-14.76-14.684-21.822-28.813-28.438a554 554 0 0 1-4-2z"/><path fill="#381268" d="M907 649c1.938.688 1.938.688 4 2 1.946 4.586.508 9.45-1 14-2.49 4.48-5.857 6.456-10.496 8.336-5.79 1.536-10.75.62-15.942-2.211L881 669l-1.937-1.5c-1.063-1.5-1.063-1.5-.75-3.687L879 662l1.75 2.875c2.226 3.092 2.844 3.876 6.25 5.125 5.485.61 11.835 1.308 16.688-1.75 2.845-2.769 4.17-4.735 4.542-8.723l-.043-2.59-.019-2.597c-.082-2.495-.082-2.495-1.168-5.34"/><path fill="#391369" d="m1338.5 640.063 1.5.937v2h2c2.58 4.705 2.156 8.927 1 14-1.562 3.063-1.562 3.063-3 5-1.125-3.75-1.125-3.75 0-6 .475-4.471.724-8.552-1.312-12.625-4.437-2.27-8.82-2.085-13.688-1.375-2.634 1.076-4.615 2.393-7 4-2.437.75-2.437.75-4 1a141 141 0 0 1 5-5h2l1-2c5.666-2.626 10.755-2.38 16.5.063"/><path fill="#562C93" d="M428 484v2c-13.226 7.036-22.903 9.326-38 9h-3c-1.687-1.5-1.687-1.5-3-3 4.454-.952 8.565-1.016 13.082-.884 9.975.274 17.896-.41 26.578-5.753C426 484 426 484 428 484"/><path fill="#512690" d="m471 336 2 1c.337 3.646.395 5.44-1.75 8.484L469 347.75c-3.05 2.666-3.05 2.666-4 6.25l2 1v2l3 1 2 3 3-3-2 11-3-1c-.633-1.855-.633-1.855-1.125-4.187-1.54-5.267-4.411-7.11-9.012-9.817L458 353c1.52-3.039 3.98-3.644 7-5h2c1.665-3.924 2.872-7.891 4-12"/><path fill="#3A126F" d="M673.508 548.879c4.924-.125 8.876.177 13.492 2.121v1l-1.953.028c-2.974.055-5.948.138-8.922.222l-3.07.043c-9.808.314-17.554 2.615-24.68 9.535C647 563 647 563 645 563c0-2 0-2 1.398-3.586 8.115-7.345 16.369-10.016 27.11-10.535"/><path fill="#431B7B" d="M399 260c7.822 1.22 14.81 3.647 22.125 6.625l3.188 1.273q3.847 1.54 7.687 3.102v2l2.375.563c5.104 2.024 9.229 5.188 13.625 8.437l-2 1a132 132 0 0 1-7.5-4.125q-2.176-1.254-4.355-2.504l-2.146-1.235a199 199 0 0 0-7.812-4.199l-2.269-1.16c-2.036-.965-2.036-.965-4.918-.777v-2l-2.074-.371c-3.318-.713-6.5-1.678-9.738-2.692l-3.52-1.097L399 262z"/><path fill="#351267" d="m1016 355 2 1c2.081.098 4.166.13 6.25.125l3.39.008c3.206-.127 6.212-.532 9.36-1.133v2l3.188.188c4.475.953 5.935 2.342 8.812 5.812 1.203 2.405 1.1 3.95 1.063 6.625l-.028 2.477L1050 374h-1l-.297-1.828c-.905-4.837-1.526-8.134-5.703-11.172-3.175-1.058-5.643-1.202-8.98-1.316l-3.526-.127-3.681-.12-3.717-.13q-4.548-.16-9.096-.307l2-1z"/><path fill="#3E1972" d="M521 404h1c1.083 38.042 1.083 38.042-5 55l-2 2c.498-5.474 1.35-10.737 2.438-16.125 2.586-13.407 2.844-27.268 3.562-40.875"/><path fill="#371069" d="M640 335h2v2c4.456 2.21 8.706 2.342 13.582 2.414l2.467.059c2.588.06 5.176.106 7.764.152q2.64.057 5.279.117 6.453.142 12.908.258v2c-4.291.196-8.583.38-12.875.563l-3.707.17-3.535.146-3.27.143C658 343 658 343 656 342v2c-1.92-.399-3.836-.82-5.75-1.25l-3.234-.703c-3.31-1.15-4.845-2.328-7.016-5.047z"/><path fill="#3A126D" d="M868 552c10.678.89 17.696 6.37 25 14 5.077 6.52 7.334 12.661 7 21-2-2-2-2-2.812-5.562-2.212-9.39-7.743-17.043-15.907-22.133-4.33-2.41-8.655-4.526-13.281-6.305z"/><path fill="#461F7E" d="M304 717c2.169.506 4 1 6 2l.688 3.375C312.56 730.641 318.45 737.779 324 744c-4.295 0-5.839-2.234-9-5l-3-2 1-2c-.883-2.447-.883-2.447-2.25-5.062l-1.328-2.723c-1.29-2.52-1.29-2.52-4.422-3.215z"/><path fill="#3F186F" d="M1047 376h2c-.547 3.83-1.983 5.618-5 8-6.197 2.189-12.072 2.386-18.592 2.566-5.478.168-5.478.168-10.408 2.434l-1-3v5h-1v-7l1.8-.076q4.1-.178 8.2-.361l2.832-.12c10.942.155 10.942.155 20.168-4.443z"/><path fill="#44197B" d="M1128.313 548.438c5.827.417 10.763 1.879 15.187 5.75L1145 556l-1 3-.812-1.937c-1.075-2.394-1.075-2.394-4.188-3.063a126 126 0 0 0-6.875-.312l-3.68-.114c-4.03.498-5.599 1.596-8.445 4.426l-1 2h-2c1.905-5.887 4.59-11.33 11.313-11.562"/><path fill="#3C1371" d="m762 553 1 3-2.16-.65c-7.846-2.184-14.975-2.724-23.09-2.538l-3.45.042a829 829 0 0 0-8.3.146c7.529-8.187 26.923-4.06 36 0"/><path fill="#3E1674" d="M582.313 506.688c3.386 1.889 5.243 3.611 6.687 7.312.188 2.813.188 2.813 0 5-2-3-2-3-3.375-5.562-1.81-2.717-2.636-3.286-5.625-4.438-5.634-.736-10.423-1.19-15.062 2.313L563 514l-3 3c.416-4.848 2.374-6.88 6-10 4.949-3.584 11.058-2.703 16.313-.312"/><path fill="#401775" d="M925 588c2.562 3.843 1.822 4.54 1 9-.108 1.824-.187 3.65-.246 5.477l-.1 3.03q-.091 3.13-.172 6.259l-.103 3.023-.076 2.74c-.315 2.57-1.008 4.25-2.303 6.471-.822-5.764-1.183-11.368-1.187-17.187l-.038-2.366c-.01-4.277.247-7.546 2.225-11.447l-2-1 2-1z"/><path fill="#320D66" d="m1318 599-1 2q-6.72.037-13.44.055-2.278.008-4.556.02c-9.058.051-17.983-.107-27.004-1.075v-1q7.656-.254 15.314-.482 2.6-.08 5.199-.166 3.758-.123 7.514-.23l2.312-.083c5.316-.144 10.386.281 15.661.961"/><path fill="#3B116E" d="M696 313c6.355.251 11.03.636 16 5 3 4.2 3 4.2 3 7h-2a749 749 0 0 1-4-6c-3.103-2.069-3.85-2.258-7.38-2.319l-2.668-.06-2.87-.035-2.947-.059c-3.107-.06-6.215-.106-9.322-.152l-6.319-.117q-7.747-.142-15.494-.258v-1h34z"/><path fill="#3A136B" d="m811 469 5 1 .75 2.813c1.386 3.535 2.015 4.352 5.25 6.187 5.154.793 11.512 1.654 16.027-1.348 1.538-1.78 1.538-1.78 2.973-4.652l1 3c-4.333 4.574-6.544 6.802-12.875 7.313-5.438-.162-8.846-2.257-13-5.688C814 475 814 475 813.688 472.188L814 470z"/><path fill="#411A76" d="m456 556 2 1-.87 1.45c-1.319 2.201-2.63 4.407-3.942 6.612l-1.37 2.28c-2.643 4.457-4.88 8.852-6.818 13.658l-1.625 3.625c-1.162 2.852-1.916 5.346-2.375 8.375h-2c.544-5.266 1.834-9.716 4-14.562l.912-2.073c3.309-7.253 7.574-13.814 12.088-20.365"/><path fill="#39126A" d="M1294.563 573.625c7.306.123 12.108 2.378 18.25 6.063 3.989 4.217 6.032 9.104 6.437 14.875L1319 597a175 175 0 0 1-3.113-6.437c-2.76-5.898-5.033-9.688-11.055-12.618-3.533-1.18-6.955-1.4-10.645-1.57l-2.1-.117A693 693 0 0 0 1287 576c2.626-2.626 3.903-2.328 7.563-2.375"/><path fill="#381269" d="m829 555-2.23 1.102c-7.011 3.611-11.556 6.365-15.082 13.586-.992 4.775-.844 9.453-.688 14.312-2-1-2-1-3-4-.781-6.494.163-11.642 4-17 1.898-1.908 3.821-3.39 6-5l2-2c3.522-1.761 5.267-2.12 9-1"/><path fill="#401872" d="M937.188 685.375 939 686l-2.375 1.313c-2.842 1.58-2.842 1.58-4.625 4.687-.757 6.262-.507 11.594 3 17l-4 1-1-3h-2c-.444-7.397-.688-13.885 4-20 3-2 3-2 5.188-1.625"/><path fill="#3D1971" d="M196 403h1l.076 1.788q.176 4.013.362 8.024l.119 2.815.127 2.705.11 2.491c.14 2.356.14 2.356 1.206 5.177.045 2.187.04 4.375 0 6.563-.24 4.38-.24 4.38 1 8.437a65 65 0 0 1-.437 4.625l-.31 2.477L199 450h-1c-1.611-6.157-2.279-11.838-2.195-18.191l.008-2.518c.011-2.618.036-5.236.062-7.853q.016-2.685.027-5.37.035-6.534.098-13.068"/><path fill="#492186" d="m347.5 325.813 3.781-.043c3.937.244 6.99 1.014 10.719 2.23v1h-29v-2a92.6 92.6 0 0 1 14.5-1.187"/><path fill="#50228A" d="M558 606c2 2 2 2 2.243 4.224l-.013 2.764-.003 3.065-.04 3.26-.019 3.287c-.072 7.503-.352 14.936-1.168 22.4h-1a757 757 0 0 1-.562-5.75l-.317-3.234c-.108-2.685.153-4.477.879-7.016l-.5-2c-.5-2-.5-2 .063-3.812.658-2.425.658-2.425-.563-5.688-.973-3.406-1.022-4.32 0-7.5l-1-3z"/><path fill="#361168" d="M899 427c9.291 1.405 18.355 4.02 26.313 9.125 2.612 4.452 2.084 8.839 1.687 13.875h-1l-.39-5.762c-.863-3.167-2.342-4.882-4.61-7.238-2.654-1.55-2.654-1.55-5.625-2.625l-3.18-1.238A181 181 0 0 0 899 429z"/><path fill="#361264" d="M1146 661c.813 1.625.813 1.625 1 4-2.636 3.766-4.656 6.317-9 8-5.705.764-11.272 1.065-16.187-2.25-2.73-2.668-3.195-3.264-3.813-6.75h2a263 263 0 0 1 4 5c4.203 2.102 9.435 1.536 14 1 3.916-1.861 6.491-4.926 8-9"/><path fill="#4C2488" d="M299 481c3.26 1.427 5.357 3.194 7.875 5.688 5.714 5.219 12.15 8.098 19.125 11.312l4 2-11-1v-2l-2.5-.625c-6.99-2.746-12.495-7.87-17.5-13.375z"/><path fill="#451D7D" d="M436 645h2c3.417 6.316 5.159 11.8 4 19-1.073 3.158-2.425 6.065-4 9l-1 2-3-1 .84-1.645 1.098-2.168 1.09-2.144c3.81-8.004 1.421-14.981-1.028-23.043"/><path fill="#461D7F" d="m283 605 2 1c.687 3.73 1.214 7.447 1.68 11.21.716 4.999 1.556 8.145 5.32 11.79 3.117 1.81 3.117 1.81 6 3v2c-3.978-.351-6.677-1.686-9.645-4.379-5.55-6.638-5.018-16.452-5.355-24.621"/><path fill="#4A2282" d="M490 434c3.86 6.57 2.384 14.962.566 22.055-.708 2.431-1.374 4.702-2.566 6.945l-3 1 1.438-3.375c1.949-5.71 2.064-11.44 2.27-17.416.116-3.291.244-6.065 1.292-9.209"/><path fill="#3C136F" d="M843 440h1c.538 7.575 1.062 15.157 1.25 22.75l.078 2.797c-.393 2.936-1.504 4.176-3.328 6.453-.03-4.02-.047-8.042-.062-12.062l-.026-3.436c-.016-5.61.07-10.978 1.088-16.502"/><path fill="#3A1570" d="M341 255a3379 3379 0 0 1 16.168-.11q2.745-.015 5.49-.04c2.644-.025 5.288-.037 7.932-.045l2.444-.032c5.556 0 10.596.815 15.966 2.227v1a500 500 0 0 1-4.312.063l-2.426.035c-2.775-.083-5.47-.295-8.23-.567-6.732-.64-13.464-.871-20.22-1.094l-3.751-.13q-4.53-.157-9.061-.307z"/><path fill="#3A1869" d="M396 743h2c-1.887 5.661-8.943 8.223-14 11-6.609 3.169-12.748 3.366-20 3v-1l3.516-.629c10.617-2.042 20.553-4.44 28.484-12.371"/><path fill="#3C1471" d="M832 630h1l.184 2.336.254 3.039.246 3.023c.166 2.581.166 2.581 1.316 4.602a89 89 0 0 0 4 2l3 2c2.434 1.217 4.418 1.32 7.125 1.563l2.758.253L854 649v1c-13.926.754-13.926.754-20-4-2.988-3.205-3.366-5.35-3.25-9.687.015-.974.03-1.947.047-2.95C831 631 831 631 832 630"/><path fill="#43147F" d="M1012 384h1l.438 3.25c.4 2.667.838 5.164 1.562 7.75h-2v46h-1z"/><path fill="#482080" d="m483 466 1 3c-4.356 7.143-11.673 12.17-19.25 15.375-2.689.611-5.003.787-7.75.625 3.132-2.088 6.275-3.539 9.688-5.125 6.573-3.166 12.937-7.124 16.312-13.875"/><path fill="#411A75" d="M192 358h2c-.498 5.374-1.544 10.182-3.168 15.324-1.406 4.523-2.606 9.102-3.832 13.676h-1c-.388-6.853 1-12.47 3-19l.867-2.926A913 913 0 0 1 192 358"/><path fill="#3E1670" d="M1062 660c2 3 2 3 3.438 5.563 1.485 2.675 1.485 2.675 4.562 4.437 2.589.3 5.091.509 7.688.625l2.126.117c1.729.094 3.457.177 5.186.258-2.894 2.894-6.074 2.936-10 3-5.8-1.081-9.977-3.058-13.375-8-.747-2.389-.457-3.672.375-6"/><path fill="#38116D" d="M873 620h1c.824 17.575.824 17.575-4 23-3.493 2.854-6.414 5-11 5v-2l1.645-.7c4.56-2.079 7.26-3.53 9.355-8.3l1.031-2.266c1.092-3.081 1.38-5.79 1.594-9.047l.227-3.238z"/><path fill="#371068" d="M636 550c2.363 2.035 2.363 2.035 4 4l-1.937-.5c-6.63-1.082-12.29-1.394-18.063 2.5-2.343 2.551-2.343 2.551-4 5 .068-2.944.33-5.158 2.203-7.512 5.108-4.327 11.364-4.804 17.797-3.488"/><path fill="#31105F" d="m874 473 2.176.875L879 475l2.48 1c9.022 3.333 18.008 4.197 27.52 5v1c-12.76.651-23.946.37-35-7z"/><path fill="#350E62" d="m1176 575 1 2h-13l-1 2-2.75.813c-3.787 1.383-5.544 3.256-8.25 6.187l-2 1c1.398-4.893 3.904-7.086 8-10 5.66-2.83 11.824-2.18 18-2"/><path fill="#381267" d="m827.688 355.875 3.574.055L834 356v2l-2.414.078c-8.603.327-8.603.327-15.586 4.922-1.054 2.702-1.518 5.109-2 8l-2-1c.253-4.296.557-6.475 3.375-9.812 4.447-3.707 6.566-4.427 12.313-4.313"/><path fill="#391369" d="M755 660c2 2 2 2 3.438 4.438 1.45 2.379 2.38 3.875 4.562 5.562 2.962.58 2.962.58 6.188.688l3.292.199L775 671c-1.616 1.959-2.453 2.923-5.016 3.285-5.32-.53-8.769-1.802-12.675-5.52-2.046-2.76-2.242-5.405-2.309-8.765"/><path fill="#50288D" d="m290 366 2 1q-.676 2.19-1.375 4.375l-.773 2.46C289 376 289 376 287 378c-2.559.466-5.047.835-7.625 1.125l-2.14.262c-1.745.212-3.49.413-5.235.613v-3l2.773-.402 3.602-.536 3.586-.527c2.946-.37 2.946-.37 5.039-1.535.903-1.883.903-1.883 1.625-4.062.26-.734.52-1.467.79-2.223.192-.566.386-1.132.585-1.715"/><path fill="#481E82" d="M433 678c3 1 3 1 4.168 3.04 2.567 6.509 4.04 12.058 1.832 18.96h-2l-.113-2.527c-.41-7.028-1.33-12.912-3.887-19.473"/><path fill="#361164" d="M803 650c1.48 1.948 2.93 3.895 4.29 5.93 4.14 6.03 9.19 9.81 15.71 13.07v2c-7.583-1.75-13.826-6.749-18.062-13.187-1.86-3.074-1.938-3.966-1.938-7.813"/><path fill="#4D2588" d="M298 481c-4.689 2.838-8.573 3.427-13.926 3.691L282 485l-1 2v-2h-5l-1-2c3.27-.532 6.54-1.049 9.813-1.562l2.814-.46 2.705-.42 2.491-.396C295 480 295 480 298 481"/><path fill="#42177B" d="m1012 340 1 2h2l1 16-4 1z"/><path fill="#3C156E" d="m1261 662 2.816 1.46q1.874.959 3.746 1.915l1.846.96c4.129 2.098 8.103 3.521 12.592 4.665l-1 2a69 69 0 0 1-8.562-2.125c-3.166-.806-4.486-1.056-7.438.125v-3h2l-3-1.875-3-2.125z"/><path fill="#3A126C" d="M872 617v2c-6.866 3.433-17.416 2.154-25 2l1-2c1.778-.41 1.778-.41 4.078-.633l2.52-.254 2.652-.238 2.605-.262c4.06-.394 8.061-.731 12.145-.613"/><path fill="#4A2384" d="M250 473c3.453 1.315 6.635 2.855 9.875 4.625 4.379 2.235 7.264 2.903 12.125 2.375v2l2 1c-8.253.794-15.463-2.033-22.36-6.543L250 475z"/><path fill="#350F69" d="M738 425h1l1 26-2-1c-1.2-4.247-1.386-8.675-1.687-13.062l-.182-2.143c-.262-3.825-.324-6.56 1.869-9.795"/><path fill="#411B73" d="M436 701c.906 2.45 1.209 3.543.102 5.965-3.904 5.215-7.956 8.701-14.102 11.035-3.562.313-3.562.313-6 0 2.257-2.257 3.755-2.685 6.75-3.687 6.77-2.613 10.199-6.871 13.25-13.313"/><path fill="#361267" d="M1070 550c11.821-.689 11.821-.689 15.625 1.813C1088 554 1088 554 1090 557l-1 3-1.687-2.937c-2.076-2.571-3.156-3.034-6.47-3.649a173 173 0 0 0-6.98-.309C1071 553 1071 553 1069 552z"/><path fill="#461C7D" d="m472 534 3 1-16 20-1-2c4.466-6.502 9.093-12.825 14-19"/><path fill="#582C9B" d="m428 319 2 1-1.426 1.434c-4.573 4.857-6.999 9.085-8.574 15.566l-2-1v-9l3 1 .688-2.25c1.556-3.261 3.397-4.679 6.312-6.75"/><path fill="#49217F" d="m282 674 4 1c0 3.88-.408 5.367-2 8.75l-1.125 2.422L282 688h-2v12h-1c-.4-7.298-.663-12.986 3.176-19.344 1.073-1.798 1.073-1.798.574-4.656z"/><path fill="#491A82" d="M843 384h2v26h-1l-.184-2.117-.254-2.758c-.08-.905-.162-1.81-.246-2.742-.186-2.394-.186-2.394-1.316-4.383-.097-2.186-.13-4.375-.125-6.562l-.008-3.567C842 385 842 385 843 384"/><path fill="#451D7B" d="M201 376h1c-.65 8.39-1.749 16.68-3 25h-2c.313-8.804.61-16.747 4-25"/><path fill="#431B7D" d="M428 364c8.558.38 16.236 4.777 22 11l-1 2-1.8-1.355c-6.102-4.45-12.224-7.767-19.2-10.645z"/><path fill="#3E1A6E" d="M278 651h1l.078 2.746c.353 7.577 1.147 13.618 4.922 20.254-3.051-1.33-3.916-1.866-5.75-4.812-2.114-5.41-1.68-11.485-1.25-17.188z"/><path fill="#361067" d="m1283 576 3 1-2.012 1.18c-6.874 4.355-9.98 8.34-12.988 15.82a216 216 0 0 1-2 4c-.558-5.58.854-9.481 4-14 3-3.084 6.13-6.065 10-8"/><path fill="#471C81" d="M533 422h1c.91 9.687 1.197 18.412-1 28-2.096-3.401-2.135-5.705-1.758-9.64l.293-3.243.34-3.367.316-3.414q.39-4.17.809-8.336"/><path fill="#361267" d="M872 665v2q-3.155 1.471-6.312 2.938l-3.551 1.652c-3.656 1.643-6.352 2.538-10.324 2.472L848 674c2.943-1.962 4.808-2.565 8.188-3.375C861.123 669.349 867.19 665 872 665"/><path fill="#411976" d="M446 622h1c.687 7.45-.214 12.162-5 18a114 114 0 0 1-3 3l-3-1 2.313-2.125c4.97-5.318 6.372-10.914 7.687-17.875"/><path fill="#361166" d="M856 574v1l-3.375.25c-5.627.73-12.112 2.114-16.148 6.348-1.238 1.782-1.238 1.782-2.477 4.402l-3-1c7.651-9.89 7.651-9.89 13.902-10.871 3.71-.228 7.385-.284 11.098-.129"/><path fill="#37116A" d="M688 552c6.993.155 12.787 3.418 18 8 .82 2.734.82 2.734 1 5l-1.25-1.172c-4.285-3.864-8.515-6.454-13.75-8.828a565 565 0 0 1-4-2z"/><path fill="#361466" d="m990 464 2.063 2.125c4.893 4.866 9.544 9.068 15.937 11.875-1.687.688-1.687.688-4 1a99 99 0 0 1-5-3h-3c-1.5-2.25-1.5-2.25-3-5l-1.687-2.125C990 467 990 467 990 464"/><path fill="#3B126D" d="M675 577c4.68 1.337 7.58 3.836 10 8 1.053 2.955 1.893 5.855 2 9l-2 2-.48-1.977c-1.57-5.88-3.201-9.704-7.52-14.023l-2-1z"/><path fill="#3E1A77" d="M230 443c2.525 3.787 3.999 7.777 5.684 11.992 1.242 2.84 2.66 5.393 4.316 8.008h-3c-3.397-5.68-6.644-11.455-8-18z"/><path fill="#3F1576" d="M863 380c2 2 2 2 2.195 5.477a289 289 0 0 1-.07 4.148l-.027 2.14A625 625 0 0 1 865 397h-3a1180 1180 0 0 1-.062-6.25l-.036-3.516c.08-2.644.312-4.732 1.098-7.234"/><path fill="#482184" d="M264 381v2l-2.047.77-2.703 1.043-2.672 1.019c-2.51 1.137-4.395 2.512-6.578 4.168h-2v2l-3 1c.2-1.805.2-1.805 1-4 2.145-1.633 2.145-1.633 4.813-3.125l2.644-1.508L256 383l2.074-1.18C260 381 260 381 264 381"/><path fill="#3C196E" d="M411 720h1c-.343 7.894-4.35 14.568-9.875 20.125L400 742l-2-1 2.563-2.625c4.678-5.393 7.43-11.961 10.437-18.375"/><path fill="#4D2386" d="M304 717c2.169.506 4 1 6 2 .633 2.504.633 2.504 1.125 5.563l.508 3.066L312 730h-2l-.812-2.437L308 725l-3-1z"/><path fill="#3D176D" d="m587 665 1 2c-3.65 4.22-7.337 7.132-13 8-3-1.25-3-1.25-5-3v-1l1.941-.043c6.594-.364 10.022-1.687 15.059-5.957"/><path fill="#411877" d="M652 312h6c-.73 1.96-.73 1.96-2 4-1.988.54-1.988.54-4.312.625-3.605.238-6.395.781-9.688 2.375v2h-2c1.392-3.364 2.794-5.22 6-7 3.25-.187 3.25-.187 6 0z"/><path fill="#3E1474" d="M801 630c2 2 2 2 2.195 5.914a373 373 0 0 1-.07 4.711l-.027 2.43c-.024 1.982-.06 3.963-.098 5.945h-2a999 999 0 0 1-.562-6.687l-.317-3.762c-.106-3.11.107-5.56.879-8.551"/><path fill="#381367" d="m812 584 2.563 2c5.503 3.202 10.382 2.181 16.437 1v2c-4.33 2.45-8.113 2.7-13 2-3.562-1.812-3.562-1.812-6-4z"/><path fill="#330E66" d="m1038 576 3 1-1 25h-1a244 244 0 0 1-1-26"/><path fill="#421D7C" d="M381 337c4.15 1.376 6.666 3.233 9.75 6.313l2.36 2.3c2.023 2.555 2.55 4.184 2.89 7.387l-2.168-2.172q-2.745-2.743-5.508-5.469l-2.637-2.609-2.675-2.64C381 338 381 338 381 337"/><path fill="#371066" d="M810 472c-1.263 3.79-2.533 4.18-5.937 6.125l-2.715 1.57c-4.078 2.267-6.635 2.392-11.348 2.305 2.365-2.365 4.15-2.84 7.313-3.875 4.12-1.435 8.8-6.125 12.687-6.125"/><path fill="#492180" d="M512 367h2a556 556 0 0 1 2 5.625l1.125 3.164c.88 3.229 1.035 5.883.875 9.211l-4-1-1-5h2z"/><path fill="#350F65" d="M861 576c3.923.224 4.961.96 7.75 3.875 2.883 4.004 3.375 6.509 3.313 11.313l-.028 2.73L872 596h-1l-.367-2.082-.508-2.73-.492-2.708c-.91-3.562-2.615-5.462-5.196-8.043C862 578 862 578 861 576"/><path fill="#39146B" d="M625 420c2.803.623 4.537 1.302 6.152 3.738A105 105 0 0 1 634 430l1.313 2.75c.786 2.573.425 3.722-.313 6.25l-1.68-3.395-2.195-4.418-1.105-2.236-1.075-2.158-.984-1.984c-1.054-2.056-1.054-2.056-2.961-4.809"/><path fill="#421C7A" d="M433 618h1c.125 6.625.125 6.625-1 10h-2v2c-4.153 3.115-4.153 3.115-7.312 2.688L422 632c2.675-1.663 5-3 8-4 .77-2.074.77-2.074 1.125-4.5.798-4.423.798-4.423 1.875-5.5"/><path fill="#3E1273" d="m735.688 574.938 2.449.027L740 575v1l-3.25.375c-5.609.935-9.073 3.441-13.75 6.625l-3 2c1.358-4.888 3.67-6.526 8-9 2.882-.96 4.699-1.106 7.688-1.062"/><path fill="#451D7D" d="M349 755q3.563.214 7.125.438l2.016.119c4.01.255 7.909.71 11.859 1.443v1h-21z"/><path fill="#44187F" d="M1039 560h1c.917 5.385 1.111 10.542 1 16h-3a1217 1217 0 0 1-.062-6.312l-.036-3.551C1038 563 1038 563 1039 560"/><path fill="#3E1871" d="M254 569c3.105 2.683 4.8 5.924 6.75 9.5l1.922 3.469C264 585 264 585 263 588q-2.26-3.9-4.5-7.812c-.43-.738-.859-1.476-1.3-2.237l-1.231-2.158-1.143-1.984C254 572 254 572 254 569"/><path fill="#371166" d="m725 554-1.758 1.137c-4.665 3.056-9.038 6.198-13.242 9.863.544-3.795 2.038-5.27 4.938-7.687l2.152-1.825c3.089-2.407 4.214-2.597 7.91-1.488"/><path fill="#351067" d="m801 453-1 2c-3.56 1.187-6.438 1.097-10.187 1.063l-3.856-.028L783 456l-1-2q3.343-.253 6.688-.5l3.761-.281c2.866-.177 5.682-.263 8.551-.219"/><path fill="#50248C" d="M473 344c3.581 1.653 6.744 3.783 10 6l3 2c-2.312 1.563-2.312 1.563-5 3l-3-1 2-2-2.937-2.312c-2.484-1.955-3.015-2.545-4.063-5.688"/><path fill="#341262" d="M1004 326c2.712.077 4.441.454 6.41 2.379 3.183 4.147 4.272 7.43 4.59 12.621l-2 1-.445-2.012c-1.614-6.35-3.157-9.27-8.555-12.988z"/><path fill="#492084" d="M347 256v1c-3.457.393-6.915.761-10.375 1.125l-2.984.34-2.852.293-2.634.285C326 259 326 259 324 257c7.945-1.892 14.91-2.045 23-1"/><path fill="#472180" d="M428 484v2a365 365 0 0 1-5.125 3l-2.883 1.688c-3.257 1.428-5.476 1.562-8.992 1.312 3.37-2.832 6.946-4.335 11-6l2.313-1.187C426 484 426 484 428 484"/><path fill="#351065" d="M1006 678h2c-.532 5.848-3.904 10.143-8.187 13.938C998 693 998 693 996 693c1-3 1-3 3.313-4.687 3.448-2.968 4.899-6.197 6.687-10.313"/><path fill="#351066" d="M1166 551c-1.488 2.976-3.882 3.092-6.863 4.14-3.007 1.21-5.51 2.984-8.137 4.86l-2 1v-3c1.863-1.57 1.863-1.57 4.313-3.125l2.425-1.57c3.545-2.045 6.24-2.414 10.262-2.305"/><path fill="#37126B" d="m1015 444 1.688 2.313c4.567 5.307 8.601 6.118 15.312 6.687v1c-11.402.399-11.402.399-15-2-1.875-3-1.875-3-3-6z"/><path fill="#472083" d="M469 404c5.338 2.87 9.372 7.238 13 12-3.564-.589-5.373-1.943-8-4.375-2.578-2.366-5.17-4.565-8-6.625z"/><path fill="#3E1775" d="M397 246c6.303.368 11.333 1.166 17 4-3.725 1.344-6.41.658-10.187-.312l-3.231-.801C398 248 398 248 397 246"/><path fill="#351165" d="M1134 551v1l-3.625.188c-4.81.58-6.988 2.425-10.375 5.812l-1 2h-2c3.15-9.451 7.848-9.568 17-9"/><path fill="#38126A" d="M684 370h1q.331 4.154.625 8.313l.195 2.38.157 2.295.158 2.11C686 387 686 387 684 390c-1.377-6.368-2.082-13.755 0-20"/><path fill="#401A75" d="M364 497c-6.781 3.75-12.305 4.518-20 4v-1l2.957-.621 3.856-.817 3.832-.808c6.94-1.56 6.94-1.56 9.355-.754"/><path fill="#44157D" d="M736 392h3c.185 9.41.185 9.41-1 14h-2z"/><path fill="#401977" d="M259 288h2v2a91 91 0 0 1-4.812 3.938c-3.59 2.744-3.59 2.744-6.887 5.816C248 301 248 301 246 301c1.306-3.917 3.282-5.08 6.5-7.625l3.031-2.414L258 289z"/><path fill="#4B188B" d="m1270 594 2 1v5h12v1q-3.437.039-6.875.063l-3.867.035C1270 601 1270 601 1268 600v-5z"/><path fill="#552994" d="M299 542h2c-1.59 4.035-3.282 8.018-5 12l-.875-1.812c-1.172-2.381-1.172-2.381-3.125-5.188l2-1v2h3z"/><path fill="#3F1674" d="M621 417c1.719 1.516 1.719 1.516 3 3q-2.687.079-5.375.125l-3.023.07C613 420 613 420 611 418c3.554-1.185 6.27-1.266 10-1"/><path fill="#401774" d="M949 374h1c1.125 7.625 1.125 7.625 0 11l2 1h-3l-1 3c-1.052-3.155-.98-4.807-.625-8.062l.273-2.66C948 376 948 376 949 374"/><path fill="#3D1871" d="M463 277c3.705.603 5.86 2.225 8.75 4.563l2.422 1.94L476 285l-1 3a2365 2365 0 0 1-6-4.937c-.572-.47-1.145-.938-1.734-1.42A224 224 0 0 1 463 278z"/><path fill="#3A166D" d="M306 250c-2.842 1.895-5.316 3.002-8.5 4.188l-2.906 1.105C292 256 292 256 289 255q2.155-.971 4.313-1.937l2.425-1.09c3.618-1.556 6.348-2.079 10.262-1.973"/><path fill="#361163" d="M1219 661h2c-.502 4.394-1.872 6.872-5 10-2.75.813-2.75.813-5 1l2.313-2.125c2.653-2.839 4.127-5.344 5.687-8.875"/><path fill="#33115F" d="M1062 660c2 3 2 3 3.313 5.438 1.88 2.856 3.939 4.556 6.687 6.562-3.51-.3-4.978-.982-7.75-3.25-2.267-2.771-3.054-4.218-3.25-7.75z"/><path fill="#3E196F" d="M199 451h2c1.467 5.225 2.226 9.581 2 15-3.102-4.653-4.338-9.415-4-15"/><path fill="#361365" d="M1047 376h2c-.544 3.81-1.989 5.64-5 8-3.31.966-5.145 1.337-8.375.063L1034 383l3.75-.312c3.524-.443 5.714-1.05 8.25-3.688z"/><path fill="#361464" d="M947.438 683.125c3.81.936 5.142 1.874 7.562 4.875-4.687-.907-9.342-1.955-14-3 3-2 3-2 6.438-1.875"/><path fill="#341063" d="M895 572h2c2.257 5.36 3.363 9.198 3 15-3.66-3.66-4.062-9.995-5-15"/><path fill="#532890" d="M239 463c4.274 1.583 6.265 4.506 9 8-1.812.688-1.812.688-4 1-1.75-1.437-1.75-1.437-3-3l1-1-1.5-1.375C239 465 239 465 239 463"/><path fill="#341062" d="M710 452c1 3 1 3 .328 4.938L709.25 459l-1.047 2.063c-1.212 1.951-2.517 3.387-4.203 4.937l-2-1z"/><path fill="#431D7D" d="M363 329c5.414.467 9.205 1.243 14 4v2a417 417 0 0 1-4.75-1.312l-2.672-.739c-2.636-.97-4.432-2.16-6.578-3.949"/><path fill="#481F7F" d="m479 548 2 2-2 2 1 2-1.75.75c-2.55 1.417-4.268 3.126-6.25 5.25.612-3.44 1.92-5.516 4.063-8.25l1.66-2.14z"/><path fill="#542992" d="m302 536 7 1 1 3c-3.053.981-4.947.981-8 0z"/><path fill="#341162" d="M939 364c3.476.568 5.025 1.662 7.313 4.313l1.613 1.8C949 372 949 372 948.668 374.23L948 376c-3-4.75-3-4.75-3-7h-2v-2l-4-2z"/><path fill="#320E66" d="M1313 647c-1 2-1 2-2.672 2.621-2.89.47-5.65.473-8.578.442l-3.266-.028L1296 650v-1c11.522-2.296 11.522-2.296 17-2"/><path fill="#3C176A" d="M638 322h2v12h-2l-1-3-2-2h2z"/><path fill="#431B7B" d="m283 642 2 1-5 10-2-4z"/><path fill="#3B136E" d="M846 621v2q-2.43 1.294-4.875 2.563l-2.742 1.44L836 628l-2-1c7.2-6 7.2-6 12-6"/><path fill="#47227E" d="M315 495c5.455.568 9.91 1.946 15 4v1l-11-1v-2z"/><path fill="#34105F" d="m644 659 2 1c-.48 4.22-1.166 6.797-4 10l-3-1 1.375-1.062c2.272-2.709 2.793-5.546 3.625-8.938"/><path fill="#2F0E5C" d="M1239 590h2a416 416 0 0 1-.375 4.813c-.07.893-.14 1.786-.21 2.707C1240 600 1240 600 1238 603a535 535 0 0 1-.062-4.25l-.036-2.39c.094-2.267.466-4.189 1.098-6.36"/><path fill="#471881" d="m1149 586 2 1-2 15h-1a332 332 0 0 1-.625-5.187l-.352-2.918c-.025-3.136.633-5.09 1.977-7.895"/><path fill="#3E166F" d="m1089 531 3 1c-.562 1.938-.562 1.938-2 4-3.437.875-3.437.875-7 1l-3-2 3.375-.875c3.628-.817 3.628-.817 5.625-3.125"/><path fill="#371466" d="M581 508c2.313.188 2.313.188 5 1 2.684 3.332 3.363 5.762 3 10a98 98 0 0 1-3.437-5.5c-1.368-2.188-2.663-3.781-4.563-5.5"/><path fill="#411B79" d="m261 479 1.898.219 4.938.562c2.133.253 2.133.253 4.164.219v2l2 1c-5.336.271-8.614.427-13-3z"/><path fill="#3D1374" d="m678 446 3 1c-2.808 2.964-5.183 5.445-9 7l-2-2 5.371-2.93c1.795-.984 1.795-.984 2.629-3.07"/><path fill="#3F1B78" d="M233 405h2a716 716 0 0 1-1.375 4.813l-.773 2.707C232 415 232 415 230 418c.115-1.418.243-2.834.375-4.25.07-.789.14-1.578.21-2.39.43-2.446 1.201-4.208 2.415-6.36"/><path fill="#461D7D" d="m250 278 2 2a231 231 0 0 1-3.312 3.063l-1.864 1.722L245 286l-3-1z"/><path fill="#31105C" d="m937.25 685.25 1.75.75-2.25 1.188c-2.948 1.942-4.681 3.977-6.75 6.812.35-3.155.865-4.823 2.813-7.375C935 685 935 685 937.25 685.25"/><path fill="#D6B0FB" d="m301 683 2 1v2a88 88 0 0 1-5 3l-3 2c.349-3.255 1.021-4.019 3.563-6.25z"/><path fill="#351160" d="M617 664q1.939 1.434 3.875 2.875l2.18 1.617C625 670 625 670 627 672c-2.187.375-2.187.375-5 0-2.088-1.829-3.383-3.69-5-6z"/><path fill="#371466" d="M278 662c1.71 2.565 2.904 4.88 4.125 7.688l1.07 2.449L284 674c-3.844-1.781-3.844-1.781-5.25-3.75-.943-2.828-.885-5.29-.75-8.25"/><path fill="#491E83" d="m287 538 1 2 2.438.938C293 542 293 542 295 545l-1 3-1.75-2.375c-2.079-2.425-3.34-3.482-6.25-4.625z"/><path fill="#471683" d="M685 362h1v14h-1l-.437-2.312c-.526-2.77-.526-2.77-1.563-5.688v-3h2z"/><path fill="#461C7D" d="M304 265q-2.434 1.256-4.875 2.5l-2.742 1.406C294 270 294 270 292 270v-2c1.432-.7 2.87-1.384 4.313-2.062l2.425-1.16C301 264 301 264 304 265"/><path fill="#3B186A" d="M340 754q2.157.174 4.313.375l2.425.21C349 755 349 755 352 757c-8.571.143-8.571.143-12-1z"/><path fill="#46177D" d="m862 575-1 2-13-1v-1c5.021-.78 8.977-1.13 14 0"/><path fill="#3E1577" d="m660 551 4 2-9 3-2-2c3.25-1.625 3.25-1.625 7-3"/><path fill="#411879" d="m923 451 1 3c-3.448 2.053-5.317 3.063-9.375 2.688L912 456v-1l3.813-.875c3.04-.698 4.494-1.33 7.187-3.125"/><path fill="#3F1676" d="M602 430h1c.222 1.623.427 3.249.625 4.875l.352 2.742L604 440l-2 2-2-10h2z"/><path fill="#361365" d="m990 326 3 1-2.812 2.313c-2.17 1.805-4.244 3.635-6.188 5.687.296-3.554.803-4.803 3.375-7.375z"/><path fill="#34125E" d="m587 665 1 2c-2.25 2.563-2.25 2.563-5 5l-4-1z"/><path fill="#461D7E" d="M442 636h2c-1.293 2.884-2.66 4.872-5 7l-3-1z"/><path fill="#341064" d="M1195 554c3.958.565 6.666 1.809 10 4l-1 3q-2.254-1.463-4.5-2.937l-2.531-1.653L1195 555z"/><path fill="#32115E" d="m1064 505 3 1-1.812 2.25A247 247 0 0 0 1060 515c-.412-3.603-.154-4.784 2-7.812z"/><path fill="#50288D" d="M396 351c2.743 3.2 4.63 6.005 6 10-2.451-.98-3.768-1.651-5.25-3.875C396 355 396 355 396 351"/><path fill="#4A2184" d="M444 263q3.51.43 7 1l1 4c-5.538-.615-5.538-.615-7.875-2.562L443 264z"/><path fill="#401978" d="M433 678c3 1 3 1 4.188 2.75.92 2.55.961 4.56.812 7.25-2-1-2-1-2.852-3.066l-.773-2.496c-.26-.827-.52-1.653-.79-2.504z"/><path fill="#33125C" d="M561 663q1.723 1.432 3.438 2.875l1.933 1.617C568 669 568 669 569 671c-3.107-.336-4.604-.59-6.812-2.875C561 666 561 666 561 663"/><path fill="#33115F" d="M755 660c3.034 3.034 5 5.638 5 10-4.923-4.308-4.923-4.308-5.312-7.812z"/><path fill="#3C156E" d="M438 594h1c-.114 1.46-.242 2.917-.375 4.375-.07.812-.14 1.624-.21 2.46C438 603 438 603 436 605c-.286-7.429-.286-7.429 2-11"/><path fill="#41157A" d="M838 552c-2.957 1.643-5.62 2.644-9 3l-2-2c4.122-1.63 6.707-2.263 11-1"/><path fill="#401974" d="m472 534 3 1-7 8c0-3.999 1.726-5.802 4-9"/><path fill="#371568" d="M564 508h2c-1.312 3.937-2.92 6.227-6 9 .526-3.788 1.381-6.172 4-9"/><path fill="#462080" d="M233 455c4.392 1.464 4.88 3.978 7 8h-3c-4-5.257-4-5.257-4-8"/><path fill="#321061" d="M760 358c2.72.375 3.842.842 5.813 2.813C767 363 767 363 766.688 365.25L766 367l-1.875-2.937c-1.782-3.091-1.782-3.091-4.125-4.063z"/><path fill="#31105E" d="M1089 663h2c-.542 3.796-2.201 5.472-5 8l-3-1 2.438-2.375c2.549-2.345 2.549-2.345 3.562-4.625"/><path fill="#3F1573" d="m1328 638 8 1-1 2h-7z"/><path fill="#3E1670" d="m813 611 2 1-5 6-3-1z"/><path fill="#3F1576" d="M701 557c2.438 1.188 2.438 1.188 5 3 .813 2.688.813 2.688 1 5-4.687-3.613-4.687-3.613-6-5z"/><path fill="#421779" d="m1022 549 9 1c-2 2-2 2-3.945 2.195L1021 552z"/><path fill="#32115D" d="m841 473 1 3-5 5-3-1 2.375-1.812c2.77-2.099 2.77-2.099 4.625-5.188"/><path fill="#3F1B75" d="m302 345 3 1-6 8-1-4c1.938-2.75 1.938-2.75 4-5"/><path fill="#512592" d="m428 319 2 1-7 7-1-2c3.75-4.875 3.75-4.875 6-6"/><path fill="#461D82" d="M315 248c-2.963 1.646-5.613 2.653-9 3l-3-2c4.412-1.47 7.483-2.369 12-1"/><path fill="#552796" d="M412 717q3.51.43 7 1c-3.75 2-3.75 2-6 2l-1 2c-.562-1.937-.562-1.937-1-4z"/><path fill="#3D1470" d="M1219 582c2.094 3.402 2.18 6.053 2 10h-2c-1.125-6.625-1.125-6.625 0-10"/><path fill="#441B7B" d="M238 526c4.875 4.625 4.875 4.625 6 8-2.468-1.152-4.048-2.048-6-4z"/><path fill="#311060" d="M625 420c2.375.625 2.375.625 5 2 1.313 3.125 1.313 3.125 2 6h-2c-1.86-2.592-3.572-5.144-5-8"/><path fill="#351164" d="M640 335h2v2l2.438.875C647 339 647 339 648 341c-2.782-.376-4.588-.673-6.812-2.437C640 337 640 337 640 335"/><path fill="#461E7D" d="m223 327 2 2-5 7-1-3c1.938-3.187 1.938-3.187 4-6"/><path fill="#6832B8" d="M419 305c2 2 2 2 2.125 4.625L421 312l-4-1z"/><path fill="#421978" d="M996 692v2c-5.415 2.215-5.415 2.215-8.375 1.125L986 694q1.936-.504 3.875-1l2.18-.562C994 692 994 692 996 692"/><path fill="#30115A" d="M1118 664h2c1.29 1.531 1.29 1.531 2.625 3.5l1.352 1.969L1125 671c-2.375-.687-2.375-.687-5-2-1.312-2.625-1.312-2.625-2-5"/><path fill="#381268" d="M1239 625h1l1 9h-2c-1.125-6.75-1.125-6.75 0-9"/><path fill="#300D5A" d="M775 567c3 1 3 1 4.25 2.813.866 2.526.635 3.71-.25 6.187-4-6.75-4-6.75-4-9"/><path fill="#351065" d="M1138 552c3.27.564 4.826 1.5 7 4l-1 3-.75-1.875c-1.456-2.476-2.628-3.076-5.25-4.125z"/><path fill="#451C7E" d="m480 525 2 2-7 6c1.186-3.375 2.276-5.647 5-8"/><path fill="#331061" d="M871.188 445.375 873 446c-5.75 3.875-5.75 3.875-8 5 .313-1.875.313-1.875 1-4 3-2 3-2 5.188-1.625"/><path fill="#44187E" d="m896 380 4 2-2.875 1.375c-3.128 1.427-3.128 1.427-5.125 3.625.313-2.375.313-2.375 1-5z"/><path fill="#30105B" d="m645 315 3 1c-3.75 3-3.75 3-6 3v2h-2c1.37-3.161 1.99-3.993 5-6"/><path fill="#4E2388" d="M477 309c2.867.573 3.861.861 6 3l-1 3a105 105 0 0 1-5-4z"/><path fill="#5C2B9E" d="m997 476 3 1-1 3-4-1c1-2 1-2 2-3"/><path fill="#7345B9" d="M225 424h1v9c-2.09-4.18-2.166-4.804-1-9"/><path fill="#6436A2" d="m224 536 4 2-1 2h-3z"/><path fill="#7243B6" d="M224 440h3v3h-2l-1 2z"/><path fill="#5B239F" d="m993 579 3 1 1 3-4-2z"/><path fill="#5D259D" d="M1057 568h2v7h-1z"/><path fill="#54288B" d="M1045 353c1.125 3.75 1.125 3.75 0 6a88 88 0 0 1-1-5z"/><path fill="#5B259A" d="M1058 640h1v7h-1z"/><path fill="#5B249A" d="M1058 624h1v7h-1z"/><path fill="#5C239D" d="M1291 623h7v1h-7z"/><path fill="#5A249C" d="m1184 587 3 1-1 3z"/><path fill="#774ABE" d="m320 499 4 1-1 3v-2h-3z"/><path fill="#5A259B" d="M980 425h1v7h-1z"/><path fill="#572692" d="M980 338h1v7h-1z"/><path fill="#5A2598" d="M1188 650h1v5l-2-2z"/><path fill="#5D249B" d="M1058 648h1v6h-1z"/><path fill="#6538A3" d="m272 637 3 1-1 2-2-1z"/><path fill="#5B249C" d="M921 618h1v6h-1z"/><path fill="#5C239D" d="M857 621h3l-1 2-3-1z"/><path fill="#5C249C" d="M1187 620h2l-1 4z"/><path fill="#5C279D" d="M1056 516h1v6h-1z"/><path fill="#7848BE" d="m272 485 3 1-1 2-2-1z"/><path fill="#5C249D" d="m736 446 2 4-2 1z"/><path fill="#5A259A" d="M980 410h1v6h-1zM980 394h1v6h-1z"/><path fill="#572695" d="m949 369 3 1-1 2-2-1z"/><path fill="#62389C" d="m277 692 1 4-2-1z"/><path fill="#5A249A" d="M1114 625h1v5h-1z"/><path fill="#5E269E" d="M612 606h1v5h-1z"/><path fill="#5D269D" d="M612 567h1v5h-1z"/><path fill="#5B2899" d="m949 553 3 1-3 1z"/><path fill="#7949BE" d="M277 486h3v2l-3-1z"/><path fill="#7B4AC2" d="m432 484 4 2h-4z"/><path fill="#592895" d="m1040 448 1 2 2 1h-3z"/><path fill="#5C259B" d="M980 419h1v5h-1z"/><path fill="#5A2499" d="M980 403h1v5h-1z"/><path fill="#582595" d="M980 347h1v5h-1z"/><path fill="#7041B7" d="M416 331h1v5h-1z"/><path fill="#522489" d="M962 724h2v2h-2z"/><path fill="#5A2594" d="m752 664 3 1h-3z"/><path fill="#59249A" d="m990 640 4 1Z"/><path fill="#5A249E" d="m1223 626 1 4Z"/><path fill="#5D239E" d="m851 622 4 1Z"/><path fill="#5C229D" d="m865 621 3 1-3 1z"/><path fill="#5B239D" d="m1058 595 1 4Z"/><path fill="#5D269E" d="m612 591 1 4Z"/><path fill="#5A239D" d="m864 582 2 1-1 2z"/><path fill="#5E259F" d="m612 575 1 4Z"/><path fill="#5A259A" d="m928 569 2 1-2 2z"/><path fill="#562495" d="m1197 552 3 1h-3z"/><path fill="#54258E" d="m1293 547 4 1Z"/><path fill="#764BBE" d="m340 503 4 1Z"/><path fill="#592B95" d="m1070 498 2 2-2 1z"/><path fill="#5E299B" d="M829 484h3l-1 2z"/><path fill="#5D299E" d="m651 484 4 1Z"/><path fill="#5B259C" d="m980 433 1 4Z"/><path fill="#613499" d="m181 400 1 4Z"/><path fill="#5A2499" d="m932 396 4 1Z"/><path fill="#59229B" d="m809 381 1 4Z"/><path fill="#6737AC" d="m496 337 2 1-1 2z"/><path fill="#6D3DB3" d="M437 317v3Z"/><path fill="#7042B7" d="m403 313 3 1h-3z"/><path fill="#6D3FB5" d="m407 312 4 1Z"/><path fill="#60349F" d="m377 240 4 1Z"/><path fill="#522887" d="M994 725h2l-1 2z"/><path fill="#52268A" d="m977 725 3 1Z"/><path fill="#53278A" d="m969 725 3 1Z"/><path fill="#5B269C" d="m965 691 3 1Z"/><path fill="#5C269B" d="m993 669 2 1-2 1z"/><path fill="#562590" d="m618 669 2 2h-2z"/><path fill="#59249B" d="M921 626h2l-1 2z"/><path fill="#5C259C" d="m800 624 2 1-2 1z"/><path fill="#5A229A" d="m800 616 2 1-2 1z"/><path fill="#58249B" d="m814 608 2 1-2 1z"/><path fill="#5C269C" d="m1232 593 2 2h-2z"/><path fill="#5C269B" d="M1233 592h2l-1 2z"/><path fill="#5A249B" d="M920 585h2l-1 2z"/><path fill="#5C25A0" d="m998 582 2 2h-2z"/><path fill="#5A229C" d="m746 581 2 2h-2z"/><path fill="#5A239B" d="M1178 580h2l-1 2z"/><path fill="#5C259B" d="m673 579 2 1-2 1z"/><path fill="#5B239B" d="m659 579 3 1Z"/><path fill="#59259B" d="m988 578 3 1Z"/><path fill="#5A2699" d="M1113 565h2l-1 2z"/><path fill="#582499" d="M892 564h2l-1 2z"/><path fill="#5B2797" d="M1090 555h2l-1 2z"/><path fill="#5C299D" d="m1025 546 1 2-2-1z"/><path fill="#6A3DB1" d="M304 542h2l-1 2z"/><path fill="#5A269A" d="m1094 529 2 1-2 1z"/><path fill="#6235A0" d="M211 518h2l-1 2z"/><path fill="#6335A1" d="m201 501 2 2h-2z"/><path fill="#7B4CC2" d="m443 487 3 1Z"/><path fill="#7848BF" d="m275 486 2 2h-2z"/><path fill="#61349E" d="M192 487h2l-1 2z"/><path fill="#5F29A0" d="m656 485 3 1Z"/><path fill="#5F2BA0" d="m1027 484 3 1Z"/><path fill="#5D2C9D" d="m1021 484 3 1Z"/><path fill="#5E299C" d="m674 484 3 1Z"/><path fill="#5A2997" d="m926 482 2 1-2 1z"/><path fill="#5A269B" d="m980 443 2 1-2 1z"/><path fill="#61359D" d="M180 430h2l-1 2z"/><path fill="#7345B6" d="m224 409 2 2h-2z"/><path fill="#592498" d="m929 395 3 1Z"/><path fill="#7A4DC0" d="m289 360 2 2h-2z"/><path fill="#7248BA" d="m421 360 3 1Z"/><path fill="#6938AF" d="m506 358 2 2h-2z"/><path fill="#582894" d="m967 354 1 2-2-1z"/><path fill="#552693" d="m821 354 3 1Z"/><path fill="#7447BA" d="m348 324 3 1Z"/><path fill="#502686" d="m996 322 3 1Z"/><path fill="#60339C" d="m217 309 2 1-2 1z"/><path fill="#6838AE" d="m472 305 2 2h-2z"/><path fill="#5F359E" d="m225 299 1 2-2-1z"/><path fill="#5F349E" d="m225 296 3 1Z"/><path fill="#6336A1" d="M478 286h2l-1 2z"/><path fill="#6937AE" d="m321 261 3 1Z"/><path fill="#6737AD" d="m385 260 3 1Z"/><path fill="#6839AE" d="m326 260 3 1Z"/><path fill="#5C3097" d="m364 759 2 1Z"/><path fill="#5E3498" d="m344 758 2 1Z"/><path fill="#5E359B" d="m328 751 2 1Z"/><path fill="#5F3498" d="m323 748 2 1Z"/><path fill="#4F2485" d="m960 727 2 1Z"/><path fill="#51258B" d="m990 724 2 1Z"/><path fill="#512488" d="m965 724 2 1Z"/><path fill="#52258A" d="m959 723 2 1Z"/><path fill="#6A3BA6" d="m420 719 2 1Z"/><path fill="#62339E" d="m291 717 2 1Z"/><path fill="#613599" d="m280 707 2 1Z"/><path fill="#4B2A77" d="m1090 699 2 1Z"/><path fill="#5A259A" d="m979 693 2 1Z"/><path fill="#59269C" d="m995 689 2 1Z"/><path fill="#5A259A" d="m942 681 2 1Z"/><path fill="#56268C" d="m763 674 2 1Z"/><path fill="#592A8E" d="m570 674 2 1Z"/><path fill="#6535A8" d="m438 673 2 1Z"/><path fill="#59269A" d="m982 671 2 1Z"/><path fill="#5C259E" d="m959 669 2 1Z"/><path fill="#5A249C" d="m954 669 2 1Z"/><path fill="#582994" d="m560 668 2 1Z"/><path fill="#5A2894" d="m1090 667 2 1Z"/><path fill="#5A2499" d="m952 666 2 1Z"/><path fill="#653AA1" d="m272 653 2 1Z"/><path fill="#663AA2" d="m273 648 2 1Z"/><path fill="#5A239B" d="m982 641 2 1Z"/><path fill="#7040B3" d="m292 628 2 1Z"/><path fill="#5B259C" d="m1328 623 2 1Z"/><path fill="#5A239C" d="m1320 623 2 1Z"/><path fill="#5D269F" d="m1288 623 2 1Z"/><path fill="#5B249C" d="m846 623 2 1Z"/><path fill="#5D249E" d="m1184 619 2 1Z"/><path fill="#5A249B" d="m809 608 2 1Z"/><path fill="#5B259E" d="m830 600 2 1Z"/><path fill="#5C249E" d="m1314 596 2 1Z"/><path fill="#5A219F" d="m867 594 2 1Z"/><path fill="#5C269D" d="m960 591 2 1Z"/><path fill="#5B259C" d="m972 579 2 1Z"/><path fill="#58239A" d="m1166 578 2 1Z"/><path fill="#6A3AAD" d="m445 569 2 1Z"/><path fill="#582594" d="m1214 567 2 1Z"/><path fill="#5B299A" d="m947 555 2 1Z"/><path fill="#5A2896" d="m1118 553 2 1Z"/><path fill="#5C2999" d="m1087 552 2 1Z"/><path fill="#5C289D" d="m1011 552 2 1Z"/><path fill="#5A289B" d="m953 552 2 1Z"/><path fill="#5C2898" d="m946 552 2 1Z"/><path fill="#582395" d="m876 552 2 1Z"/><path fill="#5A2998" d="m1068 549 2 1Z"/><path fill="#5C279B" d="m731 548 2 1Z"/><path fill="#5C279C" d="m1074 539 2 1Z"/><path fill="#6A3BAC" d="m282 537 2 1Z"/><path fill="#5B2C9E" d="m578 504 2 1Z"/><path fill="#7547BD" d="m348 503 2 1Z"/><path fill="#784BBF" d="m327 502 2 1Z"/><path fill="#794BC2" d="m440 487 2 1Z"/><path fill="#5C2898" d="m784 485 2 1Z"/><path fill="#794CC1" d="m296 485 2 1Z"/><path fill="#5F2C9F" d="m1016 484 2 1Z"/><path fill="#5A279C" d="m910 484 2 1Z"/><path fill="#5B289B" d="m901 484 2 1Z"/><path fill="#7A4CC0" d="m294 484 2 1Z"/><path fill="#5E2C9A" d="m1036 483 2 1Z"/><path fill="#5C299A" d="m822 483 2 1Z"/><path fill="#5B279B" d="m875 477 2 1Z"/><path fill="#7546BC" d="m478 477 2 1Z"/><path fill="#5E2A9F" d="m611 461 2 1Z"/><path fill="#612CA1" d="m609 459 2 1Z"/><path fill="#582894" d="m1045 449 2 1Z"/><path fill="#5B279B" d="m1020 449 2 1Z"/><path fill="#59239A" d="m957 449 2 1Z"/><path fill="#5B269E" d="m672 449 2 1Z"/><path fill="#58229C" d="m894 428 2 1Z"/><path fill="#582899" d="m622 416 2 1Z"/><path fill="#7446B9" d="m226 416 2 1Z"/><path fill="#5A249D" d="m931 408 2 1Z"/><path fill="#5A249B" d="m864 408 2 1Z"/><path fill="#7245B6" d="m225 408 2 1Z"/><path fill="#59249B" d="m913 402 2 1Z"/><path fill="#58259B" d="m906 400 2 1Z"/><path fill="#5A259B" d="m912 383 2 1Z"/><path fill="#5B249D" d="m907 382 2 1Z"/><path fill="#562594" d="m816 357 2 1Z"/><path fill="#6838AF" d="m478 357 2 1Z"/><path fill="#55288E" d="m1040 355 2 1Z"/><path fill="#552692" d="m926 355 2 1Z"/><path fill="#6D3DB2" d="m460 355 2 1Z"/><path fill="#572494" d="m831 354 2 1Z"/><path fill="#5C269C" d="m662 343 2 1Z"/><path fill="#6838AD" d="m499 343 2 1Z"/><path fill="#6B3CAF" d="m493 335 2 1Z"/><path fill="#7143BA" d="m422 335 2 1Z"/><path fill="#6A3CAF" d="m489 331 2 1Z"/><path fill="#53268E" d="m984 328 2 1Z"/><path fill="#7449BB" d="m368 328 2 1Z"/><path fill="#61349F" d="m241 283 2 1Z"/><path fill="#6C3BB1" d="m422 271 2 1Z"/><path fill="#6A37AF" d="m420 270 2 1Z"/><path fill="#6B37AF" d="m418 269 2 1Z"/><path fill="#5F34A0" d="m453 267 2 1Z"/><path fill="#6736AC" d="m400 263 2 1Z"/><path fill="#6735B0" d="m313 263 2 1Z"/><path fill="#62379F" d="m281 256 2 1Z"/><path fill="#5E339C" d="m374 240 2 1Z"/><path fill="#6335A3" d="m336 240 2 1Z"/></svg>