<svg xmlns="http://www.w3.org/2000/svg" width="2048" height="2048"><path fill="#F5F6F6" d="M0 0h2048v2048H0z"/><path fill="#DDE8EB" d="m1095 478 2.59.551c35.4 7.8 65.819 25.555 92.89 49.153 1.383 1.179 2.807 2.309 4.235 3.433 2.064 1.682 3.706 3.329 5.41 5.363 2.052 2.414 4.125 4.762 6.313 7.055 16.509 17.325 29.36 37.877 39.562 59.445l1.207 2.512c5.868 12.647 9.506 25.99 12.793 39.488l.493 2.019c1.92 8 2.909 15.786 3.507 23.981l2.537-.08c51.143-1.373 93.536 10.782 131.463 46.08l2.055 1.89c27.643 26.422 44.917 67.87 46.132 105.86.466 24.776-3.98 47.648-14.187 70.25l-1.559 3.5A542 542 0 0 1 1427 906h-2l-.246 2.086c-.945 3.651-2.746 6.443-4.816 9.539l-1.216 1.85c-10.35 15.619-10.35 15.619-16.722 21.525l-1.812 1.906C1386.165 957.547 1369.23 968.382 1351 977l-2.797 1.402c-11.85 5.768-24.966 8.106-37.793 10.766l-1.996.415a105.6 105.6 0 0 1-18.051 1.556l-2.208.008q-3.645.011-7.29.011l-5.292.015q-7.258.02-14.517.028-7.832.013-15.664.034-13.566.032-27.131.056-19.614.035-39.227.08-31.823.071-63.644.132a263374 263374 0 0 0-84.791.174q-79.3.17-158.599.323l-1.641 2.905-2.166 3.815-1.078 1.91a111 111 0 0 1-9.053 13.558l-1.554 2.028A722 722 0 0 1 852 1022l-2.348 3c-7.49 9.352-15.473 18.663-24.699 26.352a98 98 0 0 0-4.031 3.609c-13.392 12.617-29.21 22.584-44.922 32.039l-2.152 1.3c-13.672 8.156-28.21 14.497-42.848 20.7l-2.673 1.217C726 1111 726 1111 723 1110l2.875-2.687c28.618-28.847 44.754-70.154 47.68-110.215l.257-3.48L774 991l-2.24.032c-27.648.34-27.648.34-39.76-2.032l-2.133-.407c-22.38-4.34-44.52-12.833-62.867-26.593l-1.64-1.205c-34.626-25.54-56.348-62.468-62.837-104.982-6.067-44.195 5.125-87.275 31.956-122.866 3.867-4.949 8.132-9.457 12.521-13.947l2.605-2.793C669.045 695.849 699.441 677.24 728 675l-.14-2.027c-.823-21.881 8.9-44.088 23.452-60.098 17.339-18.479 39.307-31.95 65.145-33.187 14.819-.437 27.378 1.084 40.543 8.312h2l.996-1.95c6.328-12.02 14.179-22.748 23.004-33.05l1.969-2.309C900.697 532.756 917.864 517.725 938 505l1.979-1.262C956.474 493.316 974.108 485.827 993 481l2.043-.542c4.957-1.306 9.935-2.432 14.957-3.458l2.18-.462c26.66-5.422 56.362-4.261 82.82 1.462"/><path fill="#99DDE5" d="m891 560.867 2.438-.004 2.562.012 2.563-.012 2.437.004 2.25.004C905 561 905 561 906 562c1.917-.092 3.834-.2 5.75-.312 8.157-.22 15.92 1.4 23.875 3.062l3.679.764C960 570 960 570 966 574a80 80 0 0 0 3.996 1.281c5.662 1.83 10.81 4.454 16.067 7.219l3.047 1.599c8.771 4.686 16.936 9.945 24.89 15.901l2.672 1.973c5.31 4.087 10.225 8.604 15.14 13.152l1.925 1.777c3.726 3.495 7.166 7.027 10.263 11.098v2l-2.281.629c-28.18 8.173-52.164 23.798-73.719 43.371l-2.336 2.113C951.064 690.03 939.958 708.084 931 726l-1.535 3.07c-2.673 5.595-4.364 10.827-5.465 16.93h-2a712 712 0 0 0-3.465 15.479 539 539 0 0 1-1.019 4.707c-5.12 23.683-3.921 49.34 1.484 72.814l.945 4.398c5.08 22.664 15.568 45.305 30.245 63.353 1.717 2.134 3.37 4.306 5.02 6.491 3.654 4.7 7.63 8.944 11.852 13.133l2.246 2.23c6.506 6.37 13.279 12.116 20.692 17.395l3.172 2.281c23.01 15.634 50.748 26.467 78.691 27.543 3.137.176 3.137.176 5.434.67 19.004 3.558 40.314.342 58.703-4.494l2.328-.599C1179.75 960.46 1216.945 932.873 1240 897l1.38-2.127c17.783-27.758 27.859-61.668 27.745-94.623l.012-3.344c.023-13.292.023-13.292-2.2-26.343-.808-3.074-1.133-5.42-.937-8.563 2 1 2 1 3.227 4.438q.704 2.28 1.398 4.562c3.023 9.43 6.853 18.2 11.375 27 .63 1.227.63 1.227 1.271 2.48 5.695 10.99 11.709 21.051 19.729 30.52l1.54 1.855c13.55 16.299 28.48 28.6 47.46 38.145l2.898 1.52c12.898 6.416 26.847 9.556 41.098 11.12 3.004.36 3.004.36 4.875.888 2.493.553 4.649.504 7.2.386l2.968-.133 3.086-.156 3.016-.133A296 296 0 0 0 1436 883c-2.157 8.104-5.347 15.457-9 23h-2l-.246 2.086c-.945 3.651-2.746 6.443-4.816 9.539l-1.216 1.85c-10.35 15.619-10.35 15.619-16.722 21.525l-1.812 1.906C1386.165 957.547 1369.23 968.382 1351 977l-2.797 1.402c-11.85 5.768-24.966 8.106-37.793 10.766l-1.996.415a105.6 105.6 0 0 1-18.051 1.556l-2.208.008q-3.645.011-7.29.011l-5.292.015q-7.258.02-14.517.028-7.832.013-15.664.034-13.566.033-27.131.056-19.614.035-39.227.08-31.823.071-63.644.132a263374 263374 0 0 0-84.791.174q-79.3.17-158.599.323l-1.641 2.905-2.166 3.815-1.078 1.91a111 111 0 0 1-9.053 13.558l-1.554 2.028A722 722 0 0 1 852 1022l-2.348 3c-7.49 9.352-15.473 18.663-24.699 26.352a98 98 0 0 0-4.031 3.609c-13.392 12.617-29.21 22.584-44.922 32.039l-2.152 1.3c-13.672 8.156-28.21 14.497-42.848 20.7l-2.673 1.217C726 1111 726 1111 723 1110l2.875-2.687c28.618-28.847 44.754-70.154 47.68-110.215l.257-3.48L774 991c-.74.01-1.479.02-2.24.032-27.648.34-27.648.34-39.76-2.032l-2.133-.407c-22.38-4.34-44.52-12.833-62.867-26.593l-1.64-1.205c-34.626-25.54-56.348-62.468-62.837-104.982-6.067-44.195 5.125-87.275 31.956-122.866 3.867-4.949 8.132-9.457 12.521-13.947l2.605-2.793C669.045 695.849 699.441 677.24 728 675l-.14-2.027c-.823-21.881 8.9-44.088 23.452-60.098 17.339-18.479 39.307-31.95 65.145-33.187 14.819-.437 27.378 1.084 40.543 8.312h2l.996-1.95C868.94 569.06 868.94 569.06 875 563c2.84-.324 5.68-.513 8.531-.719 2.962-.337 4.292-1.409 7.469-1.414"/><path fill="#16223A" d="M1191.667 674.414c3.342 2.932 6.573 5.97 9.763 9.067 1.54 1.49 3.1 2.956 4.664 4.421 28.994 27.573 45.858 68.23 47.11 108 .63 40.714-13.93 83.78-42.509 113.375L1208 912l-2.57 2.754c-27.82 29.19-68.508 46.026-108.582 47.562-43.95.831-85.056-14.887-116.848-45.316l-2.371-2.18C965.29 903.094 955.68 889.125 948 874l-.96-1.865C930.923 840.453 925.763 803.815 933 769l.488-2.428c6.098-29.546 20.83-55.765 41.512-77.572l2.555-2.715c55.78-57.64 152.371-64.259 214.112-11.87"/><path fill="#7CB8CC" d="M922 742c1.11 3.78.677 5.549-.75 9.25-2.631 7.438-4.082 14.957-5.25 22.75l-.292 1.941c-.983 7.526-.994 15.107-1.02 22.684l-.008 2.203c-.005 13.072 1.382 25.414 4.32 38.172l.945 4.398c5.08 22.664 15.568 45.305 30.245 63.353 1.717 2.134 3.37 4.306 5.02 6.491 3.654 4.7 7.63 8.944 11.852 13.133l2.246 2.23c6.506 6.37 13.279 12.116 20.692 17.395l3.172 2.281c23.01 15.634 50.748 26.467 78.691 27.543 3.137.176 3.137.176 5.434.67 19.004 3.558 40.314.342 58.703-4.494l2.328-.599C1179.75 960.46 1216.945 932.873 1240 897l1.38-2.127c17.783-27.758 27.859-61.668 27.745-94.623l.012-3.344c.023-13.292.023-13.292-2.2-26.343-.808-3.074-1.133-5.42-.937-8.563 2 1 2 1 3.227 4.438q.704 2.28 1.398 4.562c3.023 9.43 6.853 18.2 11.375 27l1.271 2.48c5.695 10.99 11.709 21.051 19.729 30.52l1.54 1.855c13.55 16.299 28.48 28.6 47.46 38.145l2.898 1.52c12.898 6.416 26.847 9.556 41.098 11.12 3.004.36 3.004.36 4.875.888 2.493.553 4.649.504 7.2.386l2.968-.133 3.086-.156 3.016-.133A296 296 0 0 0 1436 883c-2.157 8.104-5.347 15.457-9 23h-2l-.246 2.086c-.945 3.651-2.746 6.443-4.816 9.539l-1.216 1.85c-10.35 15.619-10.35 15.619-16.722 21.525l-1.812 1.906C1386.165 957.547 1369.23 968.382 1351 977l-2.797 1.402c-11.85 5.768-24.966 8.106-37.793 10.766l-1.996.415a105.6 105.6 0 0 1-18.051 1.556l-2.208.008q-3.645.011-7.29.011l-5.292.015q-7.258.02-14.517.028-7.832.013-15.664.034-13.566.032-27.131.056-19.614.035-39.227.08-31.823.071-63.644.132a263374 263374 0 0 0-84.791.174q-79.3.17-158.599.323l-1.641 2.905-2.166 3.815-1.078 1.91a111 111 0 0 1-9.053 13.558l-1.554 2.028A722 722 0 0 1 852 1022l-2.348 3c-7.49 9.352-15.473 18.663-24.699 26.352a98 98 0 0 0-4.031 3.609c-13.392 12.617-29.21 22.584-44.922 32.039l-2.152 1.3c-13.672 8.156-28.21 14.497-42.848 20.7l-2.673 1.217C726 1111 726 1111 723 1110l2.875-2.687c28.618-28.847 44.754-70.154 47.68-110.215l.257-3.48L774 991c-.74.01-1.479.02-2.24.032-27.648.34-27.648.34-39.76-2.032l-2.133-.407c-22.38-4.34-44.52-12.833-62.867-26.593l-1.64-1.205c-28.456-20.99-47.371-48.77-57.798-82.42l-.786-2.513c-1.417-4.795-2.05-8.863-1.776-13.862l9 5v2l1.61.805 8.64 4.32 1.848.917c3.292 1.638 6.566 3.3 9.816 5.02 8.504 4.458 16.887 7.842 26.142 10.4 1.889.523 3.77 1.073 5.651 1.624 14.142 4.006 28.595 6.395 43.293 6.914l2.046.083C743.133 900.16 777.906 894.89 804 879l3.125-1.312c9.904-4.175 18.55-10.022 27.133-16.396a634 634 0 0 1 4.96-3.632C867.672 836.497 888.072 808.82 905 778l1.15-2.072c6.09-11.003 11.152-22.266 15.85-33.928"/><path fill="#172134" d="M598 1423h22c6.565 11.894 12.98 23.8 19.004 35.975a773 773 0 0 0 9.853 19.168c4.317 8.15 8.542 16.347 12.768 24.544l1.109 2.151q3.135 6.081 6.266 12.162c5.294-9.984 10.533-19.993 15.656-30.066l1.45-2.848q2.935-5.77 5.862-11.546c5.758-11.355 11.634-22.609 17.895-33.696 2.913-5.185 5.532-10.497 8.137-15.844h22v137h-18l-1-106c-4.62 8.663-9.208 17.289-13.559 26.082-2.852 5.753-5.727 11.495-8.6 17.237l-4.853 9.704-1.982 3.964-.999 1.998L676 1543h-14l-1.836-3.707c-4.511-9.082-9.089-18.119-13.842-27.076-5.37-10.147-10.583-20.375-15.814-30.594l-2.238-4.365-.988-1.934c-3.333-6.496-6.818-12.89-10.282-19.324l-1 104h-18z"/><path fill="#162134" d="M1249 1423c15 0 15 0 19.313 3.688A160 160 0 0 1 1272 1432a805 805 0 0 0 4.688 6.063l2.55 3.355c2.97 3.881 6.046 7.672 9.137 11.457a1925 1925 0 0 1 25.42 31.799c3.424 4.368 6.932 8.662 10.455 12.951 7.478 9.279 14.6 18.841 21.75 28.375l1-103h18v136c-16 0-16 0-19.617-2.387l-2.258-3.3-1.295-1.782a133 133 0 0 1-2.587-3.705c-1.932-2.838-4.063-5.5-6.18-8.201q-1.237-1.621-2.47-3.246c-2.786-3.652-5.653-7.236-8.53-10.816A1485 1485 0 0 1 1310.5 1511a1792 1792 0 0 0-13.022-16.397c-3.781-4.718-7.52-9.47-11.239-14.237a514 514 0 0 0-7.817-9.73l-1.819-2.212a903 903 0 0 0-3.54-4.271l-1.606-1.95-1.438-1.73C1269 1459 1269 1459 1269 1457h-2v102h-18z"/><path fill="#182236" d="M1090 1435c2.245 2.227 4.08 4.473 6 7a1032 1032 0 0 1-4.375 6l-1.25 1.734c-1.077 1.46-2.222 2.867-3.375 4.266h-2v-2l-1.508-.75a1057 1057 0 0 1-6.172-3.125l-4.195-2.125-2.105-1.078c-14.114-7.123-28.323-7.612-43.434-3.188-5.263 1.858-9.922 4.213-14.586 7.266l-1.914 1.227c-8.983 6.686-16.228 19.884-18.086 30.773-1.342 16.524.999 32.771 11.992 45.906 8.89 9.271 20.404 16.786 33.54 17.43 10.867.2 20.157-.672 30.468-4.336l3.777-.805c4.155-1.308 7.116-2.306 9.223-6.195 1.961-9.565 1.216-19.293 1-29h-35v-16h52c.253 7.406.472 14.797.604 22.205q.082 3.774.226 7.547c.77 20.845.77 20.845-3.042 26.569-2.867 2.13-5.455 3.425-8.788 4.679a218 218 0 0 0-4.258 2.426q-1.924.962-3.867 1.887l-2.079 1.01c-4.824 2.306-9.604 4.35-14.796 5.677l-2.094.613c-17.32 4.36-37.216 1.578-52.906-6.613-18.576-11.233-29.654-26.027-35-47-3.091-19.994-.054-38.84 11-56 10.471-14.196 26.116-25.367 43.636-28.695 21.38-2.756 43.634-.383 61.364 12.695"/><path fill="#1A2538" d="M1433 1423h98v17h-80v42h71v16h-71v45h82v17h-100z"/><path fill="#CBDFE7" d="M1026 837h2c1.3 1.322 1.3 1.322 2.867 3.238 5.084 5.978 10.692 11.428 16.258 16.95l3.246 3.232q2.982 2.97 5.97 5.936a1653 1653 0 0 1 10.886 10.906l3.398 3.426c.572.58 1.145 1.16 1.734 1.76l1.68 1.689 1.506 1.522c1.622 1.565 1.622 1.565 4.455 3.341v2l1.75.688c2.845 1.66 4.187 3.733 6.25 6.312 1.19 1.077 2.402 2.13 3.627 3.168 4.394 3.8 8.501 7.832 12.592 11.953l2.252 2.257q3.517 3.526 7.029 7.06l4.805 4.818q5.85 5.868 11.695 11.744c-7.512 7.512-25.838 6.392-35.712 6.44-11.412-.014-22.231-.498-33.288-3.44l-3.578-.809c-11.126-2.663-20.54-6.838-31.422-11.191z"/><path fill="#C5E2EA" d="M963 734h90c-1.648 3.295-2.582 4.832-5.054 7.301l-1.899 1.912-2.08 2.062-2.193 2.2q-3.594 3.596-7.2 7.181l-5 4.999a8740 8740 0 0 1-10.494 10.47q-6.725 6.702-13.437 13.417-5.163 5.163-10.333 10.32l-4.953 4.948q-3.465 3.46-6.936 6.915l-2.062 2.062c-3.315 3.294-6.66 6.344-10.359 9.213a92 92 0 0 0-3.312 3.813c-3.043 3.567-6.308 6.627-9.891 9.644-1.821 1.51-1.821 1.51-3.406 3.242C953 835 953 835 951 835a2382 2382 0 0 1-1.437-7.437l-.409-2.084c-6.124-32.116.064-62.191 13.846-91.479"/><path fill="#E6E8E9" d="m1090.25 655.75 2.18-.002c11.103.017 21.766.53 32.57 3.252l2.123.52c10.921 2.75 20.39 6.892 30.877 11.48v91c-4.076-2.038-5.66-3.612-8.61-6.984-4.856-5.442-9.923-10.638-15.093-15.782l-2.342-2.332q-3.6-3.579-7.205-7.152a7833 7833 0 0 1-9.578-9.516l-2.172-2.147c-3.268-3.252-6.434-6.535-9.441-10.03-3.995-4.632-8.315-8.902-12.668-13.194l-5.223-5.185q-4.079-4.042-8.164-8.078a4220 4220 0 0 1-7.926-7.862l-2.471-2.43-2.297-2.287-2.016-1.993c-1.943-2.197-3.361-4.475-4.794-7.028a1351 1351 0 0 1 5.125-1.437l2.883-.81c8.044-2.026 16.006-1.996 24.242-2.003"/><path fill="#E3E1E3" d="m1231 765 2 1c4.384 13.956 4.924 29.513 4 44l-.167 2.634c-1.393 18.48-7.576 35.433-14.833 52.366h-90c1.988-3.977 3.802-6.044 6.921-9.148l1.514-1.515c1.648-1.647 3.304-3.287 4.96-4.927l3.453-3.444q4.546-4.534 9.103-9.054 4.615-4.588 9.223-9.183 8.126-8.097 16.264-16.18c3.331-3.314 6.658-6.632 9.957-9.979l2.418-2.445 2.394-2.43a143 143 0 0 1 6.398-5.8c5.57-4.831 10.708-10.1 15.895-15.332l3.07-3.084q3.72-3.736 7.43-7.479"/><path fill="#C3E2EC" d="M1018 784v140c-29.14-11.656-47.925-41.502-60.59-68.598-1.432-3.454-2.458-6.792-3.41-10.402a1250 1250 0 0 1 5.375-5.5l1.54-1.59c1.323-1.342 2.701-2.63 4.085-3.91h2l.688-1.712c1.683-2.935 3.754-4.671 6.304-6.901 5.445-4.857 10.63-9.935 15.766-15.117l2.308-2.325q4.75-4.792 9.489-9.596 3.502-3.544 7.015-7.08l2.175-2.215 2.005-2.016 1.762-1.783C1016 784 1016 784 1018 784"/><path fill="#D7E6E9" d="M1049 664a105 105 0 0 1 6.054 5.697l1.804 1.799a1485 1485 0 0 1 5.876 5.91l4.086 4.092q4.279 4.286 8.544 8.585 5.483 5.522 10.983 11.026a8636 8636 0 0 1 8.426 8.452q2.024 2.034 4.052 4.067 2.823 2.834 5.639 5.675l1.71 1.713c3.826 3.87 3.826 3.87 3.826 4.984H968c1.83-4.574 3.911-7.798 6.938-11.562l1.48-1.855c11.98-14.847 50.789-56.765 72.582-48.583"/><path fill="#DDDEE4" d="M1076 873h141c-6.122 11.02-13.459 19.805-22 29l-1.82 2.02c-11 11.69-25.076 19.647-39.18 26.98l-1.982 1.063a277 277 0 0 1-5.33 2.75c-.987.5-1.973 1.002-2.989 1.519-2.699.668-2.699.668-4.988-.426-3.252-2.286-6-4.924-8.786-7.739l-1.776-1.77a2104 2104 0 0 1-5.762-5.78l-4.014-4.015q-4.197-4.2-8.385-8.408a6163 6163 0 0 0-10.778-10.798 9250 9250 0 0 1-8.274-8.287q-1.987-1.992-3.977-3.983-2.769-2.773-5.53-5.552l-1.677-1.675C1076 874.114 1076 874.114 1076 873"/><path fill="#162134" d="M891.059 1446.98c9.971 7.233 17.864 15.1 21.941 27.02-.344 2.863-.344 2.863-1 5l-3 1v-4c-3.247 3.168-6.23 6.396-9.062 9.938-4.14 5.117-8.39 10.13-12.688 15.114A749 749 0 0 0 878 1512l4 1v2c-7.318 1.295-14.593 2.377-22 3l-1 5-1.363-1.031c-5.83-4.393-11.728-8.685-17.637-12.969v14c-2.86-4.289-3.156-7.36-3.316-12.418l-.127-3.799-.12-3.97-.13-4.006q-.16-4.904-.307-9.807h-2c1-5 1-5 10-15h-34c1.655-9.932 8.297-17.656 16-24 19.102-13.42 44.913-16.064 65.059-3.02"/><path fill="#E9E8E7" d="M1167 677c20.022 11.278 35.638 27.806 48 47 .677 1.038 1.354 2.075 2.05 3.145 3.53 5.718 6.356 11.694 9.013 17.855l.981 2.215c2.141 5.186 2.141 5.186 1.382 7.643-2.03 3.05-4.553 5.538-7.145 8.104l-1.77 1.775a2117 2117 0 0 1-5.796 5.779l-4.02 4.018a5626 5626 0 0 1-8.426 8.403 6195 6195 0 0 0-10.821 10.801 9280 9280 0 0 1-8.3 8.287l-3.992 3.986q-2.78 2.775-5.566 5.545l-1.68 1.68C1167.114 817 1167.114 817 1166 817q-.047-13.906-.062-27.812l-.003-2.145c-.027-25.539.202-51.07.565-76.605l.036-2.55q.22-15.444.464-30.888"/><path fill="#1D2432" d="m809 1472 2 1c2.554.087 5.08.116 7.633.098l2.278-.005c2.405-.005 4.81-.018 7.214-.03l4.887-.014q5.994-.017 11.988-.049-1.425 1.931-2.855 3.86l-1.607 2.17c-1.538 1.97-1.538 1.97-3.85 4.22-1.85 1.919-2.316 3.143-2.688 5.75h2l.168 2.523q.31 4.638.632 9.275.203 2.993.401 5.985l.264 3.799.238 3.507c.196 2.973.196 2.973 1.297 5.911l1-11c2.932 1.466 4.968 2.623 7.453 4.602l1.875 1.484 1.922 1.539 1.969 1.563q2.394 1.902 4.781 3.812v-3c2.489-2.489 3.558-2.355 7.008-2.633l2.988-.254 3.129-.238 3.152-.262q3.86-.318 7.723-.613v-2h-5c4.112-5.711 8.559-11.034 13.17-16.34 4.506-5.212 8.794-10.58 12.997-16.037 1.233-1.577 2.528-3.105 3.833-4.623h2l2 2 2-2c4.782 9.364 4.319 22.497 1.8 32.621-4.948 14.702-14.886 26.383-28.8 33.379-3.617 1.52-7.258 2.824-11 4l-3 1c-17.206 1.488-32.066-.03-46-11l-2.113-1.621c-9.732-7.936-16.409-19.853-17.887-32.379-.605-10.276-.682-20.248 3-30"/><path fill="#172335" d="M1164 1424h17v135h-17z"/><path fill="#131E30" d="M512 1424h17v135h-17z"/><path fill="#5EC4D6" d="M1085 1288c-1.074 2.915-1.778 4.778-4 7-3.859-.523-7.284-2.434-10.781-4.062-4.773-2.017-9.398-2.184-14.532-2.25l-2.224-.088c-5.633-.065-8.821 1.196-13.463 4.4-2.444 2.917-2.956 4.651-3.437 8.438.537 4.374 1.51 6.268 4.437 9.562 7.656 4.427 15.966 6.488 24.445 8.824 9.07 2.641 16.142 6.165 21.555 14.176 2.03 6.093 2.114 13.463-.562 19.375-4.016 6.777-9.853 10.645-17.438 12.625-3.573.431-7.092.477-10.687.438l-2.947-.026c-12.963-.303-22.526-4.459-33.366-11.412 1.27-3.914 2.512-5.79 6-8l1.512 1.172c10.655 7.728 22.423 10.356 35.488 8.828 2.65-.834 4.933-1.792 7.363-3.125C1074 1353 1074 1353 1076 1353c2.004-4.134 2.408-7.425 2-12-1.84-4.166-4.307-6.402-8-9a91 91 0 0 0-7.562-2.5l-4.29-1.281-2.13-.625c-22.568-6.639-22.568-6.639-27.21-15.086-2.03-6.297-1.97-14.156.192-20.446 3.735-5.718 8.936-10.536 15.55-12.628 14.857-2.63 27.819.883 40.45 8.566"/><path fill="#60C3D4" d="M923 1280h9l.025 1.907q.131 9.88.292 19.76.058 3.681.105 7.362c.046 3.54.104 7.08.164 10.62l.035 3.29c.188 9.825.768 19.294 7.379 27.061 6.856 6.057 13.319 6.44 22.035 6.273 6.786-.468 10.632-2.624 15.278-7.46 5.958-7.842 6.147-16.404 6.199-25.942l.054-3.728c.054-3.902.088-7.803.121-11.706q.049-3.984.104-7.97.126-9.734.209-19.467h9c.102 7.576.172 15.153.22 22.73q.03 3.857.082 7.715c.452 34.272.452 34.272-8.61 44.88-8.125 8.048-15.882 10.937-27.192 11.112-6.615-.045-11.852-.749-17.5-4.437l-2.102-1.25c-8.515-5.613-12.017-13.826-14.305-23.463-.98-5.433-.962-10.766-.886-16.271l.013-3.581c.017-3.729.054-7.457.092-11.185q.024-3.82.042-7.64.049-9.306.146-18.61"/><path fill="#ABBBC7" d="m1026 837 2 1-1 74 5 2q2.067.928 4.125 1.875c5.201 2.317 10.48 4.304 15.875 6.125l2.477.848c17.432 5.37 41.18 7.174 58.886 3.238 4.016-.095 4.434.127 7.262 2.66a130 130 0 0 1 3.375 3.692l1.77 1.892A280 280 0 0 1 1130 939c-7.512 7.512-25.838 6.392-35.712 6.44-11.412-.014-22.231-.498-33.288-3.44l-3.578-.809c-11.126-2.663-20.54-6.838-31.422-11.191z"/><path fill="#C1C3CB" d="M1076 873h141c-6.122 11.02-13.459 19.805-22 29l-1.82 2.02c-11 11.69-25.076 19.647-39.18 26.98l-1.982 1.063a277 277 0 0 1-5.33 2.75c-.987.5-1.973 1.002-2.989 1.519-2.699.668-2.699.668-5.222-.371-2.805-2.22-5.294-4.586-7.79-7.149l-2.675-2.73L1126 924l1-2a226 226 0 0 1 5.74-1.419c25.55-6.568 48.174-25.474 64.26-45.581l-121-1z"/><path fill="#A5C6D3" d="M968 831h1l.191 2.063c2.45 19.392 14.022 35.899 25.809 50.937l1.54 1.977c2.25 2.803 4.584 4.893 7.46 7.023v2l1.773.809c2.263 1.21 3.946 2.545 5.852 4.254 1.793 1.6 3.222 2.86 5.375 3.937v-67h1v87c-29.14-11.656-47.925-41.502-60.59-68.598-1.432-3.454-2.458-6.792-3.41-10.402a1250 1250 0 0 1 5.375-5.5l1.54-1.59c1.323-1.342 2.701-2.63 4.085-3.91h2z"/><path fill="#CFD2D7" d="m1090.25 655.75 2.18-.002c11.103.017 21.766.53 32.57 3.252l2.123.52c10.829 2.726 20.739 6.822 30.877 11.48v19c-3.774-.755-5.775-1.213-8.977-2.89-8.167-4.148-16.135-7.793-25.023-10.11l-2.24-.59c-10.86-2.641-21.833-2.545-32.947-2.472q-2.022.008-4.042.013-4.885.018-9.771.049l1 3c-3 0-3 0-5.812-2.45a319 319 0 0 1-3.188-3.237l-1.617-1.608c-2.981-3.022-5.365-5.928-7.383-9.705a1351 1351 0 0 1 5.125-1.437l2.883-.81c8.044-2.026 16.006-1.996 24.242-2.003"/><path fill="#AFC7D1" d="M1049 664a98 98 0 0 1 5.75 5.563l1.535 1.576c1.245 1.28 2.481 2.57 3.715 3.861-2.445 2.901-4.643 3.705-8.25 4.75-24.734 7.888-48.108 23.395-63.75 44.25l67 1v1h-87c1.83-4.574 3.911-7.798 6.938-11.562l1.48-1.855C988.374 697.765 1027.246 655.78 1049 664"/><path fill="#A6C7D3" d="M963 734h90l-1 2-72-1-2 6q-1.339 2.55-2.75 5.063c-6.21 12.113-10.422 26.997-10.383 40.617l-.003 2.215q0 2.312.006 4.624.005 3.512-.007 7.024 0 2.256.004 4.512l-.006 2.096c.02 4.37.474 8.536 1.139 12.849 0 3 0 3-2.52 5.664q-1.635 1.493-3.293 2.961l-1.658 1.523c-2.484 2.241-4.323 3.783-7.529 4.852a2382 2382 0 0 1-1.437-7.437l-.409-2.084c-6.124-32.116.064-62.191 13.846-91.479"/><path fill="#CDCACF" d="m1231 765 2 1c4.384 13.956 4.924 29.513 4 44l-.167 2.634c-1.393 18.48-7.576 35.433-14.833 52.366h-90l1-2 72 1 1-5a71 71 0 0 1 1.707-4.117l1.023-2.318 1.082-2.44c3.574-8.249 6.232-16.35 8.188-25.125l.535-2.248c.563-3.333.595-6.508.598-9.889l.003-2.059q0-2.152-.006-4.304c-.005-2.163 0-4.327.007-6.49q0-2.104-.004-4.21l.003-2.072c-.023-3.869-.378-7.498-1.046-11.302-.326-2.77-.35-3.972 1.047-6.406 1.657-1.895 3.386-3.511 5.3-5.145l1.893-1.742A222 222 0 0 1 1231 765"/><path fill="#D6D4D7" d="M1167 677c20.056 11.016 35.722 27.936 48 47 .677 1.038 1.354 2.075 2.05 3.145 3.53 5.718 6.356 11.694 9.013 17.855l.981 2.215c2.112 5.114 2.112 5.114 1.452 7.957-2.046 2.5-4.204 4.799-6.496 7.078l-2.687 2.703C1217 767 1217 767 1215 767l-.623-1.614c-7.548-19.446-15.711-37-29.752-52.636l-1.354-1.51c-2.372-2.54-4.708-4.622-7.634-6.506-8.119-5.358-8.119-5.358-9.157-10.118-.514-5.898-.147-11.743.52-17.616"/><path fill="#60C3D3" d="M842 1280h44c.042 7.939.082 15.877.104 23.815q.014 5.547.047 11.092.032 5.349.039 10.699c.005 2.011.02 4.023.037 6.035 0 10.956-1.108 19.897-8.899 28.125-6.311 5.752-12.599 6.762-21.004 6.609-7.824-.883-13.427-4.754-18.46-10.629-.864-1.746-.864-1.746-.606-3.851.863-2.204 1.97-3.354 3.742-4.895 3.723 1.241 5.241 3.241 8 6 3.9 2.827 6.707 3.432 11.5 3.438l3.344.058c3.961-.623 5.438-1.55 8.156-4.496 3.324-6.922 3.47-13.214 3.512-20.812l.054-3.666c.054-3.84.088-7.681.121-11.522q.05-3.92.104-7.84c.087-6.387.147-12.773.209-19.16h-34z"/><path fill="#64C5D5" d="M1108 1280h67v8h-29v77h-9v-76h-29z"/><path fill="#7AA7B5" d="M897.125 987.87q2.232 0 4.464-.005 6.047-.005 12.093 0 5.131.003 10.263 0 13.721-.006 27.442.004 9.974.007 19.947.009c47.434.01 94.863.112 142.293.766l2.54.035q5.925.082 11.846.172c7.379.109 14.753.159 22.132.11l2.223-.012c3.459-.02 6.917-.05 10.375-.1l3.619-.027 3.17-.041C1172 989 1172 989 1174 991l-302 1-8 14c-2.02 2.913-4.015 5.716-6.188 8.5l-1.498 1.969c-3.006 3.93-6.123 7.75-9.314 11.531l-1-2c1.878-4.694 4.422-7.51 8-11 2.174-3.02 3.824-5.471 5-9l1.348-1.242c2.799-2.978 4.34-7.072 5.9-10.84 1.062-2.116 1.957-3.362 3.752-4.918 8.703-1.883 18.258-1.143 27.125-1.13"/><path fill="#F4F5F5" d="M908 1512c-5.204 11.702-12.306 20.133-23.922 25.965-3.453.058-5.603-2.238-8.14-4.34l-1.71-1.367A575 575 0 0 1 869 1528q-1.647-1.337-3.297-2.672A1031 1031 0 0 1 858 1519c2.957-2.957 6.378-2.67 10.367-3.035l2.519-.253c2.662-.267 5.325-.521 7.989-.774q3.984-.389 7.968-.785 2.48-.247 4.961-.481c4.154-.385 4.154-.385 8.237-1.196 2.67-.649 5.224-.538 7.959-.476"/><path fill="#151E31" d="M915 1520h2c12.606 27.113 12.606 27.113 18 40h-21c-1.87-3.41-3.72-6.826-5.562-10.25l-1.616-2.934-1.513-2.832-1.413-2.602c-1.013-2.693-.969-3.753.104-6.382 1.488-1.895 1.488-1.895 3.313-3.812 3.214-3.525 5.488-6.965 7.687-11.188"/><path fill="#F2F3F1" d="M881 1448c10.573 3.779 18.865 11.797 25 21 .036 6.108-3.49 9.656-7.25 14.063l-1.738 2.103c-3.172 3.803-6.448 7.397-10.012 10.834-6.579-34.627-6.579-34.627-6-48"/><path fill="#F4F5F6" d="M840 1509c3.862 1.678 6.987 4.203 10.25 6.813l1.824 1.447A1886 1886 0 0 1 858 1522l2.135 1.708q3.219 2.577 6.428 5.167l2.018 1.62c3.692 2.994 7.125 6.078 10.419 9.505-6.055 2.11-11.618 2.334-18 2.313l-2.906.048c-5.718.004-10.24-.175-15.094-3.361-1.086-3.047-1.086-3.047-1.375-6.75l-.181-1.977c-.182-2.09-.316-4.18-.444-6.273q-.162-2.163-.328-4.324A532 532 0 0 1 840 1509"/><path fill="#F6F7F8" d="m836 1490 .26 3.437q.48 6.366.967 12.731l.416 5.49.603 7.932.183 2.444c.41 5.338.955 10.648 1.571 15.966-10.272-3.21-18.543-12.349-24.25-21.105-.969-2.447-.591-3.424.25-5.895 1.228-1.844 1.228-1.844 2.766-3.715l1.699-2.08 1.785-2.142 1.738-2.131C832.984 1490 832.984 1490 836 1490"/><path fill="#F3F4F5" d="M845 1473c-3.935 5.475-8.142 10.456-12.812 15.313-5.06 5.332-9.851 10.752-14.418 16.515A55 55 0 0 1 813 1510c-4.08-11.421-4.677-23.659 0-35 1.936-1.936 5.476-1.413 8.125-1.562l2.146-.13c7.246-.398 14.474-.402 21.729-.308"/><path fill="#F4F5F5" d="M843 1450c2.467 1.529 4.656 3.322 6.875 5.188q1.843 1.505 3.688 3.007l1.78 1.466c2.121 1.714 4.317 3.312 6.532 4.901L865 1467v2c-10.259 1.13-20.447 1.117-30.75 1.063l-5.04-.014q-6.105-.017-12.21-.049c3.575-9.377 14.902-23.565 26-20"/><path fill="#F6F7F7" d="m860.438 1443.75 2.447-.023c5.357.017 9.968.784 15.115 2.273.507 3.853 1.004 7.708 1.5 11.563l.434 3.29c.692 5.427 1.254 10.676 1.066 16.147a380 380 0 0 1-15.687-12.25c-5.733-4.7-11.527-9.29-17.503-13.679-1.306-.978-2.564-2.019-3.81-3.071v-2c5.601-1.895 10.546-2.306 16.438-2.25"/><path fill="#F5F6F6" d="M907 1476h2c2.418 5.67 2.298 11.012 2.25 17.063l.023 2.97-.007 2.877-.007 2.598c-.29 2.785-1.113 4.95-2.259 7.492q-5.812.757-11.625 1.5l-3.316.434-3.223.41-2.952.38c-2.979.285-5.893.323-8.884.276 3.816-8.373 11.037-15.268 16.982-22.223a217 217 0 0 0 9.678-12.265z"/><path fill="#222837" d="m860.5 1438.75 2.434-.023c11.862.038 22.75 3.982 32.066 11.273l-1 4c-3.67 0-5.1-1.075-8.187-3l-2.731-1.687L881 1448l.438 2.781c.978 6.472 1.824 12.673 1.562 19.219h-3q-.506-4.593-1-9.187c-.095-.865-.19-1.73-.29-2.62-.437-4.08-.846-8.08-.71-12.193-5.897-.853-11.608-1.154-17.562-1.125l-2.46-.012c-4.764.008-9.28.342-13.978 1.137 3.696 3.85 7.593 7.177 11.813 10.438l1.861 1.452a513 513 0 0 0 10.201 7.735L871 1468v1c-2.687.313-2.687.313-6 0a172 172 0 0 1-5-5c-2.089-1.763-4.258-3.413-6.437-5.062l-1.659-1.276A378 378 0 0 0 847 1454l-3.098-2.371c-2.722-1.852-2.722-1.852-5.476-1.57-2.705 1.05-4.864 2.338-7.239 4.004l-2.394 1.66L827 1457l-3-2h-3c10.714-10.947 24.35-16.396 39.5-16.25"/><path fill="#111D2E" d="M809 1528c3.887 3.164 7.497 6.405 11 10a2880 2880 0 0 0 4 4 4578 4578 0 0 1-3.937 8.438l-1.131 2.431-1.084 2.315-1 2.142C816 1559 816 1559 815 1560a63 63 0 0 1-4.254.098l-2.588-.01-2.72-.025-2.733-.014q-3.353-.018-6.705-.049c.652-3.993 1.888-7.421 3.469-11.14l1.48-3.493 1.551-3.617c.512-1.21 1.024-2.418 1.55-3.664 3.81-8.947 3.81-8.947 4.95-10.086"/><path fill="#1E2637" d="M850 1423h28c5 12 5 12 4 15l-2.062-.937c-7.397-2.676-15.114-2.183-22.875-2.126l-3.518.014q-4.272.02-8.545.049z"/><path fill="#0D1524" d="M1434 1424h96v1l-3.524.031q-16.401.147-32.801.308-8.433.084-16.866.158-8.13.072-16.261.156-3.11.031-6.219.056-4.34.037-8.678.086l-2.625.017c-3.823-.323-3.823-.323-7.026 1.188-.09 3.085-.115 6.147-.098 9.232l.005 2.943q.006 3.183.018 6.366.019 5.078.024 10.154c.013 8.433.037 16.866.061 25.299q.03 10.627.046 21.256.01 4.93.032 9.86c.024 15.348-.519 30.523-1.088 45.89h96v-13h-5v-1h6v15h-98z"/><path fill="#E7FEFE" d="m876.945 990.87 2.16.01 2.28-.003q3.81-.001 7.62.01l5.438-.001q7.407.001 14.813.013c5.155.006 10.309.006 15.463.008q14.652.005 29.303.021 16.677.015 33.352.022 34.312.016 68.626.05v1c-10.8 1.314-21.62 1.107-32.48 1.061-6.024-.025-12.046-.03-18.07-.04l-3.824-.007c-20.425-.035-40.849.043-61.273.17-6.511.04-13.022.073-19.532.087-6.462.015-12.924.05-19.386.097q-3.642.023-7.286.024c-3.34.002-6.678.03-10.017.062l-2.997-.015-2.734.042-2.371.011c-2.781.696-3.45 2.205-5.03 4.508h-2c2.27-7.112 2.27-7.112 7.945-7.13"/><path fill="#252B37" d="M912 1476c6.168 7.509 4.515 18.692 3.762 27.918-1.449 8.968-5.68 18.25-12.762 24.082l-4-3 1.242-1.61 1.633-2.14 1.617-2.11c1.4-1.987 2.487-3.938 3.508-6.14l-3.5.438c-7.144.802-14.326 1.148-21.5 1.562v-2h-5c2.712-2.712 4.327-2.327 8.125-2.5a234 234 0 0 0 16.75-1.562l2.145-.278q2.49-.326 4.98-.66c1.043-3.401 1.088-6.462 1.027-10.008l-.037-3.488q-.053-3.64-.117-7.281l-.033-3.48-.051-3.193C910 1478 910 1478 912 1476"/><path fill="#71BFC9" d="M923 1280h9l.025 1.907q.131 9.88.292 19.76.058 3.681.105 7.362c.046 3.54.104 7.08.164 10.62l.035 3.29c.188 9.825.768 19.294 7.379 27.061 5.671 5.01 10.42 6.165 17.813 6.125l2.119.012c4.128-.008 8.02-.336 12.068-1.137l-1 3c-10.627 1.977-20.225 1.943-30-3v-2h-2c-6.919-6.688-8.44-16.438-8.606-25.632l-.003-3.473-.05-3.653c-.049-3.81-.07-7.62-.091-11.43q-.042-3.9-.09-7.798-.109-9.507-.16-19.014l-5-1q.14 10.297.317 20.593.057 3.495.105 6.989c-.92 24.674-.92 24.674 8.578 46.418 3.429 2.818 7.039 5.02 11 7v2c-8.062-2.52-13.707-7.77-17.651-15.12-4.188-8.944-4.777-18.132-4.642-27.864l.013-3.581c.017-3.729.054-7.457.092-11.185q.024-3.82.042-7.64.049-9.306.146-18.61"/><path fill="#CFF2F5" d="M1175 1280h1v9h-29v77h-11c-1.169-3.506-1.12-6.249-1.114-9.95v-2.13c0-2.32.009-4.642.016-6.963l.005-4.83q.006-6.354.024-12.71.014-6.484.02-12.97.016-12.724.049-25.447c-.676.01-1.352.02-2.048.032-3.067.041-6.134.067-9.202.093l-3.223.05-3.105.02-2.857.032C1112 1291 1112 1291 1108 1289h29v76h9v-77h29z"/><path fill="#DDFAFC" d="M674 967a119 119 0 0 1 9.992 4.426c25.391 12.49 48.974 18.208 77.196 19.136l3.751.131q4.53.157 9.061.307c.128 7.693.02 15.146-1.187 22.75l-.388 2.536c-1.389 8.466-3.757 16.573-6.425 24.714h-1c.478-3.746 1.063-7.381 1.941-11.055 1.203-5.337 1.924-10.71 2.621-16.132C771.62 998.129 771.62 998.129 773 993l-3.5.5c-4.559.5-9.105.645-13.687.688l-2.051.039c-4.366.008-7.671-.812-11.762-2.227-3.214-.59-6.45-1.005-9.687-1.437C711.447 987.545 692.157 979.658 674 969z"/><path fill="#D8FAFB" d="M1028 1294c1.453 2.906.902 5.394.75 8.625.005 5.338.031 9.4 3.352 13.71 7.508 6.583 18.404 8.92 27.83 11.486 7.002 1.95 13.26 4.447 18.068 10.179 1.48 4.44 1.645 8.266 0 12.688-3.444 3.981-8.085 5.674-13 7.312a161 161 0 0 1-7.25.188l-3.89.042c-4.008-.239-7.07-.988-10.86-2.23v-1c.58.01 1.16.02 1.757.032 2.643.041 5.287.067 7.93.093l2.764.05c4.719.035 8.214-.132 12.549-2.175h4l.875-2.375C1074 1348 1074 1348 1076 1346c-.385-3.56-1.333-6.833-3-10-5.427-4.15-12.2-5.85-18.75-7.375-10.716-2.615-20.92-6.13-27.25-15.625-.243-1.977-.243-1.977-.23-4.195l.005-2.418.037-2.512.002-2.535c.046-6.2.046-6.2 1.186-7.34"/><path fill="#6BBDCB" d="M1108 1280h67v8h-29v-1l26-1v-3h-60l-2 4h27v1h-29z"/><path fill="#E4FEFE" d="M842 1289h34c.069 7.687.129 15.372.165 23.06q.022 3.918.061 7.838c.037 3.763.054 7.526.067 11.29.015 1.161.03 2.323.047 3.52.002 7.942-.638 13.88-5.715 20.292-4.007 2.928-8.56 2.74-13.352 2.559-4.997-.853-8.695-2.99-12.273-6.559-1.238-2.203-1.238-2.203-2-4 4.875 1.75 4.875 1.75 6 4l3 1v2l13 2v-2l2.356-1.33c3.887-2.455 4.526-5.104 5.916-9.357 1.374-6.252 1.09-12.513.915-18.876-.046-2.834-.08-5.669-.113-8.503l-.03-2.086c-.104-7.977.338-15.898.956-23.848l-2 1c-4.142.21-8.285.186-12.431.185-2.061.002-4.121.02-6.182.04l-3.918.005-3.612.013C844 1291 844 1291 842 1289"/><path fill="#84CBD5" d="M885 1280h1q.07 11.918.104 23.837.014 5.535.047 11.07.032 5.349.039 10.699c.005 2.011.02 4.023.037 6.035 0 10.956-1.108 19.897-8.899 28.125-6.313 5.754-12.592 6.746-20.996 6.62-6.319-.733-11.134-3.555-15.957-7.573C839 1357 839 1357 839 1355h3v2h2l2 3c5.221 3.489 9.836 3.365 15.875 3.188l2.664-.042c2.154-.035 4.308-.088 6.461-.146v-2l3-1c3.879-4.073 6.009-7.76 8-13h2z"/><path fill="#CFCFDA" d="m1195 800 2 2a12137 12137 0 0 1-21.697 21.853 5267 5267 0 0 0-10.075 10.146 3620 3620 0 0 1-9.726 9.784q-1.858 1.866-3.708 3.74a1107 1107 0 0 1-5.2 5.223l-1.542 1.576c-2.534 2.51-4.417 4.3-8.052 4.678 4.952-5.977 10.314-11.443 15.816-16.914l2.831-2.826q3.7-3.694 7.407-7.382 3.759-3.746 7.514-7.495 5.505-5.491 11.012-10.98 4.716-4.695 9.42-9.403z"/><path fill="#121A29" d="m824 1454 2 4-1.172 1.32-1.578 1.805-1.547 1.758c-2.073 2.576-3.869 5.366-5.703 8.117h27c-4.15 2.075-6.19 2.294-10.734 2.414l-3.926.117-4.09.094-4.137.117q-5.056.141-10.113.258c1.036-7.144 4.23-12.787 9.797-17.531 1.64-1.094 1.64-1.094 4.203-2.469"/><path fill="#0F1624" d="M1164 1424h17v1l-3.027.184-3.91.254c-1.288.08-2.576.162-3.903.246-3.02-.035-3.02-.035-4.16 1.316-.1 1.666-.13 3.335-.134 5.004l-.013 3.285.002 3.635-.01 3.803q-.014 5.178-.012 10.357l-.008 8.634q-.013 10.181-.01 20.362-.001 10.518-.026 21.034-.019 9.016-.018 18.033.002 5.391-.013 10.782c-.011 4.006-.007 8.012 0 12.018-.007 1.198-.012 2.395-.018 3.629l.013 3.293-.002 2.873c.033 2.459.033 2.459 2.249 4.258l-4 1z"/><path fill="#E9FEFF" d="M1147 1289h29c-3.608 1.804-4.498 2.248-8.187 2.16l-2.368-.033-2.445-.064a818 818 0 0 0-4.812-.09l-2.145-.055c-2.139.086-3.99.494-6.043 1.082-1.115 6.892-1.105 13.666-1.045 20.637q.025 3.165.036 6.33.038 8.989.105 17.978.04 5.519.055 11.037.009 2.1.03 4.199c.019 1.948.025 3.896.03 5.844l.023 3.359C1149 1364 1149 1364 1147 1366z"/><path fill="#DDF9FB" d="m864 1005 2 2-1.426 1.793c-3.786 4.764-3.786 4.764-7.136 9.832-2.096 3.463-4.762 6.35-7.438 9.375l-1.523 1.77c-3.823 4.428-7.761 8.743-11.727 13.043l-1.575 1.707q-2.08 2.246-4.175 4.48l-1.672 1.887C828 1052 828 1052 825 1052l-.625 1.75c-1.873 3.064-4.345 4.405-7.375 6.25l-2-1a5992 5992 0 0 1 6-5.562l1.803-1.671c3.142-2.902 6.31-5.751 9.572-8.517 3.95-3.443 7.291-7.213 10.625-11.25l1.443-1.741c6.804-8.225 13.426-16.516 19.557-25.259"/><path fill="#DCFCFE" d="M841 1279h46c.665 4.656 1.134 8.664 1.177 13.283l.039 3.63.022 3.868.013 1.994q.03 5.216.044 10.43c.011 3.575.046 7.148.085 10.723.027 2.765.035 5.531.038 8.297.008 1.954.034 3.908.06 5.861-.016 6.854-.321 11.356-4.478 16.914h-2l.638-2.107c2.316-8.295 2.831-16.045 2.874-24.627l.054-4.12c.047-3.57.077-7.14.104-10.71.03-3.662.076-7.322.121-10.983.087-7.15.147-14.302.209-21.453h-44v8h-1z"/><path fill="#DDFBFC" d="M762 1044h2c-2.045 23.114-23.83 50.304-40 66l-2-1a340 340 0 0 1 2.375-3.5l1.336-1.969L727 1102h2v-2h2l.84-1.763c1.112-2.145 2.336-4.049 3.726-6.022l1.471-2.108 3.063-4.351 1.466-2.104 1.342-1.906c1.263-1.867 1.263-1.867 2.092-4.746h2v-3h2l.438-1.875C750 1070 750 1070 751 1068h2l.281-2.062c1.044-4.265 3.144-7.918 5.192-11.766 1.756-3.38 3.01-6.387 3.527-10.172"/><path fill="#E5FDFE" d="M984 1279h10c7.528 15.055 3.05 48.472-1.086 64.582-1.02 2.697-2.358 4.997-3.914 7.418-1-2-1-2-.249-4.26l1.14-3.092c3.561-11.993 2.79-24.62 2.859-37.023q.042-3.879.09-7.758.109-9.434.16-18.867h-9z"/><path fill="#DFFEFE" d="M932 1278v1h-9q.14 11.448.317 22.894.058 3.889.105 7.778c.046 3.74.104 7.482.164 11.223l.035 3.473c.128 7.065.878 13.725 2.379 20.632l-3-1c-2.306-7.343-2.262-14.487-2.195-22.129l.008-3.728c.011-3.902.036-7.804.062-11.706q.016-3.984.027-7.97.034-9.734.098-19.467c4.18-1.517 6.667-2.274 11-1"/><path fill="#78C1CB" d="m1027 1347 1.871 1.207c5.554 3.475 10.809 6.053 17.129 7.793v1c-6.813.681-11.515-2.344-17-6h-3l-1 4 2.078.809c2.07.844 4.121 1.737 6.156 2.664 6.608 2.988 12.433 5.446 19.766 5.527l3.566.184c6.924.226 12.456.17 18.602-3.211 1.927-1.024 3.704-1.525 5.832-1.973-3.817 4.612-8.668 6.596-14.503 7.303-2.736.136-5.446.165-8.185.134l-2.946-.025c-12.963-.303-22.526-4.459-33.366-11.412 1.186-3.375 2.276-5.647 5-8"/><path fill="#D9FBFC" d="M933 1334c2.218 2.218 2.539 3.414 3.375 6.375 1.204 3.848 2.527 5.955 5.625 8.625v2l3.438.938C949 1353 949 1353 950 1354c7.846 1.666 14.024 1.01 21-3 3.184-2.664 4.694-4.08 6-8h2l.875-2.375C981 1338 981 1338 983 1336c-.946 8.344-4.28 13.094-10.676 18.387-6.533 4.128-14.929 3.353-22.324 2.613-6.307-1.6-10.43-5.695-14-11-2.21-3.913-3.414-7.451-3-12"/><path fill="#68BBCD" d="m753 1070 2 2a566 566 0 0 1-1.812 3.75l-1.02 2.11c-1.217 2.23-2.622 4.128-4.168 6.14a459 459 0 0 0-2.875 4.375c-2.96 4.461-6.183 8.433-9.734 12.441l-1.641 1.871-1.516 1.7c-1.447 1.71-1.447 1.71-2.234 4.613-1.875 1.25-1.875 1.25-4 2l-3-1 2.875-2.687c10.877-10.964 18.894-24.348 27.125-37.313"/><path fill="#2B323E" d="m809 1472 2 1c1.448.083 2.9.107 4.352.098l2.578-.01 2.695-.025 2.719-.014q3.328-.018 6.656-.049v1l-16 1c-2.928 8.575-2.928 8.575-4.625 17.438-.364 3.457-1.159 6.318-2.375 9.562h-1c-.574-20.532-.574-20.532 3-30"/><path fill="#D9DEE7" d="M1346 1424h1v103l-3-2v-2h2z"/><path fill="#DEFEFE" d="M1155 1278c3.46.127 6.914.095 10.375.063l2.809-.014q3.408-.018 6.816-.049l1 2h-68v8h-1v-9l3.317-.076q6.108-.142 12.216-.296 2.64-.066 5.282-.125 3.802-.088 7.603-.187l2.374-.05c16.203-.437 16.203-.437 17.208-.266"/><path fill="#DEFCFD" d="m1055.688 1287.625 2.26.004c3.806.061 6.826.243 10.052 2.371l-3.219-.105c-12.208-.452-12.208-.452-22.968 4.824-2.382 2.997-2.227 4.754-2.063 8.531l.11 3.266.14 2.484 1.875.938L1046 1312v2c-4.427-1.353-6.363-3.233-9-7-1.555-3.11-1.286-5.563-1-9 4.197-8.562 10.831-10.67 19.688-10.375"/><path fill="#292F39" d="M843 1446c4.302 3.095 8.398 6.3 12.313 9.875 4.287 3.89 8.86 7.238 13.597 10.559L871 1468v1c-2.687.313-2.687.313-6 0a166 166 0 0 1-5-5 218 218 0 0 0-6.312-5l-1.72-1.316A133 133 0 0 0 839 1449l4-1z"/><path fill="#74C2CD" d="M1033 1317c4.374 1.427 8.72 2.871 13 4.563 2.74 1.05 5.37 1.758 8.25 2.312 7.589 1.568 15.347 4.743 21.75 9.125v2h2c2.31 4.474 2.66 9.055 2 14l-2 2 .105-2.012c.275-7.018.275-7.018-3.105-12.988-3.838-3.544-7.614-5.11-12.562-6.5l-4.29-1.281-2.13-.625c-8.226-2.42-15.694-5.081-23.018-9.594z"/><path fill="#7AC1CD" d="M1077.188 1283.535A174 174 0 0 1 1085 1288c-1.074 2.915-1.778 4.778-4 7-2.125-.375-2.125-.375-4-1l2-1.875c2.228-1.881 2.228-1.881 2-4.125l-5.125-1.875-2.883-1.055L1070 1284l-2.687-1.125c-4.746-1.253-9.305-1.086-14.188-1l-2.953.027q-3.586.036-7.172.098c4.303-8.607 27.705-1.587 34.188 1.535"/><path fill="#1B212F" d="M901.375 1526.188 903 1527c-3.32 7.644-10.691 11.737-18 15l-2-2c1.193-3.579 2.066-3.94 5.188-5.875 2.932-1.857 5.572-3.713 8.125-6.062C899 1526 899 1526 901.375 1526.187"/><path fill="#DAF7F9" d="m1078 1361 2 1c-2.218 3.425-3.513 4.832-7.426 6.18l-3.887.695-3.863.742c-3.918.392-6.967.116-10.824-.617l-1.954-.368c-1.998-.383-3.99-.786-5.984-1.195l-2.072-.42q-2.496-.506-4.99-1.017v-2l3.316.48c5.206.645 10.38.779 15.621.832l2.842.088c5.956.054 10.172-.82 15.446-3.634z"/><path fill="#AEDEE1" d="m670 699 2 1q-3.06 2.846-6.125 5.688l-1.727 1.607C653.67 717 653.67 717 651 717l-.68 1.672c-1.724 3.04-3.945 5.142-6.445 7.578l-2.758 2.703L639 731l-2-1c10.135-11.568 20.38-22.14 33-31"/><path fill="#2F3540" d="m908 1509 1 3c-3.374.507-6.75 1.004-10.125 1.5l-2.883.434c-4.704.686-9.222 1.259-13.992 1.066v-2h-5c2.784-2.784 4.737-2.367 8.625-2.562 5.922-.335 5.922-.335 11.813-1 3.594-.442 6.95-.513 10.562-.438"/><path fill="#A5E0EF" d="m919 756 2 1-.351 1.781c-3.07 15.733-4.868 30.727-4.587 46.782-.064 3.555-.49 6.93-1.062 10.437h-1c-.36-20.623-.157-39.89 5-60"/><path fill="#72C1CD" d="m1037 1292 3 1-1.5 2.063c-1.879 3.678-2.002 5.846-1.5 9.937 2.724 5.788 6.382 7.622 12 10 3.425 1.189 6.887 2.202 10.375 3.188q2.67.769 5.336 1.542l2.353.67c1.936.6 1.936.6 3.936 1.6v2l-6-1v-2l-2.75-.312c-9.285-1.391-18.125-3.154-25.25-9.688-2.093-3.152-2.27-5.759-2.25-9.5l-.016-2.844c.27-2.696.893-4.345 2.266-6.656"/><path fill="#2F373F" d="m833 1486 1 3 2 1-1.398 1.074c-6.68 5.452-11.536 12.022-16.602 18.926l-4-2c.568-.63 1.137-1.258 1.723-1.906 8.976-9.765 8.976-9.765 17.277-20.094"/><path fill="#DCFBFC" d="m929 1352 1.938 2.125c6.765 6.746 14.39 11.077 24.078 11.203l2.172-.015 2.251-.004c6.17-.107 11.746-1.199 17.561-3.309-2.802 3.415-4.37 4.864-8.75 5.813-4.41.3-8.833.265-13.25.187h-3c-9.125-1.074-17.05-6.15-23-13z"/><path fill="#1E2631" d="M860 1521c4.743 2.666 8.988 5.906 13.313 9.188l2.244 1.693q2.724 2.056 5.443 4.119l-1 4v-2l-1.594-.195c-3.488-1.167-6.071-3.41-8.906-5.68l-3.406-2.68L863 1527a479 479 0 0 0-4-3z"/><path fill="#E0FCFD" d="m1064 1277 1 2-3.586.078c-14.227.13-14.227.13-26.344 6.742a56 56 0 0 0-4.07 5.18c-1-3-1-3 0-6 9.682-8.667 20.652-8.32 33-8"/><path fill="#393A4A" d="m1199 784 1 2c-4.631 5.535-9.566 10.733-14.625 15.875l-1.955 2.02c-3.248 3.271-5.843 5.86-10.42 7.105 5.104-6.181 10.683-11.798 16.375-17.437l2.809-2.795q3.405-3.388 6.816-6.768"/><path fill="#D9F9FB" d="M1066 1320c6.622.307 11.221 1.743 17 5v2h2c3.88 4.85 4.386 9.073 4.375 15.188l.004 2.124c-.078 3.7-.349 6.545-2.379 9.688l-1-3 1-2c.567-6.126 1.022-12.247-2.613-17.477-5.19-5.7-11.009-8.576-18.387-10.523z"/><path fill="#AEDEE1" d="m636 731 1 2c-1.293 2.68-1.293 2.68-3.187 5.875l-1.856 3.18c-1.792 2.697-3.644 4.705-5.957 6.945a134 134 0 0 0-3 6l-1.562 2.563c-1.427 2.418-2.462 4.81-3.438 7.437h-2c3.805-12.632 12.229-23.522 20-34"/><path fill="#DBFAFC" d="M773 1089c-1 3-1 3-3.562 4.438-1.135.515-2.27 1.03-3.438 1.562-5.585 2.595-5.585 2.595-10.5 6.25-3.614 2.53-6.155 2.045-10.5 1.75 3.742-3.176 8.01-4.988 12.438-7 5.848-2.659 5.848-2.659 11.472-5.75C771 1089 771 1089 773 1089"/><path fill="#D1EAF7" d="m1027 838 3 3-1 1a110 110 0 0 0-.205 5.621l-.06 3.64-.051 3.962-.063 4.031q-.082 5.315-.153 10.628-.077 5.42-.161 10.839-.162 10.64-.307 21.279h-1z"/><path fill="#E6FCFC" d="m698 684-1.538.775C685.762 690.2 675.64 695.835 666 703v-3c6.684-6.171 14.838-10.173 23-14l3.168-1.73C695 683 695 683 698 684"/><path fill="#323240" d="m1220 763 1 2c-5.635 6.712-11.76 12.86-18 19l-3-1z"/><path fill="#222B39" d="M818 1524c2.71.155 4.466.482 6.445 2.402 1.232 1.496 2.398 3.044 3.555 4.598l-5 3a231 231 0 0 1-3.062-3.312l-1.723-1.864L817 1527z"/><path fill="#D9EAF3" d="M1002 735h50l-1 3-3-1a82 82 0 0 0-4.563-.205l-2.79-.06-3.002-.051-3.082-.063q-4.875-.098-9.75-.183l-6.608-.131q-8.103-.161-16.205-.307z"/><path fill="#1E2433" d="M834.188 1446.375 836 1447l-2.375 2.25c-2.631 2.487-2.631 2.487-3.75 5L829 1456l-3 1-2-2h-3q1.903-1.69 3.813-3.375l2.144-1.898c4.516-3.817 4.516-3.817 7.23-3.352"/><path fill="#212933" d="m899 1481 2 4-4.312 4.813c-.801.893-1.602 1.786-2.426 2.707-1.714 1.88-3.44 3.706-5.262 5.48l-2-2 2.117-2.52 2.758-3.293 1.395-1.658c2.048-2.448 3.957-4.87 5.73-7.529"/><path fill="#74C2CD" d="m976 1360 2 1c-6.705 4.47-13.102 5.3-20.937 5.125l-2.362-.027c-1.9-.024-3.8-.06-5.701-.098l1-2 3.402-.113c8.095-.335 14.971-.943 22.598-3.887"/><path fill="#B6E2E3" d="m763 601 2 1-2.633 2.527c-8.408 8.133-8.408 8.133-15.12 17.668-1.468 2.125-3.124 3.36-5.247 4.805 3.74-10.533 13.125-18.386 21-26"/><path fill="#E6FBFC" d="m658 706 3 1-1.836 1.617C652.88 714.207 646.89 719.997 641 726c0-3 0-3 1-5h2l.793-1.781c2.836-5.213 8.323-9.963 13.207-13.219"/><path fill="#E2FBFD" d="m811 1062 2 1c-1.375 1.5-1.375 1.5-3 3h-2l-.73 1.8c-1.522 2.636-3.046 3.73-5.582 5.388l-2.301 1.542c-2.49 1.325-4.61 1.862-7.387 2.27 3.37-3.641 7.14-6.367 11.188-9.187 4.085-2.694 4.085-2.694 7.812-5.813"/><path fill="#D7F8F9" d="M604 863h1l.734 3.297c1.816 8.002 3.776 15.768 6.63 23.48C613 892 613 892 612 894l-4-8h-1q-.761-3.78-1.5-7.562l-.434-2.135A58.2 58.2 0 0 1 604 863"/><path fill="#69BDCA" d="m1076 1353-1 4c-5.694 1.939-10.758 2.306-16.75 2.25l-2.574.023-2.473-.007-2.23-.007C1049 1359 1049 1359 1046 1357l3.84.14c9.295.237 18.05-4.14 26.16-4.14"/><path fill="#D5F9FA" d="M843 1347c4.875 1.75 4.875 1.75 6 4l3 1v2c3.61 1.135 6.984 1.1 10.75 1.063l3.547-.028L869 1355c-2.703 2.703-4.285 2.394-8.062 2.5-6.674-.089-11.19-1.762-15.938-6.5-1.238-2.203-1.238-2.203-2-4"/><path fill="#6EB9C4" d="m736 1096 1 3c-1.18 1.719-1.18 1.719-2.875 3.5-2.175 2.307-3.098 3.42-4.125 6.5-1.875 1.25-1.875 1.25-4 2l-3-1 1.32-1.285c4.13-4.067 7.96-8.27 11.68-12.715"/><path fill="#5DAABC" d="M922 742c1.397 4.44.172 7.88-1.187 12.188l-.635 2.232c-.658 2.123-.658 2.123-2.178 5.58-2.095.716-2.095.716-4 1 1.966-7.37 4.696-14.13 8-21"/><path fill="#2F3640" d="M840 1515h1c.248 2.791.474 5.581.688 8.375l.22 2.406c.166 2.305.166 2.305.092 6.219l-3 2c-1.206-4.672-1.094-9.215-1-14h1z"/><path fill="#3C444D" d="M878 1511h15v1l5 1v1l-16 1v-2h-5z"/><path fill="#DCFDFE" d="m843 1347-5 4c.581 3.925 2.293 6.15 5 9 2.275 1.508 4.57 2.739 7 4l-3 1c-4.785-2.6-8.014-5.52-11-10-.312-3.875-.312-3.875 0-7 3.625-2.125 3.625-2.125 7-1"/><path fill="#66B9C9" d="M753 1097v2a959 959 0 0 1-8.25 4.063l-2.355 1.181-2.286 1.104-2.094 1.031c-2.393.737-3.68.429-6.015-.379q3.626-1.814 7.254-3.621 2.553-1.28 5.086-2.602c5.345-2.777 5.345-2.777 8.66-2.777"/><path fill="#3C4450" d="m848.971 1540.865 2.38.158 2.579.157 2.695.195 2.719.172q3.33.213 6.656.453v1h-13v2l-8 1c0-3.375.362-4.888 3.971-5.135"/><path fill="#D8F8FA" d="m829 1046 2 1c-.75 1.938-.75 1.938-2 4l-4 1-.875 1.813c-1.626 3.162-4.143 4.372-7.125 6.187l-2-1 2.809-2.59 3.629-3.348 1.853-1.708 1.768-1.631 1.634-1.508A88 88 0 0 0 829 1046"/><path fill="#74C1CB" d="M610 880c2.322 3.483 3.717 7.11 5.188 11l.865 2.195c2.066 5.45 2.066 5.45.947 8.805-2.322-3.483-3.717-7.11-5.187-11l-.866-2.195c-2.066-5.45-2.066-5.45-.947-8.805"/><path fill="#3A3F45" d="M880 1452h1c1.405 6.12 2.233 11.717 2 18h-3q-.29-4.218-.562-8.437l-.17-2.432A193 193 0 0 1 879 1453z"/><path fill="#85C9D4" d="M1051 1287c19.32-.453 19.32-.453 26 4v2l-1.828-.621-2.422-.816-2.39-.81c-4.418-1.41-8.464-1.99-13.11-2.315l-3.547-.254L1051 1288z"/><path fill="#B5E1E2" d="m736 636 3 2-1.312 1.938c-3.267 5.927-4.89 12.564-6.688 19.062h-1c.208-8.388 2.74-15.327 6-23"/><path fill="#28303A" d="m833 1486 1 3 2 1q-1.904 1.69-3.812 3.375l-2.145 1.898C828 1497 828 1497 825 1499c1.364-5.593 4.154-8.912 8-13"/><path fill="#6FBCCB" d="m645 940 1.875 2c4.033 4.057 8.627 7.48 13.125 11l-3 1c-1.902-1.293-1.902-1.293-3.937-3.187l-2.122-1.965L649 947l-2.5-2.25C645 943 645 943 645 940"/><path fill="#5D8AA1" d="M1042 972c7.67.43 14.659 1.742 22 4v1c-6.85.334-11.897.238-18-3a945 945 0 0 0-4-2"/><path fill="#DDFDFD" d="M1038 1299h1l.078 2.117.172 2.758.14 2.742c.362 2.53.362 2.53 2.532 3.64l2.078.743 2 1v2c-4.411-1.348-6.617-3.028-9-7-.312-3.75-.312-3.75 0-7z"/><path fill="#D8F8FB" d="m638 935 12 12-3 1c-3.187-2.25-3.187-2.25-6-5v-3h-2z"/><path fill="#DCF9FB" d="M1067 1278c5.233 1.64 10.152 3.39 15 6v2c-5.449-1.72-10.712-3.847-16-6z"/><path fill="#6AB6C9" d="M830 1041h1c.238 2.262.238 2.262 0 5-1.645 2.02-1.645 2.02-3.812 3.813l-2.145 1.832C823 1053 823 1053 820 1053l1.172-1.355c2.434-2.826 4.833-5.652 7.14-8.582z"/><path fill="#6FBAC8" d="M661 955c3.583 1.654 6.81 3.68 10 6v2l5 2-3 1c-2.664-1.547-2.664-1.547-5.625-3.75l-2.977-2.172C662 958 662 958 661 955"/><path fill="#E2FDFE" d="m850 1365 18 1c-4.215 3.161-5.06 3.337-10 3v-2h-7z"/><path fill="#C8F3F5" d="M1028 1294c1.864 3.727.89 8.33.742 12.422.28 3.89 1.302 6.24 3.258 9.578h-3c-2.053-3.08-2.25-3.72-2.23-7.195l.005-2.418.037-2.512.002-2.535c.046-6.2.046-6.2 1.186-7.34"/><path fill="#272E36" d="M860 1521c3.534 1.963 6.245 4.04 9 7-1.625.813-1.625.813-4 1-2.246-1.468-4.024-3.159-6-5z"/><path fill="#E8FCFD" d="m746 617 2 1-1.172 1.723c-3.146 4.665-6.104 9.353-8.828 14.277-.672-1.719-.672-1.719-1-4 1.11-2.219 1.11-2.219 2.75-4.5l1.61-2.281A800 800 0 0 1 746 617"/><path fill="#9FA1AF" d="m1186 950 2 1c-5.345 4.5-10.235 7.215-17 9 2.618-2.955 5.676-4.758 9.063-6.75l3.222-1.922z"/><path fill="#65BECC" d="m1037 1292 3 1-1.5 1.813c-2.198 4.67-1.74 9.107-1.5 14.187-2-2-2-2-2.266-4.46l.016-2.915-.016-2.898c.267-2.738.869-4.387 2.266-6.727"/><path fill="#D9F9FB" d="M992 1335h1c.543 6.655-.227 10.458-4 16-1.572-3.143-.04-5.93.938-9.125l.591-1.996A785 785 0 0 1 992 1335"/><path fill="#67B6C9" d="M819 1054c-1.44 3.36-3.124 5.716-6 8-2.133-.395-2.133-.395-4-1a640 640 0 0 1 3.875-3.5l2.18-1.969C817 1054 817 1054 819 1054"/><path fill="#E7FDFD" d="M624 745h2c-1.764 4.972-4.394 9.434-7 14-1.246-3.737-.696-4.527 1-8 2-3.312 2-3.312 4-6"/><path fill="#D5FAFB" d="m987 1351 1 2c-.937 2.125-.937 2.125-2 4h-2l-.687 1.938C982 1361 982 1361 979.375 1361.75L977 1362l2.188-2.125c2.81-2.803 5.307-5.798 7.812-8.875"/><path fill="#EDFFFF" d="M837 1039h2c-1.555 3.817-4.036 6.192-7 9l-2-1a564 564 0 0 1 3.375-4l1.898-2.25z"/><path fill="#2A3039" d="m899 1481 2 4-5 5v-2l-2-1z"/><path fill="#69B7CA" d="m742 987 1 2q-2.687.079-5.375.125l-3.023.07C732 989 732 989 730 987c4.108-1.54 7.786-.76 12 0"/><path fill="#E6FDFD" d="M727 664h1v11l-8 1 3-2c2.85-2.083 3.012-3.065 3.688-6.687z"/><path fill="#DDF9FC" d="m787 1079 2 1c-6.846 5.912-6.846 5.912-10 7l-3-1a675 675 0 0 1 5.375-3.562l3.023-2.004z"/><path fill="#6DB4C6" d="M843 1031c-1.443 3.366-3.333 5.51-6 8l-3-1a517 517 0 0 1 3.375-3.5l1.898-1.969C841 1031 841 1031 843 1031"/><path fill="#D6F7F8" d="m843 1347-5 4 1 5-3-1v-7c3.625-2.125 3.625-2.125 7-1"/><path fill="#DBF9FA" d="M627 921c3.904 3.47 6.366 7.552 9 12-3.409-1.398-4.874-2.85-6.75-6l-1.297-2.125C627 923 627 923 627 921"/><path fill="#41414E" d="M1208 775c0 4.39-2.128 5.77-5 9l-3-1z"/><path fill="#C4C3C8" d="M1266 762c2 1 2 1 2.633 2.848l.492 2.215.508 2.222L1270 771l-3 1z"/><path fill="#E3FBFC" d="m1025 1346 3 1-6 8-1-4c1.938-2.75 1.938-2.75 4-5"/><path fill="#D6F8FB" d="m811 1062 2 1c-1.375 1.5-1.375 1.5-3 3h-2l-1 3-5 1c2.853-2.932 5.65-5.643 9-8"/><path fill="#D8FAFD" d="M650 948q1.944 1.398 3.875 2.813l2.18 1.582C658 954 658 954 660 957c-4.428-1.392-6.956-3.52-10-7z"/><path fill="#BCE3E6" d="M877.688 562.75 880 563l-10 8c3.656-7.875 3.656-7.875 7.688-8.25"/><path fill="#3E454F" d="m837 1503 3 1-2 13h-1z"/><path fill="#75BCC3" d="m841 1347 3 1v2l-1.875.25c-2.31.563-2.31.563-3.375 2.813L838 1355c-.75-1.75-.75-1.75-1-4 1.938-2.25 1.938-2.25 4-4"/><path fill="#E4FDFE" d="M727 1102h2c-.542 3.796-2.201 5.472-5 8l-2-1a340 340 0 0 1 2.375-3.5l1.336-1.969z"/><path fill="#323741" d="m843 1446 4 4-3 2-5-4h4z"/><path fill="#B8ECF0" d="M1039 1293c1.41 2.818.509 4.173-.437 7.125l-.872 2.758L1037 1305h-1c-.295-5.023.015-7.895 3-12"/><path fill="#B8E2E3" d="m773 594 2 1c-3.2 2.743-6.005 4.63-10 6 2.578-2.648 4.916-4.944 8-7"/><path fill="#181D2B" d="m876 1534 5 2-1 4v-2l-4-1z"/><path fill="#E9FEFE" d="m819 1057 2 1c-2.312 2.5-2.312 2.5-5 5h-3c1-3 1-3 3.438-4.75z"/></svg>