<svg xmlns="http://www.w3.org/2000/svg" width="384" height="555"><path fill="#5924A8" d="M277.862 35.062c2.207 1.139 2.207 1.139 5.138.938l.605 1.715c1.933 3.167 4.683 4.827 7.707 6.847 35.94 24.891 63.27 63.434 72.313 106.563l.641 3.032c9.755 47.418-.882 94.607-27.09 135.122-6.383 9.633-13.14 18.85-20.602 27.674-1.946 2.304-3.805 4.608-5.574 7.047l1 2-1.8.742c-12.58 7.194-22.356 34.104-25.931 47.119-1.582 6.14-2.595 12.212-3.269 18.514-1.112 10.215-3.885 17.187-11 24.625l.875 1.617c3.305 6.634 4.675 12.628 2.324 19.84-1.45 3.375-2.933 6.202-5.199 9.105-1.273 2.344-1.273 2.344-.328 4.41a74 74 0 0 0 2.25 4.16c2.777 4.81 2.75 9.352 1.36 14.56-2.99 8.857-6.525 13.843-14.868 18.308-2.483 1.028-4.635 1.404-7.289 1.75-2.246.323-2.246.323-4.125 1.25-1.205 2.128-1.703 4.126-2.277 6.5-1.28 4.426-3.982 7.854-6.723 11.5l-1.488 2.062c-6.716 8.533-16.986 14.45-27.512 16.938l-2.117.55c-11.154 1.739-24.389 1.817-34.883-2.55l-2.969-1.184c-6.959-3.101-11.761-7.02-16.875-12.644-2.005-2.02-3.548-3.105-6.156-4.172l1-2c-.883-2.447-.883-2.447-2.25-5.063l-1.328-2.722c-1.29-2.52-1.29-2.52-4.422-3.215l-.305-1.945L136 492c-2.773-1.157-2.773-1.157-6.125-1.875-8.215-2.337-12.497-5.312-16.813-12.688-2.747-6.032-3.01-11.924-2.062-18.437 1.1-2.869 2.485-5.312 4-8-.37-3.278-1.904-5.635-3.563-8.438-3.12-6.104-3.3-11.829-2.437-18.562 1.5-3.563 1.5-3.563 3-6 .44-4.067.44-4.067-2.25-6.563-5.917-6.802-6.986-15.363-8.125-24-3.862-28.527-18.76-50.13-37.113-71.507C52.347 301.74 41.584 286.617 33 270l-1.062-2.045C21.519 247.612 13.243 223.136 15 200l-2-1v-16h2l-.54-1.508c-5.158-27.892 13.472-66.3 28.22-88.676C47.684 85.553 53.3 78.723 59 72l2.047-2.457c3.542-4.18 3.542-4.18 4.953-5.543h2l1-3h2v-2c28.101-30.795 74.727-44.957 114.812-46.875 32.482-1.177 63.495 7.902 92.05 22.937M70.78 81.004c-27.313 30.625-42.269 70.928-41.948 111.93.101 2.264.101 2.264 1.168 5.066.045 2.187.04 4.375 0 6.562-.24 4.38-.24 4.38 1 8.438.168 1.5.298 3.006.406 4.512 3.42 36.69 26.625 67.296 49.939 94.03 18.9 21.737 32.327 47.088 36.1 75.853.87 6.415 1.613 10.237 6.555 14.605 3.538 1.713 6.355 2.25 10.268 2.254l3.157.017 3.43-.012 3.638.01q4.927.01 9.856 0c3.443-.005 6.886 0 10.33.002q8.673.006 17.347-.01 10.016-.015 20.032.003 8.61.013 17.22.006 5.139-.007 10.276.003c3.82.005 7.64-.003 11.461-.014l3.425.012c6.255-.034 11.616-.063 16.81-3.959 3.306-4.368 3.911-9.838 4.737-15.158 4.67-30.04 19.216-55.296 38.801-78.18 29.71-34.8 51.136-79.145 47.857-125.876.04-8.594.04-8.594-2.645-16.098-.284-2.221-.448-4.443-.621-6.676-.4-2.448-1.199-4.16-2.379-6.324v-1c-1.14-7.529-3.378-14.305-6.313-21.313l-1.314-3.139c-6.722-15.508-15.827-31.056-27.893-43.06-2.453-2.466-4.626-5.179-6.859-7.843L303 74h-2v-2c-1.68-1.777-1.68-1.777-3.813-3.563l-2.144-1.878c-2.056-1.743-2.056-1.743-5.043-2.559l-5-5c-2.194-1.724-4.485-3.276-6.813-4.813l-1.976-1.305C209.996 10.072 123.595 24.279 70.78 81.004"/><path fill="#CEA2FD" d="M213 107c8.941 7.13 16.945 15.072 21 26l3.734-.105c16.833-.34 29.117 2.673 43.266 12.105v2l1.79.727c8.789 5.062 13.701 19.23 17.21 28.273h2a120 120 0 0 1 3.516 3.527c1.55 1.539 3.197 2.821 4.921 4.16 8.369 7.168 12.737 18.494 13.875 29.27.31 13.865-4.456 24.846-14.007 34.852-6.39 6.074-12.828 8.173-21.328 10.394-2.878.664-2.878.664-4.977 1.797a150 150 0 0 1-7.812-1.375l-2.159-.422c-5.864-1.15-5.864-1.15-8.63-2.039-3.65-.25-6.02 1.669-8.961 3.586C245.24 266.533 234.9 267.432 222 267h-3l-3-2c-4.692-1.78-4.692-1.78-9.562-1.375-2.54 1.381-2.54 1.381-5.176 3.29-12.455 7.964-27.894 9.218-42.203 6.397-2.735-.671-5.395-1.403-8.059-2.312v-2l-2.5-.625c-5.455-2.143-9.72-5.729-14-9.687-5.533-3.736-12.147-2.728-18.496-2.137L114 257l-1 2v-2l-1.984-.078c-11.312-.703-20.216-3.983-29.59-10.305C78.7 244.8 75.97 243.365 73 242l1-2-2.187-1.937c-4.466-4.466-7.151-10.22-9.376-16.063-1.099-3.14-1.099-3.14-3.624-3.937L57 218l3-7h-3l-1-6 2 1 .262-3.043c1.631-16.733 7.126-29.8 19.363-41.77 8.603-6.981 19.297-10.652 30.059-12.582L111 148l2.08-.253c2.186-.36 3.935-.758 5.92-1.747 1.491-2.699 2.276-4.605 3.063-7.5 2.292-7.133 5.169-12.646 9.937-18.5l1.496-1.95C151.5 95.56 189.312 90.803 213 107"/><path fill="#5826AA" d="M213 107c8.941 7.13 16.945 15.072 21 26l3.734-.105c16.833-.34 29.117 2.673 43.266 12.105v2l1.79.727c8.789 5.062 13.701 19.23 17.21 28.273h2a120 120 0 0 1 3.516 3.527c1.55 1.539 3.197 2.821 4.921 4.16 8.369 7.168 12.737 18.494 13.875 29.27.31 13.865-4.456 24.846-14.007 34.852-6.39 6.074-12.828 8.173-21.328 10.394-2.878.664-2.878.664-4.977 1.797a150 150 0 0 1-7.812-1.375l-2.159-.422c-5.864-1.15-5.864-1.15-8.63-2.039-3.65-.25-6.02 1.669-8.961 3.586C245.24 266.533 234.9 267.432 222 267h-3l-3-2c-4.692-1.78-4.692-1.78-9.562-1.375-2.54 1.381-2.54 1.381-5.176 3.29-12.455 7.964-27.894 9.218-42.203 6.397-2.735-.671-5.395-1.403-8.059-2.312v-2l-2.5-.625c-5.455-2.143-9.72-5.729-14-9.687-5.533-3.736-12.147-2.728-18.496-2.137L114 257l-1 2v-2l-1.984-.078c-11.312-.703-20.216-3.983-29.59-10.305C78.7 244.8 75.97 243.365 73 242l1-2-2.187-1.937c-4.466-4.466-7.151-10.22-9.376-16.063-1.099-3.14-1.099-3.14-3.624-3.937L57 218l3-7h-3l-1-6 2 1 .262-3.043c1.631-16.733 7.126-29.8 19.363-41.77 8.603-6.981 19.297-10.652 30.059-12.582L111 148l2.08-.253c2.186-.36 3.935-.758 5.92-1.747 1.491-2.699 2.276-4.605 3.063-7.5 2.292-7.133 5.169-12.646 9.937-18.5l1.496-1.95C151.5 95.56 189.312 90.803 213 107m-72.219 23.625c-4.292 5.723-6.693 11.913-8.844 18.688-1.36 4.27-2.586 7.553-5.937 10.687-2.724.908-4.573 1.165-7.395 1.29-13.408.78-24.326 2.634-34.605 12.023-8 9.03-12.725 19.4-12.34 31.511 1.229 11.483 5.87 21.157 14.356 29.051 9.949 7.834 20.341 11.15 32.984 10.125 2.685-.635 5.246-1.437 7.863-2.305 3.055-.994 4.962-1.385 8.137-.695 3.917 2.78 7.196 6.156 10.5 9.625 8.766 8.328 18.714 10.88 30.604 10.722C187.986 260.924 196.57 256.43 205 248c6.519-1.142 10.607.51 16 4 7.175 2.566 19.244 2.306 26.148-.797 2.476-1.609 4.619-3.524 6.852-5.453 4.354-3.628 4.354-3.628 7.133-4.152 3.495.377 6.202 1.549 9.43 2.964 6.915 2.742 15.314 2.668 22.382.56 7.265-3.367 12.962-8.252 16.493-15.497 3.277-9.388 3.192-20.287-1-29.312-4.248-7.23-8.377-10.587-16.188-13.438-4.893-2.077-4.893-2.077-6.41-5.469q-.664-3.091-1.195-6.21c-1.908-9.455-7.82-16.82-15.645-22.196-6.864-3.73-12.838-6.214-20.684-5.922l-3.31.078q-3.438.093-6.875.235c-8.336.157-8.336.157-12.21-2.512a75 75 0 0 1-5.233-9.191C215.747 126.244 209.64 120.455 200 116l-2.312-1.191c-20.869-9.358-42.872-.669-56.907 15.816"/><path fill="#C59AFB" d="m144.547 454.255 3.467-.022c3.77-.016 7.537.011 11.306.04q3.936.001 7.871-.003 8.24 0 16.477.058c6.344.042 12.687.049 19.03.037 6.115-.012 12.229 0 18.343.022q3.895.012 7.791.007c3.627-.001 7.253.024 10.88.057l3.255-.015c7.276.104 7.276.104 11.176 2.473 2.94 3.31 3.152 5.629 3.064 10.06-.315 3.094-1.147 4.705-3.207 7.031-5.994 3.29-11.215 3.434-17.965 3.404l-3.28.02c-3.564.02-7.128.015-10.692.01q-3.728.007-7.453.015-7.803.013-15.605-.003c-6.662-.011-13.322.009-19.984.038-5.128.018-10.257.018-15.385.012q-3.684 0-7.368.019c-3.435.015-6.868.004-10.303-.013l-3.064.029c-6.17-.064-9.851-.918-14.901-4.531-2.356-2.869-2.615-6.297-2.492-9.979.798-3.279 2.668-4.723 5.244-6.78 4.355-2.404 8.932-2.055 13.795-1.986"/><path fill="#C497FB" d="m134.674 418.853 3.063-.022 3.389-.008 3.547-.02q4.833-.024 9.664-.036 3.02-.007 6.038-.018 9.447-.029 18.892-.041a5166 5166 0 0 0 21.805-.077q8.426-.044 16.851-.048c3.355-.002 6.71-.011 10.064-.036 3.747-.025 7.493-.024 11.24-.017l3.359-.039c6.095.042 9.808.36 14.414 4.509 1.729 3.457 1.49 7.22 1 11-1.794 2.87-2.983 4.491-6 6-1.61.101-3.225.14-4.838.147l-3.098.022-3.41.008-3.583.02c-3.926.02-7.852.031-11.778.041l-4.054.013q-9.524.029-19.047.041-10.994.015-21.987.077-8.498.044-16.994.048c-3.383.002-6.766.011-10.15.036-3.775.025-7.55.024-11.326.017l-3.393.039c-7.58-.051-7.58-.051-11.513-2.413-3.1-3.551-3.214-6.248-3.192-10.834.571-3.558 2.614-5.117 5.363-7.262 1.625-1.625 3.428-1.136 5.674-1.147"/><path fill="#C092FA" d="M154 492h76c-3.472 10.417-10.335 16.043-20 21-10.326 4.276-23.429 4.866-34 1-9.92-4.217-16.83-10.527-22-20z"/><path fill="#411B79" d="m216 14 1 2c-.97-.01-1.94-.02-2.94-.032C166.692 15.504 121.84 20.395 84 52l-1.598 1.33C70.512 63.25 60.195 73.503 51 86l-1.871 2.492c-18.43 25.282-31.256 57.7-31.297 89.203l-.01 2.758a2122 2122 0 0 0-.007 5.753c-.002 2.89-.02 5.78-.04 8.669-.027 9.241.17 18.126 1.794 27.246.45 3 .502 5.85.431 8.879l-2-1a111 111 0 0 1-1.625-8.312l-.4-2.455c-.987-6.438-1.32-12.72-.975-19.233l-2-1v-16h2l-.54-1.508c-5.158-27.892 13.472-66.3 28.22-88.676C47.684 85.553 53.3 78.723 59 72l2.047-2.457c3.542-4.18 3.542-4.18 4.953-5.543h2l1-3h2v-2c27.143-29.744 72.776-44.737 111.646-46.594 24.256-.982 24.256-.982 33.354 1.594"/><path fill="#3F1A78" d="M219 16c6.482-.294 11.955.698 18.188 2.438l2.88.794c13.193 3.806 25.663 9.443 37.794 15.83 2.207 1.139 2.207 1.139 5.138.938l.605 1.715c1.933 3.167 4.683 4.827 7.707 6.847 35.94 24.891 63.27 63.434 72.313 106.563l.641 3.032c3.77 18.327 4.804 36.27 2.859 54.905l-.237 2.328c-.637 5.36-.637 5.36-2.888 7.61l.092-1.965c1.745-37.903-.268-73.23-19.11-107.259a307 307 0 0 1-2.841-5.3C334.863 91.096 325.534 78.985 315 68l-2.32-2.477c-5.877-6.103-12.225-11.342-19.05-16.325a254 254 0 0 1-4.54-3.44c-17.934-13.28-39.527-21.346-61.16-26.06l-2.633-.585-2.364-.506C221 18 221 18 219 16"/><path fill="#622DB2" d="m251 70 3 1-.25 2.625c.313 4.22 1.593 6.127 4.25 9.375 2.294 1.554 3.886 1.981 6.625 2.438C267 86 267 86 269 89c-1.878 2.295-2.963 2.99-5.875 3.813-3.944 1.498-6.022 3.63-8.125 7.187-1.203 2.95-2.16 5.927-3 9l-2-1a772 772 0 0 1-2-7l-2-2-.805-1.953c-1.623-2.78-3.427-3.462-6.32-4.797l-2.758-1.297L234 90c2.43-2.43 4.935-3.475 8.027-4.902 2.111-1.175 3.477-2.2 4.973-4.098.462-1.945.462-1.945.5-4 .326-3.778.326-3.778 2.063-6z"/><path fill="#401978" d="M222 30c6.258.525 11.711 1.61 17.625 3.688l2.322.793C249.4 37.064 256.717 39.971 264 43v2l2.68.809C282.328 51.424 296.585 65.277 308 77l1.515 1.449C326.868 95.203 337.755 116.667 346 139l1.387 3.727c1.772 5.012 2.8 8.91 2.613 14.273l-4-1-1-5h2c-6.992-22.406-17.474-54.316-38-68l-1.375-2.375C305.802 77.68 303.703 76.119 301 74v-2l-1.687-.687C297 70 297 70 294.438 67.375c-2.229-2.724-2.229-2.724-5.438-2.375l-1-3a102 102 0 0 0-6.687-4.687l-2.032-1.327C269.898 49.921 260.752 44.28 250 41l-1-2a72 72 0 0 0-5-1c-3.6-.919-7.173-1.931-10.75-2.937l-2.941-.803-2.793-.787-2.554-.711C223 32 223 32 222 30"/><path fill="#3F1974" d="M363 220h1c.337 5.97-.84 10.823-2.625 16.5l-.833 2.684c-9.412 29.782-25.328 55.466-45.285 79.292A114 114 0 0 0 311 324l1 2-1.8.742c-12.475 7.135-22.018 33.324-25.677 46.356A532 532 0 0 0 281 387h-1c-.927-11.588 3.787-22.856 9-33l.991-1.952c6.901-13.451 15.436-25.059 25.013-36.708 21.27-25.956 36.678-53.686 45.381-86.068A574 574 0 0 1 363 220"/><path fill="#502491" d="M303 108c2.67 1.335 2.721 2.556 3.75 5.313 1.896 4.473 3.892 6.369 8.25 8.687l3 2-1.75 1.023-2.25 1.352c-.743.44-1.485.882-2.25 1.336L310 129v2l-1.937 1.75c-2.507 2.734-2.733 4.618-3.063 8.25l-3-1c-.633-1.855-.633-1.855-1.125-4.187-1.54-5.267-4.411-7.11-9.012-9.817L290 125c1.52-3.039 3.98-3.644 7-5h2c1.665-3.924 2.872-7.891 4-12"/><path fill="#401B77" d="M75 75c0 3.898-1.06 4.387-3.75 7.125C55.35 99.396 43.678 120.532 37 143l-1.14 3.73c-2.298 8.273-3.561 16.565-4.61 25.083l-.387 3.144C29.309 186.59 29.309 186.59 31 198c.045 2.187.04 4.375 0 6.563-.24 4.38-.24 4.38 1 8.437a65 65 0 0 1-.437 4.625l-.31 2.477L31 222h-1c-1.896-9.72-2.313-19.094-2.26-28.965.01-2.4 0-4.8-.013-7.2C27.708 164.87 31.56 146.2 40 127l.93-2.136C49.128 106.204 60.13 89.106 75 75"/><path fill="#3E1972" d="M20 232c2.307 2.307 2.715 3.788 3.664 6.883l.949 3.013 1.012 3.229c8.005 24.661 21.614 45.12 38.063 65Q67.348 314.558 71 319l1.836 2.229C94.53 347.731 94.53 347.731 96 360c-2.256-2.086-3.718-4.05-5.129-6.773l-1.181-2.23-1.252-2.372C83.974 340.399 79.013 333.17 73 326l-1.38-1.651a1296 1296 0 0 0-7.038-8.314C47.222 295.63 18.607 260.692 20 232"/><path fill="#5D2AAB" d="M127 295c2 2 2 2 2.875 5 .825 3.105.825 3.105 3.25 4.375L135 305l-2 1 3.375 1.438c1.892.815 3.782 1.64 5.625 2.562v2l-1.645.516c-5.708 1.891-5.708 1.891-9.355 6.484a157 157 0 0 0-3 7l-.875-1.812c-1.172-2.381-1.172-2.381-3.125-5.188l-.75-2c-1.801-2.882-4.198-3.673-7.25-5l1-4 2.313-.25c2.715-.537 2.715-.537 4.374-2.312 1.823-3.386 2.499-6.68 3.313-10.438"/><path fill="#411A74" d="M141 495c2.305 2.963 4.254 6.035 6.188 9.25 6.817 10.658 15.515 18.138 27.94 21.629 17.825 3.19 34.057 1.879 49.255-8.234C227 516 227 516 229 516v2a81 81 0 0 1-5.937 3.938l-1.792 1.09c-4.599 2.726-9.075 4.744-14.271 5.972-.699.182-1.397.364-2.117.55-11.154 1.739-24.389 1.817-34.883-2.55l-2.969-1.184c-6.959-3.101-11.761-7.02-16.875-12.644-2.005-2.02-3.548-3.105-6.156-4.172l1-2c-.89-2.067-1.99-3.968-3.09-5.93C141 499 141 499 141 495"/><path fill="#421B77" d="M103 386c2.347 3.52 2.599 6.025 3.25 10.188 1.476 8.368 4.854 12.986 10.75 18.812-1.065 2.211-2.153 4.224-3.543 6.254-2.641 4.978-2.17 10.267-1.457 15.746 1.291 3.314 3.013 6.068 5 9 1.309 1.965 1.309 1.965 2 4-.863 2.156-.863 2.156-2.312 4.5-3.153 5.74-3.566 11.035-3.688 17.5h-2c-.459-8.356-.106-13.715 4-21-.37-3.278-1.904-5.635-3.562-8.437-3.12-6.105-3.301-11.83-2.438-18.563 1.5-3.562 1.5-3.562 3-6 0-4.563-.78-4.912-3.625-8.105-4.294-5.916-5.99-13.707-6.375-20.895z"/><path fill="#42238A" d="M65 177h2l-1.437 4.813-.81 2.707A216 216 0 0 1 63 190c-.044 2.041-.04 4.084 0 6.125A137 137 0 0 1 63 202l-1 1c-1.258 10.485 3.478 21.888 9.668 30.168C73 235 73 235 74.047 237.168c1.229 2.362 2.577 2.759 4.953 3.832l1 2c-1.812.688-1.812.688-4 1-1.75-1.437-1.75-1.437-3-3l1-1-2.187-1.937c-4.466-4.466-7.151-10.22-9.376-16.063-1.099-3.14-1.099-3.14-3.624-3.937L57 218l3-7h-3l-1-6 2 1 .262-3.043C59.19 193.535 61.097 185.7 65 177"/><path fill="#D4A9FC" d="M154 492h76c-2.25 6.75-2.25 6.75-6 9 1.875-4.875 1.875-4.875 3-6h-72z"/><path fill="#52289A" d="m251 70 3 1-.25 2.625c.313 4.22 1.593 6.127 4.25 9.375 2.294 1.554 3.886 1.981 6.625 2.438C267 86 267 86 269 89c-1.878 2.295-2.963 2.99-5.875 3.813-4.152 1.577-5.415 3.725-8.125 7.187h-2c1.353-4.427 3.233-6.363 7-9l2-1-1.645-1.39-2.168-1.86-2.144-1.828c-1.962-1.846-3.5-3.721-5.043-5.922l-1.687 2.688c-2.092 3.155-4.559 5.71-7.313 8.312l1 2c-6.75-.75-6.75-.75-9-3 1.03-.49 1.03-.49 2.082-.988l2.73-1.325 2.708-1.3c2.326-1.3 3.87-2.278 5.48-4.387.462-1.945.462-1.945.5-4 .326-3.778.326-3.778 2.063-6z"/><path fill="#421A79" d="M345 234h2c-.417 7.292-2.892 12.946-6 19.5l-1.504 3.212C331.128 274.383 321.52 290.725 308 305c0-4.023 2.005-5.837 4.438-8.812 3.816-4.808 7.366-9.712 10.687-14.875l1.181-1.818c2.054-3.01 2.054-3.01 2.694-6.495l1.356-1.353c3.131-3.137 4.65-7.426 6.519-11.397l1.343-2.83c3.56-7.645 6.42-15.327 8.782-23.42"/><path fill="#4C2486" d="M302 179c6.022 1.084 10.096 5.518 13.71 10.23 7.178 11.167 9.958 23.274 7.603 36.333-1.286 5.177-3.766 9.78-6.313 14.437h-2c1.004-3.168 2.05-6.1 3.547-9.074 1.999-4.644 1.947-9.184 1.89-14.176l-.022-2.825C320.159 203.257 317.342 194.89 310 187a141 141 0 0 0-6.46-5.652L302 180z"/><path fill="#602AB0" d="m303 116 3 1 .875 1.875c1.485 2.804 3.365 3.672 6.125 5.125l-10 10-.875-1.937c-.953-2.215-.953-2.215-3.125-3.063v-2l-3-1c1.668-3.941 4.227-6.79 7-10"/><path fill="#40177A" d="M206 27v1l-2.209.06c-19.059.543-37.198 1.61-55.768 6.038-3.658.858-7.296 1.428-11.023 1.902 15.426-13.309 50.265-11.701 69-9"/><path fill="#50278E" d="m313 241 1 3c-8.118 7.742-14.819 11.68-25.68 14.387-2.323.53-2.323.53-4.32 1.613a138 138 0 0 1-7.687-1.312l-2.108-.397c-4.485-.867-8.83-1.978-13.205-3.291l1-2c5.572.886 5.572.886 7.936 1.514 11.411 2.688 23.13 1.327 33.185-4.49 3.757-2.641 6.99-5.45 9.879-9.024"/><path fill="#4F278C" d="M80 244c3.804 1.435 7.297 3.201 10.875 5.125 4.74 2.411 7.862 3.593 13.125 2.875v2q4.531-.213 9.063-.437l2.568-.12c4.849-.243 9.575-.669 14.369-1.443-4.542 4.164-10.022 5-16 5l-1 2v-2l-1.984-.078c-11.24-.699-22-3.941-31.016-10.922z"/><path fill="#42197A" d="m136 37-4 2-2.758 1.387a569 569 0 0 1-7.047 3.445c-14.56 7.047-29.07 15.856-40.476 27.496C80 73 80 73 78 73c1.68-5.04 6.309-7.53 10.4-10.735a294 294 0 0 0 4.588-3.726C124.488 33.163 124.488 33.163 136 37"/><path fill="#452180" d="M164 101c-1 2-1 2-3.223 2.895l-2.84.918c-15.625 5.504-25.13 16.31-32.324 31.023A185 185 0 0 0 123 142c-1.488-4.329-.2-6.592 1.7-10.566 7.581-14.186 21.657-30.91 39.3-30.434"/><path fill="#4C238F" d="M127 295c2 2 2 2 2.875 5 .825 3.105.825 3.105 3.25 4.375L135 305l-2 1-1 2c-1.5-1.375-1.5-1.375-3-3v-2h-2l-2 6-5 1v2l2.375.813C125 314 125 314 127 317v3h2l2-6h2c-1.59 4.035-3.282 8.018-5 12l-.875-1.812c-1.172-2.381-1.172-2.381-3.125-5.188l-.75-2c-1.801-2.882-4.198-3.673-7.25-5l1-4 2.313-.25c2.715-.537 2.715-.537 4.374-2.312 1.823-3.386 2.499-6.68 3.313-10.438"/><path fill="#431C79" d="M265 450c3 1 3 1 4.168 3.04 3.46 8.776 3.493 14.562.02 23.378-3.155 6.86-8.237 10.765-15.188 13.582-3.562.313-3.562.313-6 0 2.257-2.257 3.755-2.685 6.75-3.687 6.102-2.364 9.537-5.798 12.387-11.645 2.67-8.25 1.045-16.846-2.137-24.668"/><path fill="#4A1E85" d="M260 136c8.043.357 14.433 4.622 21 9v2l1.785.719c6.8 3.933 11.386 14.177 14.215 21.281v3h-2l-1.32-2.781C285.622 152.496 276.615 144.887 260 137z"/><path fill="#3F1971" d="m288 328 2 1-.87 1.45c-1.319 2.201-2.63 4.407-3.942 6.613l-1.37 2.279c-2.637 4.446-4.879 8.852-6.818 13.658l-1.52 3.379c-1.686 4.125-2.953 8.276-4.168 12.558l-.681 2.362q-.82 2.85-1.631 5.701h-1c-.284-5.46.622-9.863 2.5-14.937l.805-2.22c4.21-11.26 9.571-22.13 16.695-31.843"/><path fill="#47207E" d="m205 261 2 2c-13.618 10.74-27.351 11.76-44 11v-2l3.848-.043c13.874-.32 27.151-1.566 38.152-10.957"/><path fill="#3E1974" d="M47 267c4.123 1.374 5.056 4.144 7.063 7.75 4.712 8.168 10.042 15.834 16.38 22.847C71.7 299.005 72.858 300.498 74 302l-1 3c-7.852-8.852-14.642-18.028-21-28l-1.734-2.656C47 269.28 47 269.28 47 267"/><path fill="#421D7D" d="M195 101c12.925.718 21.318 8.133 30 17 1.91 2.152 1.91 2.152 3 4l-1 3-1.758-2.012C216.33 112.914 207.79 106.418 195 102z"/><path fill="#421C77" d="M98 335c3.718 3.262 5.805 6.988 7.938 11.375l1.044 2.129c4.25 8.832 8.42 17.513 8.018 27.496-2.36-3.541-3.382-7.166-4.625-11.187-2.313-7.258-5.18-13.959-8.747-20.685-1.592-3.004-3.043-5.755-3.628-9.128"/><path fill="#4E2289" d="M131 253c3.32 1.451 5.528 3.306 8.125 5.813 6.704 6.076 14.43 9.216 22.875 12.187v1l-11-1v-2l-2.5-.625c-6.99-2.746-12.495-7.87-17.5-13.375z"/><path fill="#481E88" d="m179.5 97.813 3.781-.043c3.937.244 6.99 1.014 10.719 2.23v1h-29v-2a92.6 92.6 0 0 1 14.5-1.187"/><path fill="#3E1976" d="M302 179c6.09 1.096 10.305 5.61 13.781 10.512 4.027 6.602 6.528 11.615 6.219 19.488-1.888-2.832-2.72-4.985-3.75-8.187-3.031-8.46-7.835-13.813-14.71-19.465L302 180z"/><path fill="#451D7F" d="m115 377 2 1c.687 3.73 1.214 7.447 1.68 11.21.716 4.999 1.556 8.145 5.32 11.79 3.117 1.81 3.117 1.81 6 3v2c-3.978-.351-6.677-1.686-9.645-4.379-5.55-6.638-5.018-16.452-5.355-24.621"/><path fill="#391872" d="M28 176h1l.076 1.697c.116 2.538.239 5.077.361 7.615l.12 2.67.127 2.569.11 2.364c.147 2.278.147 2.278 1.206 5.085.045 2.187.04 4.375 0 6.563-.24 4.38-.24 4.38 1 8.437a65 65 0 0 1-.437 4.625l-.31 2.477L31 222h-1c-1.977-10.201-2.245-19.965-2.125-30.312q.016-2.297.027-4.592.034-5.548.098-11.096"/><path fill="#3C1670" d="M75 305c5.097 4.067 9.25 8.424 13.25 13.563l1.563 1.958c5.459 6.916 5.459 6.916 7.187 10.479l-1 3-2.09-2.93c-5.08-7.056-10.165-13.77-16.23-20.02-1.745-2.13-2.124-3.415-2.68-6.05"/><path fill="#371666" d="M229 516v2a81 81 0 0 1-5.937 3.938l-1.803 1.087c-8.237 4.852-14.73 6.512-24.26 5.975v-1l3.262-.594c9.316-1.854 16.448-4.413 24.297-9.797C227 516 227 516 229 516"/><path fill="#3D1674" d="M352 169h1c2.475 12.065 2.574 23.803 1 36h-1a468 468 0 0 1-1-36"/><path fill="#DDBAFB" d="m99 240 3.438.527c4.585.574 8.966.382 13.562.036l2.348-.159q2.826-.194 5.652-.404l1 2c-7.31 2.76-15.958 3.667-23.312.5L99 241z"/><path fill="#441876" d="M279 389h1c.569 8.31-.009 15.98-5.379 22.734-1.371 1.391-1.371 1.391-3.621 3.266l-3-1 2.313-2.125c5.202-5.566 6.215-10.911 7.257-18.266C278 391 278 391 279 389"/><path fill="#341165" d="m216 14 1 2c-9.972.07-19.909-.138-29.875-.5l-4.145-.145A7731 7731 0 0 1 173 15v-1q7.257-.254 14.514-.482 2.465-.08 4.929-.166 3.56-.123 7.12-.23l2.194-.083c4.858-.14 9.45.103 14.243.961"/><path fill="#482080" d="m313 241 1 3c-7.835 7.473-14.046 12.218-25 13 2.573-1.715 5.096-3.008 7.888-4.31 6.38-3.006 11.62-6.134 16.112-11.69"/><path fill="#4A2382" d="M80 244c3.804 1.435 7.297 3.201 10.875 5.125 4.74 2.411 7.862 3.593 13.125 2.875v2l2 1c-9.44.908-18.678-3.101-26-9z"/><path fill="#542895" d="M220 264h20v2c-3.566 1.189-6.794 1.108-10.5 1.063l-2.05-.014q-2.726-.02-5.45-.049h-3z"/><path fill="#3D1971" d="M35 239c4.01 4.398 6.065 9.2 8.313 14.625l1.126 2.602 1.05 2.5.954 2.268C47 263 47 263 46 266c-11-19.831-11-19.831-11-27"/><path fill="#3A1770" d="M113 473c2 1 2 1 3.75 4.25 3.356 5.977 7.187 8.607 13.625 10.563 1.538.41 3.078.811 4.625 1.187v1c-6.991.42-10.644-1.245-16.187-5.375-2.642-2.466-4.307-4.362-5.813-7.625z"/><path fill="#441E7A" d="M269 418c3.76 2.507 3.988 3.643 5 8 .455 5.721.258 10.638-2 16h-2c.095-.895.19-1.79.29-2.71.688-7.512.742-14.003-1.29-21.29"/><path fill="#50298F" d="m121 140 2 3c-2.875 5.875-2.875 5.875-4 7-2.522.4-5.03.75-7.562 1.063l-2.155.275q-2.64.335-5.283.662v-3l2.773-.402 3.602-.536 3.586-.527c2.946-.37 2.946-.37 5.039-1.535.727-1.979 1.398-3.98 2-6"/><path fill="#532AA0" d="M244 93c4.043 1.497 6.908 4.277 9 8 .313 3.875.313 3.875 0 7h-3l-.875-3.375c-.817-3.628-.817-3.628-3.125-5.625a126 126 0 0 1-2-6"/><path fill="#401974" d="m183.055 526.988 2.363.143 2.457.182 2.434.146c3.973.259 7.805.62 11.691 1.541v1c-3.396.03-6.792.047-10.187.063l-2.909.025-2.822.01-2.587.016c-2.587-.118-4.972-.543-7.495-1.114 3.124-2.082 3.57-2.239 7.055-2.012"/><path fill="#381677" d="M297 68c3.814 1.554 6.21 4.085 9 7q2.402 2.41 4.813 4.813L315 84l-1 3c-3.698-2.698-5.67-5.118-8-9a348 348 0 0 0-5-4v-2l-4-2z"/><path fill="#3D1A6D" d="M243 492h1c-.4 9.188-6.048 16.347-12 23l-3-1 1.285-1.258c5.862-6.158 9.188-13.11 12.715-20.742"/><path fill="#461E82" d="M65 177h2l-1.437 4.813-.81 2.707A216 216 0 0 1 63 190a140 140 0 0 0-.062 6.188l.027 3.292L63 202l-2 1c-1.65-9.984-.313-16.882 4-26"/><path fill="#411A7C" d="M260 136c8.558.38 16.236 4.777 22 11l-1 2-1.8-1.355c-6.102-4.45-12.224-7.767-19.2-10.645z"/><path fill="#451E80" d="M344 136c1.973 2.96 2.987 5.46 4.125 8.813l1.07 3.082c.822 3.17.951 5.846.805 9.105l-4-1-1-5h2l-.91-2.52-1.152-3.292-1.16-3.27C343 139 343 139 344 136"/><path fill="#3F1C81" d="M265 390h1c.125 6.625.125 6.625-1 10-1.96 1.64-1.96 1.64-4.375 3.25l-2.398 1.64C256 406 256 406 253 405v-2l9-3c.77-2.074.77-2.074 1.125-4.5.798-4.423.798-4.423 1.875-5.5"/><path fill="#492083" d="M96 153v2l-2.047.77-2.703 1.042-2.672 1.02c-2.51 1.137-4.395 2.512-6.578 4.168h-2v2l-3 1c.2-1.805.2-1.805 1-4 2.145-1.633 2.145-1.633 4.813-3.125l2.644-1.508L88 155l2.074-1.18C92 153 92 153 96 153"/><path fill="#3D1671" d="M16 208c2.304 3.455 2.576 5.722 3.125 9.813l.508 3.644c.333 3.216.436 6.314.367 9.543l-2-1c-2.145-7.176-2.259-14.575-2-22"/><path fill="#5F309F" d="M228 123c2.902 3.386 4.294 5.735 6 10h19v1h-21c-4-7-4-7-4-11"/><path fill="#45207C" d="M321 222h2c-.387 6.96-2.634 11.94-6 18h-2c1.04-3.28 2.179-6.408 3.563-9.562 1.207-2.887 1.971-5.364 2.437-8.438"/><path fill="#472080" d="M260 256v2a365 365 0 0 1-5.125 3l-2.883 1.688c-3.257 1.428-5.476 1.562-8.992 1.312 3.37-2.832 6.946-4.335 11-6l2.313-1.187C258 256 258 256 260 256"/><path fill="#4C288C" d="M69 232a159 159 0 0 1 6 5v2l1.938.875C79 241 79 241 80 243c-1.812.688-1.812.688-4 1-1.75-1.437-1.75-1.437-3-3l1-1-2.5-2.312C69 235 69 235 69 232"/><path fill="#411D79" d="M103 386c2.36 3.54 2.586 5.991 3.125 10.188l.508 3.855L107 403l-2 1a804 804 0 0 1-1.562-6.75l-.88-3.797c-.492-3.048-.635-4.63.442-7.453"/><path fill="#461F94" d="m251 70 3 1-.125 2.75c.123 3.21.7 4.495 2.125 7.25l-1 3-1.937-3L251 78h-1c-.125-5.75-.125-5.75 1-8"/><path fill="#4C2287" d="M29 162c1.72 2.97 2.22 4.915 1.977 8.328l-.157 2.422-.195 2.5-.172 2.547A786 786 0 0 1 30 184h-1c-.839-7.51-1.077-14.508 0-22"/><path fill="#46219E" d="M136 489c2.169.506 4 1 6 2l-1 6-4-1z"/><path fill="#431B78" d="M87 318c4.084 3.613 7.536 8.135 10 13l-1 3a1043 1043 0 0 1-4.5-6.312l-1.3-1.803C87 321.34 87 321.34 87 318"/><path fill="#3C197A" d="M164 101c-1.45 2.9-3.297 3.012-6.312 4.063l-2.926 1.035A78 78 0 0 1 148 108v-2q1.904-.972 3.813-1.937l2.144-1.09c3.505-1.67 6.204-2.077 10.043-1.973"/><path fill="#3D176F" d="M219 16c6.334-.345 11.103.707 17 3v1c-5.853-.515-11.33-1.454-17-3z"/><path fill="#3C1970" d="M295 49c3.705.603 5.86 2.225 8.75 4.563l2.422 1.94L308 57l-1 3a2365 2365 0 0 1-6-4.937c-.572-.47-1.145-.938-1.734-1.42A224 224 0 0 1 295 50z"/><path fill="#3E1B6E" d="M229 516v2c-2.336 1.727-2.336 1.727-5.375 3.625l-3.023 1.914C218 525 218 525 216 525v-2c2.336-1.727 2.336-1.727 5.375-3.625l3.023-1.914C227 516 227 516 229 516"/><path fill="#3E1B6D" d="M31 223h2c1.467 5.225 2.226 9.581 2 15-3.102-4.653-4.338-9.415-4-15"/><path fill="#3F1971" d="M21 139h2c-.412 4.97-.796 9.445-3 14h-1q.214-2.376.438-4.75c.08-.882.162-1.763.246-2.672A44 44 0 0 1 21 139"/><path fill="#461F81" d="m311 320 2 2-2 2 1 2-1.75.75c-2.55 1.417-4.268 3.126-6.25 5.25.612-3.44 1.92-5.516 4.063-8.25l1.66-2.14z"/><path fill="#512594" d="m134 308 7 1 1 3c-3.053.981-4.947.981-8 0z"/><path fill="#49227D" d="M147 267c5.455.568 9.91 1.946 15 4v1l-11-1v-2z"/><path fill="#471F81" d="M302 179c3.66.585 5.545 2.083 8.25 4.563l2.14 1.94L314 187l-3 1a1496 1496 0 0 1-4.5-3.937l-2.531-2.215L302 180z"/><path fill="#471F84" d="M279 389h1q.079 2.625.125 5.25l.07 2.953c-.196 2.817-.75 4.406-2.195 6.797-.978-3.796-.927-6.5-.062-10.312l.59-2.676z"/><path fill="#3E197C" d="m296 316 3 1-8 10-1-2z"/><path fill="#471C7D" d="m82 50 2 2-8 7-2-2z"/><path fill="#401A78" d="m93 251 1.898.219 2.477.281 2.46.281c2.134.253 2.134.253 4.165.219v2l2 1c-5.336.271-8.614.427-13-3z"/><path fill="#46207E" d="m185 527 2 1v2l-11-1c3.457-2.304 4.949-2.259 9-2"/><path fill="#371465" d="M110 434c1.71 2.565 2.904 4.88 4.125 7.688l1.07 2.449L116 446c-3.844-1.781-3.844-1.781-5.25-3.75-.943-2.828-.885-5.29-.75-8.25"/><path fill="#471D7F" d="M277 346c1.117 1.734 1.117 1.734 2 4-.68 2.14-.68 2.14-1.875 4.25l-1.18 2.14L275 358l-2-1q.716-2.188 1.438-4.375l.808-2.46C276 348 276 348 277 346"/><path fill="#4A1F97" d="M120 313c2.375.313 2.375.313 5 1 2.152 3.228 2.2 4.284 2 8-2.36-2.146-3.619-4.146-5-7z"/><path fill="#4D2488" d="m205 261 2 2a783 783 0 0 1-4.375 3l-2.46 1.688C198 269 198 269 196 269v-2c1.969-1.508 1.969-1.508 4.5-3.125l2.531-1.633z"/><path fill="#5C1F96" d="m297 171 .813 1.938c1.074 2.393 1.074 2.393 4.187 3.062l1 3c-2.312-.187-2.312-.187-5-1-1.812-2.562-1.812-2.562-3-5z"/><path fill="#421E7C" d="m73 166 3 1-7 9-1-3c.996-1.824.996-1.824 2.438-3.687l1.433-1.887z"/><path fill="#3C167A" d="M271 49c4.11 1.45 7.433 3.511 11 6-3 1-3 1-5.043.074l-2.144-1.386-2.168-1.364L271 51z"/><path fill="#542898" d="M244 489q3.51.43 7 1c-3.75 2-3.75 2-6 2l-1 2h-2c.875-3.875.875-3.875 2-5"/><path fill="#542595" d="m294 126 5 1v2l3 1 1 3-2 2-1.25-2.25c-1.687-2.652-3.459-4.617-5.75-6.75"/><path fill="#46207D" d="M122 28c-1 2-1 2-3.812 3.188-3.167.807-4.203.725-7.188-.188 1.264-.7 2.537-1.384 3.813-2.062l2.144-1.16C119 27 119 27 122 28"/><path fill="#401977" d="M265 450c3 1 3 1 4.188 2.75.92 2.55.961 4.56.812 7.25-2-1-2-1-2.852-3.066l-.773-2.497c-.26-.826-.52-1.652-.79-2.503z"/><path fill="#3A166B" d="M113 417h2l-4 10h-1c-.23-3.367-.34-5.414 1.375-8.375z"/><path fill="#3A1677" d="m304 306 3 1-7 8c0-3.999 1.726-5.802 4-9"/><path fill="#3C186C" d="M47 267c3 1 3 1 4.75 3.313 1.4 3.009 1.203 3.667.25 6.687q-1.257-1.932-2.5-3.875l-1.406-2.18C47 269 47 269 47 267"/><path fill="#49248A" d="M310 121c3.375.547 5.082 1.055 8 3l-3 2c-3-1-3-1-4.187-3.062z"/><path fill="#451B81" d="M147 20c-2.963 1.646-5.613 2.653-9 3l-3-2c4.412-1.47 7.483-2.369 12-1"/><path fill="#461E7C" d="M62 312c4 1 4 1 5.813 2.875L69 317l-1 3z"/><path fill="#49207C" d="M327 105h3c1.75 2.25 1.75 2.25 3 5l-1 4z"/><path fill="#481F8B" d="M290 63c3.796.542 5.472 2.201 8 5h-3l-3-3h-3z"/><path fill="#461C7E" d="m312 297 2 2-7 6c1.186-3.375 2.276-5.647 5-8"/><path fill="#50278C" d="M282 147c2.648 2.578 4.944 4.916 7 8h-3c-4-4.229-4-4.229-4-8"/><path fill="#381A95" d="M309 81c2.867.573 3.861.861 6 3l-1 3a105 105 0 0 1-5-4z"/><path fill="#5A49B4" d="M57 196h1v9c-2.09-4.18-2.166-4.804-1-9"/><path fill="#3B0EC9" d="m56 308 4 2-1 2h-3z"/><path fill="#524DB1" d="M56 212h3v3h-2l-1 2z"/><path fill="#5A5AB5" d="m152 271 4 1-1 3v-2h-3z"/><path fill="#2A00D4" d="m104 409 3 1-1 2-2-1z"/><path fill="#574FAF" d="m104 257 3 1-1 2-2-1z"/><path fill="#4C00B2" d="m109 464 1 4-2-1z"/><path fill="#1919E5" d="M109 258h3v2l-3-1z"/><path fill="#7A6FF4" d="m264 256 4 2h-4z"/><path fill="#653FBF" d="M248 103h1v5h-1z"/><path fill="#3F2FCF" d="m172 275 4 1Z"/><path fill="#5F4F9F" d="m13 172 1 4Z"/><path fill="#5425B9" d="m328 109 2 1-1 2z"/><path fill="#3F00BF" d="M269 89v3Z"/><path fill="#3535C9" d="m235 85 3 1h-3z"/><path fill="#3F1FDF" d="m239 84 4 1Z"/><path fill="#781C85" d="m209 12 4 1Z"/><path fill="#3838C6" d="M136 314h2l-1 2z"/><path fill="#1C1CE2" d="M43 290h2l-1 2z"/><path fill="#2A15E9" d="m33 273 2 2h-2z"/><path fill="#2A2AFF" d="m275 259 3 1ZM107 258l2 2h-2z"/><path fill="#1C1CE2" d="M24 259h2l-1 2z"/><path fill="#00F" d="M12 202h2l-1 2z"/><path fill="#2A2AD4" d="m56 181 2 2h-2zM121 132l2 2h-2z"/><path fill="#7F69BF" d="m253 132 3 1Z"/><path fill="#2A15E9" d="m338 130 2 2h-2z"/><path fill="#4646B8" d="m180 96 3 1Z"/><path fill="#5400A9" d="m49 81 2 1-2 1z"/><path fill="#5415BF" d="m304 77 2 2h-2z"/><path fill="#2A00D4" d="m57 71 1 2-2-1z"/><path fill="#5400A9" d="m57 68 3 1Z"/><path fill="#2A00D4" d="M310 58h2l-1 2z"/><path fill="#761187" d="m153 33 3 1Z"/><path fill="#5400A9" d="m217 32 3 1ZM158 32l3 1Z"/><path fill="#00F" d="m196 531 2 1Z"/><path fill="#5F1F7F" d="m176 530 2 1Z"/><path fill="#6A4AB4" d="m160 523 2 1Z"/><path fill="#00F" d="m155 520 2 1ZM252 491l2 1ZM123 489l2 1ZM112 479l2 1Z"/><path fill="#3F00BF" d="m270 445 2 1Z"/><path fill="#00F" d="m104 425 2 1ZM105 420l2 1ZM124 400l2 1ZM277 341l2 1Z"/><path fill="#2A2AD4" d="m114 309 2 1Z"/><path fill="#00F" d="m180 275 2 1Z"/><path fill="#3F3FFF" d="m159 274 2 1Z"/><path fill="#2A2AD4" d="m272 259 2 1Z"/><path fill="#3319E5" d="m128 257 2 1Z"/><path fill="#55A" d="m126 256 2 1Z"/><path fill="#2A2AD4" d="m310 249 2 1Z"/><path fill="#3F3FBF" d="m58 188 2 1Z"/><path fill="#00F" d="m57 180 2 1Z"/><path fill="#3F00BF" d="m310 129 2 1Z"/><path fill="#00F" d="m292 127 2 1Z"/><path fill="#6A2A94" d="m331 115 2 1Z"/><path fill="#00F" d="m325 107 2 1Z"/><path fill="#3F3FBF" d="m254 107 2 1Z"/><path fill="#3F00BF" d="m321 103 2 1Z"/><path fill="#3F3FBF" d="m200 100 2 1Z"/><path fill="#3F00BF" d="m73 55 2 1ZM254 43l2 1Z"/><path fill="#00F" d="m252 42 2 1Z"/><path fill="#7F1F9F" d="m250 41 2 1Z"/><path fill="#3F00BF" d="m285 39 2 1ZM232 35l2 1ZM145 35l2 1Z"/><path fill="#2A2AD4" d="m113 28 2 1Z"/><path fill="#6A2A94" d="m206 12 2 1ZM168 12l2 1Z"/></svg>